<?xml version="1.0" encoding="UTF-8"?>
<!-- Generator: visioncortex VTracer 0.6.3 -->
<svg version="1.1" xmlns="http://www.w3.org/2000/svg" width="1280" height="1280">
<path d="M0 0 C422.4 0 844.8 0 1280 0 C1280 422.4 1280 844.8 1280 1280 C857.6 1280 435.2 1280 0 1280 C0 857.6 0 435.2 0 0 Z " fill="#37C81C" transform="translate(0,0)"/>
<path d="M0 0 C6.37 5.87 11.41 12.38 13 21 C14.71 24.21 14.71 24.21 17 27 C17.1 28.81 17.13 30.63 17.13 32.44 C17.14 33.63 17.14 34.82 17.15 36.04 C17.15 37.38 17.15 38.71 17.15 40.05 C17.15 41.46 17.15 42.86 17.16 44.27 C17.17 48.15 17.17 52.03 17.17 55.91 C17.18 60.09 17.19 64.27 17.2 68.45 C17.22 78.56 17.23 88.66 17.24 98.76 C17.24 103.52 17.25 108.27 17.25 113.03 C17.27 128.83 17.28 144.64 17.29 160.44 C17.29 164.55 17.29 168.65 17.3 172.75 C17.3 173.77 17.3 174.79 17.3 175.85 C17.3 192.37 17.33 208.89 17.36 225.41 C17.4 242.37 17.41 259.32 17.42 276.28 C17.42 285.8 17.43 295.32 17.45 304.85 C17.48 312.96 17.48 321.07 17.47 329.18 C17.47 333.32 17.47 337.46 17.49 341.6 C17.51 345.39 17.51 349.18 17.49 352.97 C17.49 354.99 17.5 357 17.52 359.02 C17.46 367.17 16.78 373.11 10.88 379.19 C9.95 380.08 9.95 380.08 9 381 C8.69 381.78 8.38 382.57 8.06 383.38 C5.04 390.85 -2.45 396.63 -9 401 C-9.66 401.66 -10.32 402.32 -11 403 C-15.54 403.4 -20.1 403.33 -24.66 403.32 C-26.93 403.31 -29.19 403.34 -31.46 403.36 C-32.9 403.36 -34.34 403.36 -35.78 403.36 C-37.09 403.37 -38.4 403.37 -39.75 403.37 C-43 403 -43 403 -44.95 401.6 C-46 400 -46 400 -46 398 C-47.55 397.9 -47.55 397.9 -49.14 397.8 C-53.72 396.85 -55.48 395.34 -58.81 392.12 C-59.75 391.24 -60.68 390.36 -61.64 389.45 C-64 387 -64 387 -66 384 C-70.45 384.51 -72.57 386.05 -75.88 389 C-80.04 392.5 -82.55 393.47 -88 394 C-90.79 396.46 -90.79 396.46 -93 399 C-93.66 399 -94.32 399 -95 399 C-95.19 399.64 -95.37 400.28 -95.56 400.94 C-96.04 401.62 -96.51 402.3 -97 403 C-99.33 403.36 -101.66 403.69 -104 404 C-104.89 404.68 -105.77 405.36 -106.69 406.06 C-111 408.59 -114.2 408.28 -119.1 408.04 C-121.92 407.89 -121.92 407.89 -124.29 408.49 C-127.32 409.06 -130.14 409.13 -133.22 409.13 C-134.4 409.13 -135.58 409.14 -136.79 409.14 C-138.02 409.13 -139.24 409.13 -140.5 409.12 C-141.72 409.13 -142.95 409.13 -144.21 409.14 C-145.39 409.14 -146.57 409.13 -147.78 409.13 C-148.85 409.13 -149.93 409.13 -151.03 409.13 C-153.8 409.01 -156.3 408.58 -159 408 C-160.67 408.03 -162.33 408.09 -164 408.19 C-168.84 408.26 -170.25 407.02 -174 404 C-176.84 403.59 -179.61 403.44 -182.48 403.37 C-185 403 -185 403 -186.84 401.6 C-188 400 -188 400 -188 398 C-189.07 398.08 -190.14 398.16 -191.25 398.25 C-195.72 397.95 -196.1 397.17 -199 394 C-200.7 393.28 -202.4 392.56 -204.11 391.86 C-214.17 387.29 -223.6 379.11 -230.61 370.64 C-232.11 368.83 -232.11 368.83 -234.38 366.62 C-235.24 365.76 -236.11 364.89 -237 364 C-237.56 363.45 -238.12 362.89 -238.7 362.32 C-252.24 348.15 -262.93 327.81 -266.43 308.5 C-266.9 305.77 -266.9 305.77 -269 303 C-269.06 300.75 -269.03 298.5 -268.94 296.25 C-268.85 290.57 -269.11 286.89 -272 282 C-272.66 281.34 -273.32 280.68 -274 280 C-274.22 277.06 -274.33 274.21 -274.34 271.27 C-274.34 270.39 -274.35 269.52 -274.36 268.63 C-274.37 266.78 -274.37 264.93 -274.37 263.09 C-274.37 260.27 -274.41 257.46 -274.45 254.65 C-274.46 252.85 -274.46 251.06 -274.46 249.27 C-274.48 248.01 -274.48 248.01 -274.5 246.73 C-274.46 241.28 -273.45 238.41 -270 234 C-268.58 229.32 -269.05 224.67 -269.26 219.84 C-268.96 216.52 -268 215.58 -266 213 C-265.21 209.98 -265.21 209.98 -264.69 206.62 C-260.61 186.32 -247.92 165.42 -233 151 C-231.98 149.94 -230.96 148.87 -229.94 147.8 C-220.67 138.18 -211.11 129.87 -199 124 C-197.76 123.2 -197.76 123.2 -196.5 122.38 C-194 121 -194 121 -190.88 120.5 C-187.7 119.95 -187.04 119.34 -185 117 C-182 116 -182 116 -179.12 116.19 C-175.19 115.95 -173.92 114.54 -171 112 C-167.49 110.71 -164.13 111 -160.44 111.12 C-155.75 111.17 -151.85 110.89 -147.38 109.5 C-138.14 106.66 -129.98 107.75 -120.82 110.35 C-118.11 110.97 -115.95 111.08 -113.19 110.94 C-108.44 110.73 -105.88 112.33 -102 115 C-101.67 115.33 -101.34 115.66 -101 116 C-99.56 116.13 -98.13 116.23 -96.69 116.31 C-92.39 116.73 -90.87 117.71 -88 121 C-86.34 121.35 -84.67 121.68 -83 122 C-81 123.33 -79 124.67 -77 126 C-75.34 126.38 -73.68 126.73 -72 127 C-71.99 125.77 -71.99 124.53 -71.98 123.26 C-71.92 111.63 -71.85 99.99 -71.76 88.35 C-71.72 82.37 -71.68 76.39 -71.65 70.4 C-71.63 64.63 -71.59 58.85 -71.54 53.07 C-71.52 50.87 -71.51 48.67 -71.5 46.47 C-71.49 43.38 -71.46 40.29 -71.43 37.2 C-71.43 36.3 -71.44 35.4 -71.44 34.47 C-71.27 22.87 -66.64 13.39 -59 4.73 C-42.44 -11.22 -18.73 -13.26 0 0 Z " fill="#FAFCFC" transform="translate(840,378)"/>
<path d="M0 0 C4.56 0.96 8.75 1.16 13.43 1 C19.27 0.84 22.3 1.51 26.93 5.07 C27.26 5.4 27.59 5.73 27.93 6.07 C29.3 6.01 30.68 5.92 32.05 5.82 C36.75 5.73 38.84 7.05 42.38 9.97 C44.56 11.51 46.32 11.13 48.93 11.07 C50.97 12.34 52.96 13.68 54.93 15.07 C56.15 15.69 57.38 16.29 58.62 16.88 C71.62 23.26 85.78 32.85 93.93 45.07 C93.93 46.06 93.93 47.05 93.93 48.07 C94.53 48.29 95.12 48.52 95.74 48.75 C98.51 50.42 99.36 52.27 100.93 55.07 C101.4 55.53 101.86 56 102.35 56.48 C112.6 66.75 118.79 82.07 123.12 95.67 C123.79 97.66 124.56 99.62 125.35 101.57 C138.3 136.14 134.59 180.97 119.98 214.23 C116.62 221.56 112.91 228.58 108.23 235.16 C106.93 237.07 105.87 239.01 104.8 241.07 C102.93 244.07 102.93 244.07 100.68 245 C99.81 245.03 99.81 245.03 98.93 245.07 C98.93 245.73 98.93 246.39 98.93 247.07 C97.28 247.4 95.63 247.73 93.93 248.07 C93.87 248.61 93.81 249.16 93.75 249.72 C92.57 253.08 90.25 255.14 87.74 257.57 C87.27 258.04 86.8 258.51 86.32 259 C83.1 262.17 79.71 264.62 75.93 267.07 C73.96 268.55 72 270.06 70.05 271.57 C66.61 274.17 63.34 276.54 59.43 278.38 C56.14 279.96 54.37 281.44 51.93 284.07 C51.27 284.07 50.61 284.07 49.93 284.07 C49.6 285.39 49.27 286.71 48.93 288.07 C47.99 288.01 47.99 288.01 47.02 287.96 C40.88 287.77 36.5 288.43 30.93 291.07 C30.6 291.73 30.27 292.39 29.93 293.07 C27.97 293.85 27.97 293.85 25.55 294.57 C22.5 295.48 20.63 296.26 17.93 298.07 C14.75 298.23 14.75 298.23 11.05 298.13 C6.26 297.97 6.26 297.97 1.53 298.56 C-1.08 299.07 -3.44 299.19 -6.09 299.2 C-7.03 299.2 -7.97 299.2 -8.94 299.2 C-10.4 299.2 -10.4 299.2 -11.88 299.19 C-13.32 299.2 -13.32 299.2 -14.79 299.2 C-19.02 299.2 -23.16 299.13 -27.36 298.55 C-30.9 298.09 -34.13 298.09 -37.7 298.25 C-43.3 298.32 -45.48 297.29 -50.07 294.07 C-53.15 293.66 -56.16 293.5 -59.27 293.44 C-62.42 293.02 -63.81 292.28 -66.07 290.07 C-66.07 289.41 -66.07 288.75 -66.07 288.07 C-67.29 288.15 -68.51 288.23 -69.76 288.32 C-74.12 288.33 -75.81 286.98 -79.07 284.07 C-79.9 283.82 -80.73 283.58 -81.59 283.33 C-86.59 281.51 -90.73 278.65 -95.13 275.69 C-96.53 274.75 -96.53 274.75 -97.96 273.8 C-116.24 261.31 -132.84 244.22 -141.15 223.36 C-141.97 221.03 -141.97 221.03 -143.51 219.19 C-145.59 216.36 -146.72 213.29 -148.07 210.07 C-148.73 209.08 -149.39 208.09 -150.07 207.07 C-150.29 205.08 -150.51 203.09 -150.63 201.1 C-150.93 198.97 -150.93 198.97 -152.51 197.34 C-154.76 194.06 -155.07 190.54 -155.63 186.69 C-155.86 185.2 -156.09 183.72 -156.33 182.23 C-156.42 181.57 -156.52 180.92 -156.62 180.24 C-157.03 177.95 -157.03 177.95 -158.1 175.41 C-159.38 171.02 -159.4 166.96 -159.41 162.42 C-159.41 161.49 -159.42 160.56 -159.43 159.6 C-159.44 157.63 -159.44 155.66 -159.44 153.69 C-159.45 150.73 -159.48 147.78 -159.52 144.82 C-159.59 133.2 -158.43 123.2 -155.07 112.07 C-154.68 110.3 -154.3 108.53 -153.95 106.75 C-153.07 103.07 -153.07 103.07 -151.07 100.07 C-150.73 98.45 -150.44 96.82 -150.2 95.19 C-149.39 90.76 -148.08 88.47 -145.07 85.07 C-144.73 83.4 -144.4 81.73 -144.07 80.07 C-142.77 78.05 -141.43 76.05 -140.07 74.07 C-139.7 73.14 -139.33 72.21 -138.95 71.25 C-138.07 69.07 -138.07 69.07 -136.07 68.07 C-135.56 66.97 -135.04 65.88 -134.51 64.75 C-125.8 46.73 -109.03 31.15 -92.07 21.07 C-90.72 20.19 -89.36 19.32 -88.01 18.44 C-81.97 14.69 -76.07 11.43 -69.07 10.07 C-68.08 9.32 -68.08 9.32 -67.07 8.57 C-63.67 6.01 -60.69 6.03 -56.51 6.25 C-53.01 6.42 -53.01 6.42 -50.88 4.13 C-50.29 3.45 -49.69 2.77 -49.07 2.07 C-45.22 0.54 -41.08 1.08 -37.01 1.19 C-30.71 1.29 -25.44 0.64 -19.4 -1.25 C-12.68 -3.22 -6.65 -1.48 0 0 Z " fill="#FAFCFC" transform="translate(424.0712890625,487.934326171875)"/>
<path d="M0 0 C4.51 3.07 7.33 6.17 10 11 C10.54 13.92 10.6 16.79 10.62 19.75 C10.36 25.38 10.36 25.38 13 30 C14.76 30.36 16.53 30.64 18.31 30.88 C24.59 31.93 27.3 34.09 31.5 38.81 C33.75 41.22 33.75 41.22 36.38 41.19 C39.51 39.77 41.63 37.86 44.17 35.56 C51.03 29.71 57.51 28.8 66.19 28.75 C67 28.73 67.81 28.71 68.65 28.69 C77.73 28.63 85.86 31.31 93 37 C96.17 40.65 97.92 44.15 98.27 48.96 C97.82 52.32 96.42 54.32 94.07 56.71 C89.95 59.28 85.64 58.86 81 58 C78.9 57.13 77.01 56.11 75.05 54.97 C71.33 53.21 67.09 52.6 63 53 C60.34 54.97 60.03 55.85 59.31 59.19 C59.21 60.12 59.11 61.04 59 62 C59.6 62.11 60.21 62.22 60.83 62.33 C65.44 63.25 68.24 64.18 72 67 C73.37 67.28 74.75 67.53 76.12 67.75 C84.88 69.5 91.92 75.89 97 83 C98.98 86.95 98.4 91.78 98.5 96.12 C98.55 97.15 98.61 98.17 98.66 99.22 C98.77 104.85 98.41 108.24 94.62 112.57 C93.44 113.73 92.23 114.88 91 116 C90.17 116.91 89.35 117.82 88.5 118.75 C82.05 123.86 70.59 125.69 62.61 125.33 C51.39 123.9 40.49 121.84 32 114 C29.51 110.46 28.97 108.77 29.12 104.44 C30.37 99.56 31.54 96.99 35.75 94.12 C42.83 91.67 49.51 95.18 56.04 97.92 C60.51 99.7 64.11 100.47 69 100 C70.49 99.01 70.49 99.01 72 98 C72.22 95.12 72.22 95.12 71 92 C68.29 90.08 65.11 89.13 62 88 C36.96 78.51 36.96 78.51 32 68 C31.33 64.91 30.82 61.84 30.39 58.71 C30.07 55.91 30.07 55.91 29 53 C28.01 53.5 28.01 53.5 27 54 C25.21 54.2 23.42 54.37 21.62 54.5 C18.3 54.75 15.21 55.09 12 56 C11.05 59.2 10.88 62.06 10.89 65.39 C10.89 66.47 10.89 67.55 10.89 68.66 C10.89 70.4 10.89 70.4 10.89 72.18 C10.88 74.64 10.87 77.1 10.85 79.56 C10.83 83.44 10.81 87.32 10.82 91.19 C10.83 94.94 10.8 98.68 10.77 102.43 C10.78 103.58 10.79 104.73 10.81 105.92 C10.71 112.32 10.13 116.18 5.55 120.81 C1.8 123.68 -2.48 123.46 -7 123 C-11.38 121.56 -14.67 119.01 -17 115 C-18 112 -18.13 109.99 -18.14 106.86 C-18.15 105.29 -18.15 105.29 -18.16 103.68 C-18.17 102.55 -18.17 101.42 -18.18 100.25 C-18.2 97.87 -18.22 95.48 -18.25 93.09 C-18.28 89.32 -18.31 85.55 -18.33 81.78 C-18.34 78.15 -18.38 74.51 -18.43 70.88 C-18.42 69.19 -18.42 69.19 -18.42 67.46 C-18.44 65.88 -18.44 65.88 -18.47 64.27 C-18.48 63.35 -18.48 62.42 -18.49 61.47 C-19.15 58.25 -20.49 57.05 -23 55 C-25.75 54.16 -28.09 54.14 -31 54 C-32.3 55.06 -32.3 55.06 -32.05 57.54 C-32 59.2 -32 59.2 -31.96 60.9 C-31.93 62.7 -31.93 62.7 -31.89 64.54 C-31.84 67.09 -31.77 69.64 -31.7 72.19 C-31.68 73.39 -31.66 74.6 -31.64 75.84 C-31.6 77.5 -31.6 77.5 -31.56 79.2 C-32 82 -32 82 -33.72 83.65 C-36.35 85.21 -37.84 85.38 -40.87 85.4 C-41.84 85.41 -42.8 85.43 -43.8 85.44 C-45.35 85.44 -45.35 85.44 -46.93 85.44 C-48.54 85.46 -48.54 85.46 -50.18 85.48 C-53.6 85.52 -57.02 85.54 -60.44 85.56 C-63.85 85.59 -67.27 85.61 -70.69 85.65 C-72.81 85.68 -74.94 85.69 -77.07 85.7 C-78.03 85.71 -79 85.72 -80 85.73 C-81.27 85.74 -81.27 85.74 -82.57 85.74 C-85.39 86.04 -87.48 86.69 -90 88 C-90.5 89.49 -90.5 89.49 -91 91 C-87.23 96.17 -82.9 97.4 -76.73 98.62 C-66.2 99.69 -57.11 97.36 -47.55 93 C-43.93 91.58 -41.64 91.66 -38 93 C-35.06 94.75 -35.06 94.75 -33 98 C-32.05 102.54 -31.92 106.48 -33 111 C-35.56 114.18 -38.46 116.03 -42 118 C-42.72 118.5 -43.43 119 -44.17 119.51 C-56.64 126.07 -73.21 128.11 -86.63 124.3 C-99.91 120.17 -111.39 112.61 -118.25 100.19 C-120.39 95.66 -121.23 90.92 -122 86 C-124.56 88.56 -124.25 89.7 -124.38 93.25 C-124.74 98.28 -125.84 100.98 -129 105 C-129.4 106.21 -129.4 106.21 -129.81 107.44 C-133.29 114.94 -140.52 119.17 -148 122 C-155.4 124.41 -162.13 125.45 -169.89 125.4 C-170.88 125.4 -171.87 125.4 -172.89 125.41 C-174.96 125.41 -177.03 125.4 -179.1 125.39 C-182.26 125.37 -185.41 125.39 -188.57 125.41 C-190.59 125.41 -192.62 125.4 -194.64 125.4 C-195.58 125.4 -196.51 125.41 -197.48 125.42 C-204.46 125.34 -208.99 124.3 -214.65 119.98 C-217.91 115.84 -217.72 112.72 -217.69 107.59 C-217.7 106.65 -217.72 105.71 -217.73 104.74 C-217.77 101.64 -217.78 98.53 -217.78 95.43 C-217.8 93.26 -217.82 91.09 -217.84 88.93 C-217.88 84.39 -217.9 79.84 -217.91 75.3 C-217.93 69.5 -217.98 63.7 -218.03 57.9 C-218.07 53.42 -218.11 48.94 -218.13 44.47 C-218.15 42.33 -218.16 40.19 -218.18 38.05 C-218.2 35.05 -218.21 32.05 -218.21 29.05 C-218.22 28.18 -218.23 27.31 -218.24 26.41 C-218.23 20.61 -218.1 14.46 -216 9 C-213.53 6.78 -211.02 5.35 -208 4 C-207.34 3.67 -206.68 3.34 -206 3 C-203.13 2.89 -200.28 2.84 -197.41 2.83 C-196.11 2.83 -196.11 2.83 -194.8 2.82 C-192.97 2.82 -191.14 2.81 -189.31 2.81 C-186.54 2.81 -183.77 2.79 -181 2.78 C-179.22 2.77 -177.44 2.77 -175.66 2.77 C-174.43 2.76 -174.43 2.76 -173.18 2.75 C-163.41 2.79 -153.36 4.12 -145.9 10.91 C-139.36 17.84 -134.83 24.75 -134.31 34.44 C-134.58 41.2 -136.79 46.7 -141 52 C-143.2 53.3 -143.2 53.3 -145 54 C-145 55.32 -145 56.64 -145 58 C-143.22 59.56 -143.22 59.56 -140.88 60.81 C-135.54 64.15 -130.97 67.74 -129.12 73.94 C-129.08 74.62 -129.04 75.3 -129 76 C-126.69 76 -124.38 76 -122 76 C-121.96 75.02 -121.92 74.04 -121.88 73.03 C-121.03 60.45 -116.53 50.01 -107.44 41.06 C-95.16 31.5 -82.32 28.13 -67 29 C-56.27 30.84 -46.75 36.45 -40 45 C-39.55 46.3 -39.55 46.3 -39.09 47.62 C-38.19 50.25 -38.19 50.25 -35.38 51.31 C-34.2 51.65 -34.2 51.65 -33 52 C-33.09 50.57 -33.09 50.57 -33.18 49.11 C-33.54 38.88 -33.54 38.88 -31.06 34.88 C-27.19 32.5 -23.23 30.65 -19 29 C-18.97 27.94 -18.95 26.88 -18.92 25.78 C-18.37 9.97 -18.37 9.97 -14 5 C-9.83 1.4 -5.63 -1.22 0 0 Z " fill="#EAE734" transform="translate(837,805)"/>
<path d="M0 0 C1.26 0 2.51 0.01 3.81 0.01 C5.13 0.02 6.45 0.03 7.8 0.04 C9.14 0.04 10.48 0.04 11.82 0.05 C15.11 0.06 18.39 0.08 21.68 0.1 C21.97 0.74 22.26 1.38 22.56 2.04 C23.5 4.25 23.5 4.25 25.67 5.04 C26.43 5.24 27.2 5.45 27.99 5.66 C34.79 7.52 38.63 10.68 42.74 16.35 C43.16 16.88 43.58 17.4 44.02 17.95 C52.83 30.03 52.27 45.69 52.21 59.92 C52.22 61.97 52.23 64.03 52.24 66.08 C52.26 71.62 52.26 77.16 52.25 82.7 C52.24 87.34 52.25 91.98 52.26 96.62 C52.28 107.58 52.27 118.54 52.26 129.5 C52.24 140.77 52.26 152.04 52.29 163.3 C52.31 173.01 52.32 182.73 52.31 192.44 C52.31 198.22 52.31 204 52.33 209.79 C52.35 215.23 52.34 220.67 52.32 226.11 C52.31 228.1 52.32 230.08 52.33 232.07 C52.41 246.26 51.86 261.84 41.68 272.85 C40.44 274.23 40.44 274.23 39.18 275.64 C33.86 280.86 31 282.6 23.68 283.1 C23.35 284.42 23.02 285.74 22.68 287.1 C18.46 287.17 14.25 287.23 10.03 287.26 C8.59 287.28 7.16 287.3 5.72 287.32 C3.66 287.36 1.6 287.38 -0.46 287.39 C-1.71 287.41 -2.95 287.42 -4.23 287.44 C-7.32 287.1 -7.32 287.1 -9.25 285.7 C-10.32 284.1 -10.32 284.1 -10.32 282.1 C-11.96 282.19 -11.96 282.19 -13.63 282.29 C-17.32 282.1 -17.32 282.1 -19.26 280.72 C-20.32 279.1 -20.32 279.1 -20.32 277.1 C-21.1 277.02 -21.89 276.93 -22.7 276.85 C-25.32 276.1 -25.32 276.1 -26.45 274.22 C-26.73 273.52 -27.02 272.82 -27.32 272.1 C-27.78 271.64 -28.24 271.18 -28.72 270.71 C-39.67 259.66 -38.76 243.13 -38.74 228.81 C-38.75 226.76 -38.76 224.72 -38.77 222.67 C-38.79 217.14 -38.79 211.6 -38.79 206.07 C-38.79 201.44 -38.8 196.81 -38.81 192.18 C-38.83 181.24 -38.83 170.31 -38.82 159.37 C-38.81 148.12 -38.84 136.87 -38.87 125.62 C-38.91 115.93 -38.92 106.24 -38.91 96.56 C-38.91 90.79 -38.92 85.01 -38.94 79.24 C-38.96 73.8 -38.96 68.37 -38.94 62.94 C-38.94 60.95 -38.94 58.97 -38.96 56.99 C-39.07 39.88 -36.72 25.41 -24.76 12.29 C-20.31 8.3 -17.02 5.96 -11.32 4.1 C-9.59 2.62 -9.59 2.62 -8.32 1.1 C-5.5 -0.31 -3.15 -0.01 0 0 Z " fill="#FAFCFC" transform="translate(916.3203125,493.90234375)"/>
<path d="M0 0 C0.77 0.47 1.54 0.95 2.33 1.43 C4.23 2.61 6.12 3.8 8 5 C7.67 5.99 7.34 6.98 7 8 C8.98 8.66 10.96 9.32 13 10 C13 11.98 13 13.96 13 16 C14.49 16.5 14.49 16.5 16 17 C18.18 20.33 18.92 24.21 20 28 C20.49 28.93 20.49 28.93 21 29.89 C23.02 34.15 23.37 39 24.12 43.62 C24.31 44.67 24.49 45.71 24.68 46.79 C26.25 56.27 26.56 64.84 24.5 74.25 C23.7 77.97 23 81.48 23.02 85.3 C22.99 89.09 21.13 90.93 19 94 C18.65 95.26 18.3 96.52 17.94 97.81 C17.63 98.86 17.32 99.92 17 101 C15.51 101.5 15.51 101.5 14 102 C13.84 102.99 13.67 103.98 13.5 105 C11.8 111.69 4.81 115.73 -0.79 119.07 C-10.95 124.74 -19.22 126.19 -30.75 126.25 C-31.78 126.27 -32.82 126.29 -33.88 126.31 C-49.59 126.39 -61.38 120.02 -72.69 109.5 C-73.45 108.67 -74.21 107.85 -75 107 C-75.53 106.45 -76.05 105.91 -76.6 105.35 C-80.06 101.61 -81.5 99.22 -82 94 C-82.66 93.67 -83.32 93.34 -84 93 C-85.64 89.91 -86 87.97 -85.94 84.44 C-86.01 80.55 -86.66 79.9 -89 77 C-90.31 70.83 -90.18 64.71 -90.19 58.44 C-90.2 57.31 -90.21 56.19 -90.22 55.03 C-90.23 53.95 -90.23 52.86 -90.23 51.75 C-90.23 50.76 -90.24 49.78 -90.24 48.77 C-89.88 44.68 -88.91 41.91 -86 39 C-85.41 35.67 -85.04 32.33 -84.66 28.97 C-84 26 -84 26 -81 24 C-81 23.26 -81 22.51 -81 21.75 C-81 18.05 -79.98 16.11 -78 13 C-72.84 9 -72.84 9 -70 9 C-69.96 8.42 -69.92 7.85 -69.88 7.25 C-67.26 0.52 -55.4 -3.16 -49 -6 C-33.37 -11.59 -13.72 -8.7 0 0 Z " fill="#37C81C" transform="translate(743,578)"/>
<path d="M0 0 C8.99 7.49 15.26 15.96 19 27 C19.35 27.62 19.7 28.23 20.05 28.87 C21.61 32.38 21.35 36.04 21.46 39.83 C21.83 43.17 21.83 43.17 24.01 46.26 C26.74 50.7 26.59 54.96 26.5 60.06 C26.52 61.37 26.52 61.37 26.55 62.71 C26.51 68.44 25.47 71.29 22 76 C21.85 78.18 21.85 78.18 22.31 80.31 C22.74 90.47 14.88 101.27 8.5 108.62 C7.03 110.12 5.53 111.58 4 113 C3.3 113.65 2.61 114.31 1.89 114.98 C-10.93 125.95 -24.92 126.12 -41.07 125.25 C-54.39 124.1 -65.5 117.32 -74.57 107.73 C-83.08 97.45 -86.43 83.75 -88.69 70.94 C-88.82 70.19 -88.95 69.45 -89.09 68.68 C-90.62 59.29 -89.94 51.08 -87.88 41.81 C-87.65 40.8 -87.43 39.79 -87.19 38.75 C-84.4 26.72 -80.38 16.3 -72 7 C-71.26 6.13 -70.51 5.27 -69.75 4.38 C-50.17 -12.54 -21.47 -14.13 0 0 Z " fill="#37C81C" transform="translate(443,579)"/>
<path d="M0 0 C1.53 0.98 3.05 1.98 4.56 3 C5.89 3.87 5.89 3.87 7.25 4.75 C15.39 12.67 22.57 24.27 22.77 35.85 C22.79 37.78 22.8 39.7 22.81 41.62 C22.83 42.57 22.85 43.52 22.88 44.5 C22.95 57.72 18.33 68.34 9.12 77.81 C7.62 79.23 6.1 80.63 4.56 82 C4.01 82.51 3.46 83.01 2.89 83.53 C-7.11 91.66 -20.82 92.13 -33.11 91.27 C-42.82 90.14 -50.28 85.31 -57.44 79 C-58.71 78.01 -58.71 78.01 -60 77.01 C-69.86 69 -74.34 58.13 -75.69 45.68 C-76.38 32.12 -69.82 18.89 -61.25 8.75 C-51.93 -1 -42.24 -4.35 -29.44 -7 C-28.69 -7.2 -27.95 -7.4 -27.18 -7.61 C-18.42 -9.55 -7.32 -4.31 0 0 Z " fill="#EBE835" transform="translate(947.4375,378)"/>
<path d="M0 0 C1.97 1.14 1.97 1.14 4 3 C4.5 5.56 4.5 5.56 4.5 8.7 C4.51 9.89 4.52 11.08 4.53 12.32 C4.52 13.63 4.51 14.95 4.5 16.31 C4.51 17.72 4.51 19.13 4.52 20.54 C4.53 24.42 4.52 28.31 4.51 32.19 C4.5 36.37 4.51 40.56 4.52 44.74 C4.53 52.94 4.52 61.14 4.51 69.34 C4.49 78.89 4.5 88.43 4.5 97.98 C4.51 115.01 4.49 132.04 4.47 149.07 C4.44 165.6 4.44 182.14 4.45 198.67 C4.46 216.66 4.46 234.65 4.44 252.64 C4.44 254.56 4.44 256.48 4.44 258.4 C4.44 259.34 4.44 260.28 4.44 261.26 C4.43 267.91 4.44 274.57 4.44 281.23 C4.44 289.34 4.44 297.45 4.42 305.56 C4.41 309.7 4.4 313.84 4.41 317.98 C4.42 321.77 4.41 325.56 4.39 329.35 C4.39 331.37 4.4 333.39 4.41 335.42 C4.4 336.62 4.39 337.82 4.38 339.05 C4.38 340.61 4.38 340.61 4.38 342.19 C3.94 345.42 2.84 347.34 1 350 C0.34 349.67 -0.32 349.34 -1 349 C-1.02 304.83 -1.04 260.66 -1.05 216.48 C-1.05 211.28 -1.05 206.07 -1.05 200.86 C-1.06 199.82 -1.06 198.78 -1.06 197.71 C-1.06 180.9 -1.07 164.08 -1.08 147.27 C-1.09 130.03 -1.09 112.78 -1.09 95.54 C-1.1 84.9 -1.1 74.25 -1.11 63.6 C-1.11 56.31 -1.11 49.02 -1.11 41.73 C-1.11 37.51 -1.11 33.3 -1.12 29.09 C-1.12 25.24 -1.12 21.38 -1.12 17.53 C-1.12 16.13 -1.12 14.74 -1.12 13.34 C-1.13 11.45 -1.13 9.56 -1.12 7.67 C-1.12 6.61 -1.12 5.56 -1.12 4.47 C-1 2 -1 2 0 0 Z " fill="#A0E295" transform="translate(853,402)"/>
<path d="M0 0 C0.75 -0.01 1.51 -0.02 2.28 -0.03 C16.9 0.06 28.36 6.17 38.78 16.05 C47.37 25.13 52.37 36.43 55.88 48.25 C56.2 48.91 56.53 49.57 56.88 50.25 C57.1 52.29 57.29 54.33 57.44 56.38 C57.52 57.47 57.61 58.57 57.69 59.7 C57.75 60.54 57.81 61.38 57.88 62.25 C54.88 61.25 54.88 61.25 53.21 59.05 C51.73 55.95 51.51 53.85 51.44 50.44 C51.15 45.57 50.33 42.24 47.9 38.04 C46.88 36.25 46.88 36.25 45.56 32.81 C43.3 28.03 40.28 24.27 36.88 20.25 C36.39 19.63 35.9 19.01 35.39 18.37 C29.15 11.19 18.24 6.21 8.88 5.25 C-6.92 4.43 -21.97 5.07 -34.85 15.45 C-37.12 17.25 -37.12 17.25 -39.12 17.25 C-39.39 17.82 -39.65 18.39 -39.92 18.98 C-41.2 21.4 -42.71 23.39 -44.38 25.56 C-51.02 35.05 -54.2 45.41 -56.5 56.62 C-56.67 57.44 -56.84 58.26 -57.01 59.11 C-60.56 78.09 -56.06 99.78 -46.12 116.25 C-43.43 120.01 -40.57 123.17 -37.12 126.25 C-36.48 126.84 -35.83 127.43 -35.16 128.04 C-21.89 139.04 -3.38 138.43 12.88 137.25 C21.47 135.85 28.62 131.12 34.88 125.25 C35.55 124.62 36.23 123.98 36.92 123.33 C41.88 118.21 45.09 112.58 48.17 106.21 C49.01 104.53 49.94 102.88 50.88 101.25 C51.87 100.92 52.86 100.59 53.88 100.25 C51.21 114.39 41.99 126.53 30.31 134.75 C20.34 140.82 11.1 142.43 -0.38 142.44 C-1.37 142.45 -2.37 142.46 -3.4 142.47 C-19.21 142.51 -31.21 137.09 -42.43 126.04 C-49.15 119.08 -53.56 112.26 -57.12 103.25 C-57.57 102.16 -57.57 102.16 -58.03 101.04 C-65.61 80.71 -63.54 55.86 -55.12 36.25 C-51.62 28.86 -47.94 22.06 -42.12 16.25 C-41.46 16.25 -40.81 16.25 -40.12 16.25 C-40.12 15.59 -40.12 14.93 -40.12 14.25 C-39.49 14.15 -38.85 14.04 -38.19 13.94 C-37.51 13.71 -36.83 13.48 -36.12 13.25 C-35.8 12.26 -35.46 11.27 -35.12 10.25 C-32.66 8.75 -30.27 7.44 -27.69 6.19 C-26.95 5.83 -26.22 5.47 -25.46 5.11 C-16.87 1.04 -9.43 0.11 0 0 Z " fill="#A0E295" transform="translate(412.125,565.75)"/>
<path d="M0 0 C6.26 0.89 9.99 3.45 13.8 8.51 C14.22 9.08 14.63 9.66 15.06 10.25 C15.48 10.78 15.9 11.31 16.34 11.85 C25.16 23.94 24.59 39.6 24.53 53.82 C24.54 55.87 24.55 57.93 24.56 59.98 C24.58 65.52 24.58 71.06 24.57 76.6 C24.57 81.24 24.57 85.88 24.58 90.53 C24.6 101.48 24.59 112.44 24.58 123.4 C24.56 134.67 24.58 145.94 24.61 157.21 C24.63 166.92 24.64 176.63 24.63 186.34 C24.63 192.12 24.63 197.91 24.65 203.69 C24.67 209.13 24.66 214.57 24.64 220.01 C24.63 222 24.64 223.98 24.65 225.97 C24.73 240.17 24.18 255.74 14 266.75 C12.76 268.13 12.76 268.13 11.5 269.55 C4.92 276 4.92 276 1 276 C1.5 274.02 1.5 274.02 2 272 C2.62 271.92 3.24 271.84 3.88 271.75 C6.13 271.22 6.13 271.22 6.94 269.25 C7.29 268.51 7.64 267.76 8 267 C8.76 266.32 9.53 265.64 10.31 264.94 C21.22 253.02 19.15 236.17 19.15 221.15 C19.15 219.13 19.15 217.12 19.16 215.11 C19.16 209.67 19.17 204.23 19.17 198.78 C19.17 195.38 19.17 191.97 19.17 188.57 C19.18 176.68 19.19 164.78 19.19 152.89 C19.18 141.83 19.2 130.76 19.21 119.7 C19.22 110.18 19.23 100.66 19.23 91.14 C19.23 85.47 19.23 79.79 19.24 74.11 C19.25 68.77 19.25 63.43 19.24 58.09 C19.24 56.14 19.25 54.19 19.25 52.24 C19.3 35.68 19.23 20.35 7.49 7.39 C5.53 5.56 3.32 4.33 1 3 C0.67 2.01 0.34 1.02 0 0 Z " fill="#A0E295" transform="translate(944,500)"/>
<path d="M0 0 C0.33 0.99 0.66 1.98 1 3 C0.04 3.73 0.04 3.73 -0.94 4.48 C-10.28 12.13 -15.15 21.26 -18 33 C-18.27 35.96 -18.27 38.9 -18.26 41.87 C-18.26 42.74 -18.27 43.61 -18.27 44.5 C-18.28 47.4 -18.28 50.3 -18.27 53.2 C-18.28 55.29 -18.28 57.37 -18.29 59.46 C-18.3 65.11 -18.3 70.77 -18.3 76.42 C-18.3 81.15 -18.31 85.87 -18.31 90.6 C-18.32 101.74 -18.32 112.89 -18.32 124.04 C-18.31 135.53 -18.32 147.02 -18.34 158.51 C-18.36 168.39 -18.37 178.26 -18.36 188.13 C-18.36 194.03 -18.36 199.92 -18.38 205.82 C-18.39 211.36 -18.39 216.9 -18.38 222.45 C-18.37 224.48 -18.38 226.51 -18.38 228.54 C-18.4 231.32 -18.39 234.1 -18.37 236.88 C-18.38 237.68 -18.39 238.47 -18.4 239.3 C-18.29 250.42 -13.5 260.9 -6 269 C-5.34 269.33 -4.68 269.66 -4 270 C-4 270.66 -4 271.32 -4 272 C-3.38 272.08 -2.76 272.16 -2.12 272.25 C0 273 0 273 1.25 275.06 C1.5 275.7 1.75 276.34 2 277 C-0.38 276.75 -0.38 276.75 -3 276 C-3.67 274.67 -4.33 273.33 -5 272 C-5.83 271.84 -6.65 271.67 -7.5 271.5 C-8.33 271.34 -9.15 271.17 -10 271 C-11.12 269.12 -11.12 269.12 -12 267 C-12.46 266.54 -12.92 266.09 -13.4 265.62 C-24.35 254.56 -23.44 238.03 -23.42 223.71 C-23.43 221.67 -23.44 219.62 -23.45 217.57 C-23.47 212.04 -23.47 206.51 -23.47 200.97 C-23.47 196.34 -23.48 191.71 -23.49 187.08 C-23.5 176.14 -23.51 165.21 -23.5 154.27 C-23.49 143.02 -23.52 131.77 -23.55 120.52 C-23.59 110.83 -23.6 101.15 -23.59 91.46 C-23.59 85.69 -23.6 79.91 -23.62 74.14 C-23.64 68.71 -23.64 63.27 -23.62 57.84 C-23.62 55.86 -23.62 53.87 -23.64 51.89 C-23.75 34.78 -21.4 20.31 -9.44 7.19 C-3.23 1.61 -3.23 1.61 0 0 Z " fill="#A1E396" transform="translate(901,499)"/>
<path d="M0 0 C5.68 5.24 11.74 12.1 13 20 C12.34 20.33 11.68 20.66 11 21 C8.63 19.08 7.9 17.74 6.81 14.81 C3.4 6.59 -4.07 1.44 -12.05 -1.91 C-23.06 -5.38 -35.59 -4.67 -45.88 0.5 C-56.77 6.56 -62.21 15 -66.32 26.57 C-68.53 34.47 -67.94 42.97 -67.87 51.1 C-67.87 53.19 -67.88 55.28 -67.9 57.37 C-67.92 62.82 -67.91 68.28 -67.89 73.73 C-67.86 80.37 -67.89 87.01 -67.91 93.65 C-67.92 98.81 -67.93 103.97 -67.91 109.13 C-67.91 110.55 -67.91 110.55 -67.91 112.01 C-67.91 113.76 -67.9 115.52 -67.89 117.28 C-67.89 121.96 -68.14 126.39 -69 131 C-70 132 -70 132 -72.88 132.06 C-78.82 131.19 -83.44 126.62 -88 123 C-86.02 122.01 -86.02 122.01 -84 121 C-82.98 121.93 -82.98 121.93 -81.94 122.88 C-78.68 125.23 -75.87 125.99 -72 127 C-71.99 125.77 -71.99 124.53 -71.98 123.26 C-71.92 111.63 -71.85 99.99 -71.76 88.35 C-71.72 82.37 -71.68 76.39 -71.65 70.4 C-71.63 64.63 -71.59 58.85 -71.54 53.07 C-71.52 50.87 -71.51 48.67 -71.5 46.47 C-71.49 43.38 -71.46 40.29 -71.43 37.2 C-71.43 36.3 -71.44 35.4 -71.44 34.47 C-71.27 22.87 -66.64 13.39 -59 4.73 C-42.44 -11.22 -18.73 -13.26 0 0 Z " fill="#A1E396" transform="translate(840,378)"/>
<path d="M0 0 C8.79 3.14 15.62 19.99 19.43 28.02 C20.37 30.33 21.22 32.63 22 35 C22.39 36.15 22.39 36.15 22.79 37.32 C23.27 38.74 23.74 40.17 24.19 41.6 C24.86 43.59 25.63 45.55 26.42 47.5 C39.38 82.07 35.66 126.9 21.05 160.16 C17.69 167.49 13.98 174.52 9.3 181.1 C8 183.01 6.94 184.95 5.88 187 C4 190 4 190 1.75 190.94 C0.88 190.97 0.88 190.97 0 191 C0.6 187.76 1.66 185.91 3.75 183.38 C7.24 178.87 9.66 174.1 12.06 168.94 C12.5 168.02 12.93 167.09 13.37 166.14 C16.86 158.58 19.7 151.01 22 143 C22.19 142.36 22.38 141.72 22.57 141.05 C25.74 130.16 27.15 120.03 27.17 108.7 C27.17 107.74 27.17 106.78 27.18 105.8 C27.18 103.78 27.19 101.77 27.19 99.75 C27.19 96.71 27.21 93.66 27.22 90.61 C27.25 80.91 27.26 71.49 25 62 C24.8 61.11 24.59 60.22 24.39 59.31 C20.13 41.59 14.08 25.83 4.64 10.24 C3.96 9.11 3.96 9.11 3.26 7.95 C2.85 7.28 2.44 6.62 2.01 5.93 C0.98 3.96 0.44 2.17 0 0 Z " fill="#9FE294" transform="translate(523,542)"/>
<path d="M0 0 C2.82 1.84 3.37 2.85 5 6 C5.97 10.68 5.71 13.85 3.19 17.94 C-4.24 22.74 -14.39 22.84 -23 22 C-28.53 19.94 -28.53 19.94 -30 17 C-30.15 14.9 -30.22 12.79 -30.25 10.69 C-30.28 9.56 -30.3 8.43 -30.33 7.26 C-29.96 3.64 -29.24 1.85 -27 -1 C-19.76 -6 -7.55 -2.98 0 0 Z " fill="#37C81C" transform="translate(677,883)"/>
<path d="M0 0 C1 2 1 2 0.41 4.27 C-0.08 5.67 -0.08 5.67 -0.58 7.09 C-0.94 8.12 -1.29 9.16 -1.66 10.22 C-2.04 11.3 -2.42 12.38 -2.81 13.5 C-8.76 30.44 -10.24 46.08 -10.25 63.94 C-10.25 64.76 -10.25 65.59 -10.25 66.44 C-10.24 78.51 -9.96 90.23 -7 102 C-6.82 102.74 -6.64 103.47 -6.45 104.23 C-4.14 113.25 -1.11 121.63 3 130 C4.02 132.32 5.01 134.66 6 137 C5.01 137 4.02 137 3 137 C-0.17 132.94 -2.04 128.71 -4 124 C-4.66 123.01 -5.32 122.02 -6 121 C-6.22 119.02 -6.44 117.03 -6.56 115.04 C-6.86 112.9 -6.86 112.9 -8.44 111.27 C-10.69 107.99 -11 104.48 -11.56 100.62 C-11.79 99.14 -12.02 97.65 -12.25 96.16 C-12.35 95.51 -12.45 94.85 -12.55 94.18 C-12.96 91.88 -12.96 91.88 -14.03 89.34 C-15.3 84.96 -15.32 80.9 -15.34 76.35 C-15.34 75.42 -15.35 74.49 -15.36 73.53 C-15.37 71.56 -15.37 69.6 -15.37 67.63 C-15.37 64.67 -15.41 61.71 -15.45 58.75 C-15.52 47.13 -14.36 37.13 -11 26 C-10.61 24.23 -10.23 22.46 -9.88 20.69 C-9 17 -9 17 -7 14 C-6.44 11.47 -6.05 8.94 -5.66 6.38 C-4.92 3.71 -4.13 2.71 -2 1 C-1.34 0.67 -0.68 0.34 0 0 Z " fill="#A1E396" transform="translate(280,574)"/>
<path d="M0 0 C0.7 -0.02 1.41 -0.05 2.13 -0.07 C6.18 -0.06 7.87 0.4 11 3.04 C12.02 4.29 12.02 4.29 13.06 5.56 C13.39 5.89 13.72 6.22 14.06 6.56 C14.58 11.2 15 15.23 12.25 19.12 C8.15 21.82 4.3 21.75 -0.44 21.75 C-1.45 21.77 -1.45 21.77 -2.49 21.79 C-6.2 21.8 -7.77 21.68 -10.94 19.56 C-12.09 16.48 -12.16 13.34 -12.25 10.06 C-12.29 9.12 -12.32 8.19 -12.36 7.22 C-11.94 4.56 -11.94 4.56 -10.41 2.25 C-7.02 -0.07 -3.97 -0.06 0 0 Z " fill="#37C81C" transform="translate(658.9375,833.4375)"/>
<path d="M0 0 C2.87 2.29 4.91 4.1 6.81 7.25 C6.88 9.58 6.88 11.92 6.81 14.25 C2.58 14.27 -1.66 14.29 -5.9 14.3 C-7.34 14.31 -8.78 14.32 -10.22 14.33 C-12.29 14.34 -14.36 14.34 -16.43 14.35 C-17.68 14.35 -18.92 14.36 -20.21 14.36 C-23.19 14.25 -23.19 14.25 -25.19 13.25 C-24.87 8.86 -23.84 5.94 -20.84 2.64 C-14.32 -2.87 -7.61 -4.18 0 0 Z " fill="#37C81C" transform="translate(770.1875,858.75)"/>
<path d="M0 0 C4.02 3.31 4.75 6.09 5.75 11.12 C7.87 20.69 11.71 29.22 16 38 C16.33 38.67 16.65 39.35 16.99 40.04 C28.01 62.68 45.13 79.32 66 93 C67.49 93.99 67.49 93.99 69 95 C69 95.66 69 96.32 69 97 C63.65 96.57 60.24 94.47 56.06 91.31 C55.45 90.86 54.83 90.4 54.19 89.93 C47.95 85.29 42.37 80.65 37.39 74.64 C35.89 72.83 35.89 72.83 33.62 70.62 C32.76 69.76 31.89 68.89 31 68 C30.44 67.45 29.88 66.89 29.3 66.32 C15.76 52.15 5.07 31.81 1.57 12.5 C1.1 9.77 1.1 9.77 -1 7 C-0.62 3.31 -0.62 3.31 0 0 Z " fill="#A1E396" transform="translate(572,674)"/>
<path d="M0 0 C-0.19 1.81 -0.19 1.81 -1 4 C-2.63 5.06 -4.31 6.04 -6 7 C-34.85 24.35 -52.4 47.52 -66 78 C-66.47 79.05 -66.47 79.05 -66.95 80.12 C-68.56 83.75 -69.52 87.05 -70 91 C-70.99 90.67 -71.98 90.34 -73 90 C-72.59 83.77 -71.42 78.54 -68.94 72.81 C-68.63 72.08 -68.31 71.35 -67.99 70.59 C-61.53 55.77 -52.68 41.29 -41 30 C-39.98 28.94 -38.96 27.87 -37.94 26.8 C-28.68 17.18 -19.11 8.85 -7 3 C-5.64 2.16 -5.64 2.16 -4.25 1.31 C-2 0 -2 0 0 0 Z " fill="#A4E399" transform="translate(648,499)"/>
<path d="M0 0 C1.71 1.62 3.37 3.29 5 5 C5 5.66 5 6.32 5 7 C5.57 7.26 6.15 7.52 6.74 7.79 C9.15 9.08 11.03 10.57 13.12 12.31 C23.96 20.86 34.44 23.35 48 23.25 C49.04 23.26 50.08 23.27 51.16 23.27 C59.72 23.25 66.44 22.09 74.12 18.06 C75.1 17.56 76.07 17.05 77.07 16.54 C78.04 16.03 79 15.52 80 15 C82 14 84 13 86 12 C86.78 11.61 87.57 11.22 88.38 10.81 C88.91 10.54 89.45 10.28 90 10 C81.63 21.08 70.15 26.42 56.59 28.53 C41.16 30.06 26.13 27.79 13.69 18.12 C8.66 13.84 3.68 9.52 0 4 C0 2.68 0 1.36 0 0 Z " fill="#A1E396" transform="translate(664,680)"/>
<path d="M0 0 C1.92 1.73 1.92 1.73 3.25 3.25 C3.25 3.91 3.25 4.57 3.25 5.25 C-0.29 3.94 -3.32 2.35 -6.5 0.31 C-19.7 -7.75 -35.73 -8.68 -50.69 -5.62 C-57.74 -3.75 -64.16 -0.52 -69.93 3.94 C-71.75 5.25 -71.75 5.25 -73.75 5.25 C-73.81 5.87 -73.87 6.49 -73.94 7.12 C-74.75 9.25 -74.75 9.25 -77.31 10.5 C-78.12 10.75 -78.92 11 -79.75 11.25 C-79.75 8.25 -79.75 8.25 -77.69 5.94 C-76.72 5.05 -75.75 4.16 -74.75 3.25 C-74.06 2.55 -74.06 2.55 -73.35 1.84 C-54 -16.58 -20.18 -17.07 0 0 Z " fill="#9EE293" transform="translate(747.75,577.75)"/>
<path d="M0 0 C2.64 2.43 4.73 4.44 6.29 7.7 C8.41 11.8 11.07 15.14 14 18.69 C14.58 19.39 15.16 20.1 15.77 20.83 C28.2 35.74 42.76 47.94 60 57 C60 57.66 60 58.32 60 59 C55.75 59.35 53.66 58.52 50.16 56.14 C49.25 55.53 48.34 54.91 47.4 54.28 C46.44 53.61 45.48 52.94 44.5 52.25 C43.52 51.57 42.53 50.89 41.52 50.19 C24.08 37.91 7.57 21.92 -1 2 C-0.67 1.34 -0.34 0.68 0 0 Z " fill="#A1E396" transform="translate(285,712)"/>
<path d="M0 0 C0 0.99 0 1.98 0 3 C-0.97 3.55 -1.95 4.11 -2.95 4.68 C-14.64 11.36 -25.85 18.09 -36 27 C-36.63 27.5 -37.26 27.99 -37.9 28.5 C-46.25 35.15 -52.35 44.28 -58.37 52.98 C-58.91 53.65 -59.45 54.31 -60 55 C-60.66 55 -61.32 55 -62 55 C-61.51 50.31 -59.37 47.38 -56.5 43.81 C-56.05 43.24 -55.6 42.67 -55.14 42.09 C-44.97 29.34 -34.08 18.37 -20 10 C-18.64 9.13 -17.29 8.25 -15.94 7.38 C-4.1 0 -4.1 0 0 0 Z " fill="#A7E49D" transform="translate(352,499)"/>
<path d="M0 0 C4.83 3.79 5.97 7.36 7.32 13.28 C7.92 15.98 7.92 15.98 9.01 18.35 C10.04 21.1 10.32 23.25 10.45 26.18 C10.49 27.16 10.54 28.15 10.58 29.16 C10.62 30.2 10.65 31.24 10.69 32.31 C10.73 33.38 10.76 34.45 10.8 35.55 C11.55 60.24 11.55 60.24 7 66 C6.01 66 5.02 66 4 66 C4.56 60.26 5.39 54.71 6.6 49.07 C7.72 40.53 6.68 32.37 5.25 23.94 C5.09 22.91 4.94 21.89 4.77 20.83 C3.81 15.01 2.44 10.08 -0.3 4.84 C-1 3 -1 3 0 0 Z " fill="#A1E396" transform="translate(761,598)"/>
<path d="M0 0 C0.66 0.33 1.32 0.66 2 1 C2.33 16.84 2.66 32.68 3 49 C0 49 0 49 -1.66 47.56 C-3.65 43.76 -3.43 40.26 -3.4 36.04 C-3.4 35.16 -3.4 34.29 -3.41 33.4 C-3.41 31.56 -3.4 29.72 -3.39 27.88 C-3.38 25.08 -3.39 22.27 -3.41 19.46 C-3.41 17.67 -3.4 15.89 -3.4 14.1 C-3.4 13.26 -3.41 12.42 -3.42 11.56 C-3.36 6.86 -2.96 3.88 0 0 Z " fill="#A1E396" transform="translate(569,613)"/>
<path d="M0 0 C2.39 1.09 4.64 2.23 6.94 3.5 C7.61 3.87 8.29 4.24 8.98 4.62 C22.44 12.04 37.3 20.95 46 34 C46 34.99 46 35.98 46 37 C44 37 44 37 41.88 35 C40.35 33.43 38.86 31.85 37.39 30.24 C31.3 23.81 24.27 18.98 17 14 C16.14 13.4 15.27 12.79 14.38 12.17 C10.87 9.76 7.41 7.65 3.56 5.81 C0 4 0 4 -2 1 C-1.34 0.67 -0.68 0.34 0 0 Z " fill="#A1E396" transform="translate(472,499)"/>
<path d="M0 0 C3.17 1.84 4.69 4.26 6.76 7.25 C8.82 9.96 11.2 11.92 13.83 14.05 C15.67 15.63 17.05 17.35 18.38 19.38 C17.38 19.71 16.39 20.03 15.38 20.38 C12.82 18.68 12.82 18.68 9.94 16.25 C8.52 15.07 8.52 15.07 7.07 13.87 C4.53 11.52 2.45 9.13 0.38 6.38 C-5.27 7 -8.18 10.12 -12.32 13.76 C-13.46 14.56 -13.46 14.56 -14.62 15.38 C-15.62 15.04 -16.61 14.72 -17.62 14.38 C-17.29 13.38 -16.97 12.39 -16.62 11.38 C-15.99 11.23 -15.35 11.09 -14.69 10.94 C-13.67 10.66 -13.67 10.66 -12.62 10.38 C-12.33 9.77 -12.04 9.17 -11.73 8.55 C-9.5 4.17 -4.86 0.69 0 0 Z " fill="#9FE294" transform="translate(773.625,755.625)"/>
<path d="M0 0 C-0.56 3.62 -1.75 4.98 -4.56 7.25 C-7.46 9.65 -10.07 12.11 -12.62 14.88 C-17.97 20.33 -24.51 24.07 -31 28 C-31.9 28.58 -32.81 29.16 -33.74 29.76 C-36 31 -36 31 -39 31 C-38.8 29.16 -38.8 29.16 -38 27 C-35.95 25.65 -35.95 25.65 -33.25 24.38 C-22.27 18.73 -12.22 10.38 -3.62 1.56 C-2 0 -2 0 0 0 Z " fill="#97E08B" transform="translate(518,740)"/>
<path d="M0 0 C-0.33 0.66 -0.66 1.32 -1 2 C-11.23 2 -21.46 2 -32 2 C-31.67 1.01 -31.34 0.02 -31 -1 C-20.45 -4.29 -10.32 -3.84 0 0 Z " fill="#A1E397" transform="translate(720,489)"/>
<path d="M0 0 C-0.33 0.66 -0.66 1.32 -1 2 C-10.9 2 -20.8 2 -31 2 C-30.67 1.01 -30.34 0.02 -30 -1 C-20.03 -5.08 -9.96 -2.55 0 0 Z " fill="#A1E397" transform="translate(428,489)"/>
<path d="M0 0 C1.25 0.02 2.49 0.04 3.77 0.05 C5.18 0.09 5.18 0.09 6.62 0.12 C6.62 1.12 6.62 2.11 6.62 3.12 C5.81 3.17 4.99 3.22 4.14 3.27 C3.06 3.35 1.99 3.42 0.88 3.5 C-0.73 3.6 -0.73 3.6 -2.36 3.71 C-5.21 4.1 -6.87 4.81 -9.38 6.12 C-12.12 5.75 -12.12 5.75 -14.38 5.12 C-14.05 4.13 -13.71 3.14 -13.38 2.12 C-8.87 0.08 -4.89 -0.09 0 0 Z " fill="#A2E397" transform="translate(386.375,488.875)"/>
<path d="M0 0 C14.78 -0.74 14.78 -0.74 21 4 C20.67 4.66 20.34 5.32 20 6 C13.25 5.12 13.25 5.12 11 4 C9.13 3.77 7.25 3.59 5.38 3.44 C4.37 3.35 3.37 3.27 2.34 3.18 C1.57 3.12 0.79 3.06 0 3 C0 2.01 0 1.02 0 0 Z " fill="#A1E396" transform="translate(430,489)"/>
<path d="M0 0 C-5.03 4.11 -7.1 5.13 -13.62 5.06 C-14.81 5.05 -16 5.04 -17.23 5.04 C-18.14 5.02 -19.06 5.01 -20 5 C-20 4.34 -20 3.68 -20 3 C-6.58 -1.74 -6.58 -1.74 0 0 Z " fill="#9DE292" transform="translate(449,781)"/>
<path d="M0 0 C0 0.99 0 1.98 0 3 C-0.56 3.04 -1.11 3.07 -1.69 3.11 C-5.88 3.47 -9.52 4.05 -13.44 5.62 C-14.61 6.08 -15.79 6.53 -17 7 C-17.66 6.67 -18.32 6.34 -19 6 C-18.04 3.11 -17.31 2.16 -14.56 0.75 C-9.68 -0.28 -4.97 -0.16 0 0 Z " fill="#A2E397" transform="translate(684,489)"/>
<path d="M0 0 C2.06 0.28 4.13 0.58 6.19 0.88 C7.34 1.04 8.48 1.2 9.67 1.37 C12.69 1.94 15.21 2.75 18 4 C18 4.66 18 5.32 18 6 C5.1 6.69 5.1 6.69 1.19 4 C0.47 3.34 -0.26 2.68 -1 2 C-0.67 1.34 -0.34 0.68 0 0 Z " fill="#A1E396" transform="translate(375,780)"/>
<path d="M0 0 C-4.79 4.95 -4.79 4.95 -8.6 5.1 C-10.1 5.08 -10.1 5.08 -11.62 5.06 C-12.63 5.05 -13.63 5.04 -14.66 5.04 C-15.43 5.02 -16.21 5.01 -17 5 C-17 4.34 -17 3.68 -17 3 C-4.25 -1.42 -4.25 -1.42 0 0 Z " fill="#9BE18F" transform="translate(736,781)"/>
<path d="M0 0 C0.66 0.33 1.32 0.66 2 1 C2.05 2.6 2.09 4.21 2.12 5.81 C2.15 6.71 2.17 7.6 2.2 8.52 C2 11 2 11 0 14 C-0.99 14 -1.98 14 -3 14 C-3.32 8.5 -3.53 4.56 0 0 Z " fill="#A2E397" transform="translate(467,650)"/>
<path d="M0 0 C6.66 -0.54 10.46 0.23 16 4 C15.67 4.66 15.34 5.32 15 6 C8.12 5.12 8.12 5.12 7 4 C4.67 3.63 2.34 3.3 0 3 C0 2.01 0 1.02 0 0 Z " fill="#A1E396" transform="translate(722,489)"/>
<path d="M0 0 C1.99 0.39 3.97 0.87 5.94 1.38 C7.56 1.79 7.56 1.79 9.21 2.21 C12 3 12 3 14 4 C14 4.66 14 5.32 14 6 C5.22 6.77 5.22 6.77 2.22 4.89 C0.88 3.5 0.88 3.5 -1 1 C-0.67 0.67 -0.34 0.34 0 0 Z " fill="#A1E396" transform="translate(667,780)"/>
<path d="M0 0 C0.99 0 1.98 0 3 0 C3.35 5.37 3.35 5.37 3 8 C1 10 1 10 -1 11 C-2 10 -2 10 -2.19 7.19 C-2.01 4.13 -1.58 2.56 0 0 Z " fill="#9BE190" transform="translate(655,609)"/>
<path d="M0 0 C2 1.56 2 1.56 4 4 C4.25 7.75 4.25 7.75 4 11 C3.01 11.5 3.01 11.5 2 12 C-0.69 8.18 -1.42 5.66 -1 1 C-0.67 0.67 -0.34 0.34 0 0 Z " fill="#A1E396" transform="translate(654,655)"/>
<path d="M0 0 C-0.33 1.32 -0.66 2.64 -1 4 C-1.66 4 -2.32 4 -3 4 C-3.25 4.58 -3.5 5.15 -3.75 5.75 C-5.19 8.35 -6.74 10.08 -9 12 C-9.99 12 -10.98 12 -12 12 C-10.44 8.17 -7.97 5.83 -5 3 C-4.44 2.4 -3.89 1.8 -3.31 1.19 C-2 0 -2 0 0 0 Z " fill="#85DC76" transform="translate(848,764)"/>
<path d="M0 0 C0.66 0.66 1.32 1.32 2 2 C-2.31 5.94 -2.31 5.94 -5.81 6.25 C-6.9 6.13 -6.9 6.13 -8 6 C-8 5.01 -8 4.02 -8 3 C-5.36 2.01 -2.72 1.02 0 0 Z " fill="#97E08A" transform="translate(463,775)"/>
<path d="M0 0 C0.33 0.66 0.66 1.32 1 2 C-0.02 5.05 -1.21 7.31 -3 10 C-3.99 10 -4.98 10 -6 10 C-4.52 3.48 -4.52 3.48 -1.88 1.06 C-1.26 0.71 -0.64 0.36 0 0 Z " fill="#A6E49C" transform="translate(766,667)"/>
<path d="M0 0 C0.66 0.33 1.32 0.66 2 1 C1.67 3.31 1.34 5.62 1 8 C-0.32 8.33 -1.64 8.66 -3 9 C-2.25 2.25 -2.25 2.25 0 0 Z " fill="#A3E399" transform="translate(574,591)"/>
<path d="M0 0 C0 0.99 0 1.98 0 3 C-3.01 6.01 -5.85 6.53 -10 7 C-8.46 3.92 -7.55 2.28 -4.44 0.69 C-2 0 -2 0 0 0 Z " fill="#A6E49C" transform="translate(364,494)"/>
<path d="M0 0 C6.52 0.62 6.52 0.62 8.94 2.56 C9.29 3.04 9.64 3.51 10 4 C9 5 9 5 6.12 5.25 C3 5 3 5 1.12 3.62 C0 2 0 2 0 0 Z " fill="#A1E396" transform="translate(906,776)"/>
<path d="M0 0 C4.32 0.35 6.19 1.78 9 5 C6.81 5.81 6.81 5.81 4 6 C1.19 3.56 1.19 3.56 -1 1 C-0.67 0.67 -0.34 0.34 0 0 Z " fill="#A1E396" transform="translate(458,494)"/>
<path d="M0 0 C2.75 -0.25 2.75 -0.25 6 0 C8.38 2 8.38 2 10 4 C9 5 9 5 6.69 5.25 C3.53 4.96 2.26 4.18 0 2 C0 1.34 0 0.68 0 0 Z " fill="#A1E396" transform="translate(358,776)"/>
<path d="M0 0 C0.6 0.21 1.2 0.41 1.81 0.62 C1.48 1.95 1.15 3.26 0.81 4.62 C-1.17 4.62 -3.15 4.62 -5.19 4.62 C-5.19 3.63 -5.19 2.64 -5.19 1.62 C-2.19 -0.38 -2.19 -0.38 0 0 Z " fill="#A1E396" transform="translate(938.1875,776.375)"/>
<path d="M0 0 C3.44 1.31 3.44 1.31 7 3 C7.33 3.99 7.66 4.98 8 6 C2.46 5.51 2.46 5.51 0.12 2.94 C-0.43 1.98 -0.43 1.98 -1 1 C-0.67 0.67 -0.34 0.34 0 0 Z " fill="#A1E396" transform="translate(346,770)"/>
<path d="M0 0 C2.99 1.23 4.27 3.29 6.12 5.88 C5.13 6.37 5.13 6.37 4.12 6.88 C-2.58 3.46 -2.58 3.46 -3.88 0.88 C-1.88 -0.12 -1.88 -0.12 0 0 Z " fill="#A4E399" transform="translate(745.875,494.125)"/>
<path d="M0 0 C2.25 -0.25 2.25 -0.25 5 0 C7.31 2 7.31 2 9 4 C8 5 8 5 5.62 5.25 C3 5 3 5 1.19 3.62 C0 2 0 2 0 0 Z " fill="#A1E396" transform="translate(652,776)"/>
<path d="M0 0 C0.99 0.33 1.98 0.66 3 1 C1.68 3.31 0.36 5.62 -1 8 C-1.99 8 -2.98 8 -4 8 C-2.25 2.25 -2.25 2.25 0 0 Z " fill="#AEE6A5" transform="translate(283,564)"/>
<path d="M0 0 C1.32 0.66 2.64 1.32 4 2 C4 2.66 4 3.32 4 4 C5.32 4.66 6.64 5.32 8 6 C7.01 6.33 6.02 6.66 5 7 C3.18 6 3.18 6 1.31 4.56 C0.69 4.09 0.07 3.62 -0.57 3.13 C-1.04 2.76 -1.52 2.38 -2 2 C-1.34 1.34 -0.68 0.68 0 0 Z " fill="#A4E399" transform="translate(936,494)"/>
<path d="M0 0 C4.52 -0.37 4.52 -0.37 6.81 1.38 C8 3 8 3 8 5 C3.48 5.37 3.48 5.37 1.19 3.62 C0 2 0 2 0 0 Z " fill="#A1E396" transform="translate(794,776)"/>
<path d="M0 0 C0.66 0.33 1.32 0.66 2 1 C1.75 3.38 1.75 3.38 1 6 C-1.06 7.31 -1.06 7.31 -3 8 C-3.33 7.34 -3.66 6.68 -4 6 C-2.68 4.02 -1.36 2.04 0 0 Z " fill="#98E08C" transform="translate(851,755)"/>
</svg>
