<svg width="80" height="24" viewBox="0 0 80 24" fill="none" xmlns="http://www.w3.org/2000/svg">
<path d="M23.0829 14.3245C24.2143 14.3245 25.174 13.8901 25.7296 13.2739L29.043 15.1731C27.6894 17.0419 25.6488 18.0117 23.0324 18.0117C18.3148 18.0117 15.3953 14.8498 15.3953 10.7383C15.3953 6.62686 18.3754 3.46497 22.7293 3.46497C26.7499 3.46497 29.7299 6.58646 29.7299 10.7383C29.7299 11.3142 29.6693 11.8698 29.5683 12.3951H19.7695C20.2948 13.8295 21.5575 14.3245 23.0829 14.3245ZM25.6084 9.31397C25.174 7.71787 23.9213 7.13196 22.6889 7.13196C21.1231 7.13196 20.0725 7.8997 19.6886 9.31397H25.6084Z" fill="white"/>
<path d="M34.6798 7.81888V12.6981C34.6798 13.8901 35.7001 13.9911 37.5185 13.8901V17.6379C32.114 18.1935 30.5482 16.5671 30.5482 12.7082V1.10111L34.6798 0V3.85893H37.5185V7.81888H34.6798Z" fill="white"/>
<path d="M8.24316 3.46496C6.39451 3.46496 5.05096 4.10138 4.13168 5.15198V0L0 1.10111V17.6379H4.13168V16.3449C5.04085 17.3955 6.39451 18.0319 8.24316 18.0319C11.8596 18.0319 14.8296 14.87 14.8296 10.7585C14.8397 6.63696 11.8596 3.46496 8.24316 3.46496ZM7.42491 14.1023C5.52575 14.1023 4.14178 12.8092 4.14178 10.7383C4.14178 8.66744 5.51564 7.3744 7.42491 7.3744C9.33417 7.3744 10.708 8.66744 10.708 10.7383C10.708 12.8092 9.32407 14.1023 7.42491 14.1023Z" fill="white"/>
<path d="M52.6108 3.84884V16.9409C52.6108 21.5676 48.9943 23.5274 45.3374 23.5274C42.4785 23.5274 40.0743 22.4566 38.8015 20.1937L42.327 18.1531C42.8523 19.1128 43.6504 19.8907 45.4687 19.8907C47.3982 19.8907 48.5902 18.9007 48.5902 16.9409V15.6782C47.681 16.8096 46.3577 17.4662 44.5696 17.4662C40.6501 17.4662 37.7913 14.274 37.7913 10.4656C37.7913 6.65717 40.6501 3.46497 44.5696 3.46497C46.3577 3.46497 47.6911 4.13169 48.5902 5.253V3.84884H52.6108ZM48.5902 10.4656C48.5902 8.56643 47.2163 7.27339 45.2566 7.27339C43.2968 7.27339 41.9229 8.56643 41.9229 10.4656C41.9229 12.3648 43.2968 13.6578 45.2566 13.6578C47.2163 13.6578 48.5902 12.3749 48.5902 10.4656Z" fill="#FF1C55"/>
<path d="M76.2897 17.8804C76.2897 21.406 73.7541 23.6991 69.2082 23.6991C64.6623 23.6991 62.1268 21.406 62.1268 17.8804C62.1268 15.9812 63.0157 14.2942 64.632 13.2537C63.5006 12.3647 62.7834 11.102 62.7834 9.36447C62.7834 5.61666 65.6422 3.63669 69.1981 3.63669C72.754 3.63669 75.6128 5.62676 75.6128 9.36447C75.6128 11.102 74.8956 12.3647 73.7642 13.2537C75.4108 14.3043 76.2897 15.9711 76.2897 17.8804ZM71.8852 17.244C71.8852 15.7792 70.7538 14.9306 69.2183 14.9306C67.6828 14.9306 66.5514 15.7893 66.5514 17.244C66.5514 18.6986 67.6828 19.5573 69.2183 19.5573C70.7538 19.5573 71.8852 18.6986 71.8852 17.244ZM67.1979 9.64733C67.1979 10.7181 67.9657 11.5162 69.2183 11.5162C70.471 11.5162 71.2387 10.7181 71.2387 9.64733C71.2387 8.57652 70.471 7.77847 69.2183 7.77847C67.9657 7.75827 67.1979 8.56642 67.1979 9.64733Z" fill="#FF1C55"/>
<path d="M63.8642 4.45493C62.8945 5.43482 62.258 6.71776 62.0358 8.21284H61.2681C59.672 8.21284 57.8536 9.0412 57.8536 11.405V17.6278H53.7219V3.85892H57.8536V6.31368C58.4092 4.46503 60.2478 3.58617 61.9853 3.58617H63.5107C63.9754 3.57607 64.1875 4.12157 63.8642 4.45493Z" fill="#FF1C55"/>
<path d="M77.0776 4.07106H76.5018V5.72778H76.1785V4.07106H75.6027V3.76801H77.0776V4.07106ZM79.3 3.76801V5.72778H78.9768V4.32361L78.3403 5.3439H78.2999L77.6635 4.32361V5.72778H77.3402V3.76801H77.6635L78.3201 4.8186L78.9768 3.76801H79.3Z" fill="white"/>
</svg>
