<?xml version="1.0" encoding="UTF-8"?>
<!-- Generator: visioncortex VTracer 0.6.3 -->
<svg version="1.1" xmlns="http://www.w3.org/2000/svg" width="1280" height="1280">
<path d="M0 0 C422.4 0 844.8 0 1280 0 C1280 422.4 1280 844.8 1280 1280 C857.6 1280 435.2 1280 0 1280 C0 857.6 0 435.2 0 0 Z " fill="#1F242E" transform="translate(0,0)"/>
<path d="M0 0 C23.06 -0.62 42.16 4.57 59.48 20.55 C60 21.05 60.52 21.55 61.06 22.06 C61.07 21.08 61.09 20.11 61.1 19.1 C61.15 17.83 61.2 16.56 61.25 15.25 C61.28 13.98 61.32 12.72 61.35 11.41 C62.06 8.06 62.06 8.06 63.9 6.37 C68.66 4.39 73.17 4.69 78.27 4.76 C79.35 4.77 80.43 4.77 81.54 4.78 C84.98 4.79 88.43 4.83 91.87 4.87 C94.21 4.89 96.55 4.9 98.89 4.91 C104.61 4.94 110.33 4.99 116.06 5.06 C117.55 8.03 117.2 11.07 117.19 14.33 C117.2 15.09 117.2 15.85 117.2 16.63 C117.21 19.19 117.21 21.75 117.2 24.3 C117.21 26.13 117.21 27.96 117.21 29.79 C117.22 34.77 117.23 39.75 117.23 44.73 C117.23 47.84 117.23 50.96 117.23 54.07 C117.24 64.95 117.25 75.83 117.24 86.71 C117.24 96.82 117.25 106.94 117.27 117.06 C117.28 125.76 117.29 134.45 117.29 143.15 C117.29 148.34 117.29 153.53 117.3 158.72 C117.31 163.61 117.31 168.5 117.3 173.39 C117.3 175.18 117.3 176.96 117.31 178.75 C117.4 206.57 111.99 229.34 92.43 250.12 C72.54 269.56 45.51 275.82 18.56 276.18 C-10.6 275.79 -38.08 269 -59.75 248.35 C-64.82 243.03 -69.3 237.96 -71.94 231.06 C-64.77 225.8 -57.36 221.32 -49.57 217.06 C-47.45 215.89 -45.34 214.73 -43.23 213.56 C-41.69 212.7 -41.69 212.7 -40.11 211.83 C-35.02 208.98 -29.98 206.02 -24.94 203.06 C-20.36 207.5 -20.36 207.5 -18.69 209.7 C-12.23 218.2 -2.21 222.85 8.06 225.06 C11.74 225.44 15.36 225.48 19.06 225.43 C20.44 225.45 20.44 225.45 21.85 225.47 C32.63 225.42 43.56 222.33 51.75 215.06 C62.9 203.09 61.23 186.21 61.06 171.06 C60.63 171.42 60.21 171.78 59.77 172.16 C58.53 173.23 57.28 174.29 56.03 175.35 C54.82 176.39 53.64 177.47 52.49 178.58 C40.46 189.98 23.23 192.64 7.31 192.5 C6.08 192.49 4.86 192.48 3.6 192.47 C-22.16 191.98 -44.34 181.24 -62.32 162.82 C-64.77 160.15 -66.92 157.33 -69 154.37 C-69.64 153.46 -69.64 153.46 -70.3 152.53 C-77.47 142.11 -81.63 131.17 -84.94 119.06 C-85.19 118.17 -85.44 117.28 -85.69 116.37 C-91.48 91.16 -84.42 64.11 -71.19 42.47 C-57.4 21 -35.61 6.74 -10.94 1.06 C-7.26 0.27 -3.75 0.11 0 0 Z " fill="#F82155" transform="translate(695.94091796875,521.9423828125)"/>
<path d="M0 0 C0.94 0.46 1.87 0.92 2.84 1.4 C18.29 9.83 28.43 25.07 34.03 41.36 C39.8 62.99 39.15 85.23 28.08 104.95 C25.22 109.15 21.82 112.5 18.04 115.88 C15.98 118.02 15.35 119.11 15 122 C15.69 122.51 16.38 123.02 17.09 123.55 C31.96 135.05 43.21 152.16 46 171 C46.3 175.77 46.32 180.53 46.31 185.31 C46.33 186.55 46.34 187.8 46.36 189.08 C46.37 209.82 38.38 226.62 24.44 241.68 C4.72 260.4 -23.04 264.21 -48.94 264.12 C-50.7 264.13 -50.7 264.13 -52.49 264.14 C-81.37 264.1 -108.09 257.12 -129.62 236.94 C-133.52 232.75 -136.24 227.98 -139 223 C-139.7 221.93 -140.4 220.86 -141.12 219.75 C-149.44 205.17 -150.73 183.05 -146.51 166.99 C-141.29 149.7 -131.77 132.62 -116 123 C-116.45 118.25 -118.21 116.46 -121.69 113.31 C-133.09 102.28 -138.69 87.69 -139.17 71.89 C-139.36 54.44 -136.21 37.54 -126 23 C-125.18 21.83 -125.18 21.83 -124.34 20.64 C-111 2.6 -89.56 -6.87 -68 -11 C-44.36 -14.49 -21.23 -10.59 0 0 Z " fill="#F82155" transform="translate(1092,536)"/>
<path d="M0 0 C0.33 21.78 0.66 43.56 1 66 C3.97 66 5.03 64.37 7.25 62.44 C15.97 55.33 26.08 50.66 37 48 C37.6 47.83 38.19 47.67 38.8 47.5 C60.22 42.65 83.03 47.02 101.62 58.25 C125.45 74.1 138.9 97.83 145.76 125 C151.03 152.32 146.46 182.63 131 206 C121 220.13 107.93 232.96 92 240 C91.3 240.36 90.61 240.72 89.89 241.09 C70.91 250.05 45.94 248.56 26.62 241.82 C17.64 238.33 10.07 233.55 3 227 C2.67 226.01 2.34 225.02 2 224 C1.34 224 0.68 224 0 224 C0 229.61 0 235.22 0 241 C-7.81 241.02 -15.63 241.04 -23.44 241.05 C-26.1 241.06 -28.77 241.07 -31.43 241.08 C-35.24 241.09 -39.06 241.09 -42.87 241.1 C-44.67 241.11 -44.67 241.11 -46.5 241.11 C-48.15 241.11 -48.15 241.11 -49.84 241.11 C-51.3 241.12 -51.3 241.12 -52.79 241.12 C-55 241 -55 241 -56 240 C-56.1 237.09 -56.13 234.21 -56.12 231.3 C-56.12 230.38 -56.12 229.45 -56.12 228.5 C-56.12 225.38 -56.12 222.26 -56.11 219.14 C-56.11 216.91 -56.11 214.69 -56.11 212.46 C-56.11 206.39 -56.11 200.33 -56.1 194.26 C-56.1 187.93 -56.09 181.6 -56.09 175.27 C-56.09 164.63 -56.08 154 -56.08 143.37 C-56.07 132.41 -56.06 121.46 -56.05 110.5 C-56.05 109.83 -56.05 109.15 -56.05 108.46 C-56.05 105.07 -56.05 101.69 -56.05 98.3 C-56.04 70.2 -56.02 42.1 -56 14 C-54.72 13.52 -53.44 13.03 -52.16 12.55 C-51.44 12.28 -50.73 12.01 -50 11.73 C-47.79 10.92 -45.58 10.26 -43.3 9.67 C-42.06 9.34 -42.06 9.34 -40.79 9.01 C-39.93 8.79 -39.06 8.56 -38.17 8.34 C-37.26 8.1 -36.35 7.86 -35.41 7.62 C-32.52 6.87 -29.64 6.12 -26.75 5.38 C-24.8 4.87 -22.84 4.36 -20.89 3.85 C-10.91 1.26 -10.91 1.26 -6 0 C-5.29 -0.21 -4.59 -0.42 -3.86 -0.63 C-2 -1 -2 -1 0 0 Z " fill="#F7FBFC" transform="translate(146,476)"/>
<path d="M0 0 C20.45 20.87 29.46 47.81 29.51 76.63 C29.4 83.82 28.34 90.01 27.13 97.25 C-17.09 97.25 -61.31 97.25 -106.87 97.25 C-100.15 110.68 -92.87 116.52 -78.94 121.44 C-73.58 122.86 -68.32 122.79 -62.8 122.69 C-61.14 122.7 -61.14 122.7 -59.45 122.71 C-48.79 122.63 -39.76 120.22 -30.87 114.25 C-29.75 113.11 -29.75 113.11 -28.62 111.94 C-26.87 110.25 -26.87 110.25 -24.75 109.85 C-20.49 110.45 -17.58 112.64 -14.05 115 C-9.43 118.05 -4.85 120.84 0.14 123.26 C3.54 124.96 6.76 126.92 10.01 128.88 C10.67 129.27 11.33 129.67 12.02 130.07 C14.63 131.65 16.97 133.09 19.13 135.25 C18.57 141.65 11.95 146.63 7.47 150.63 C-13.33 167.95 -35.5 174.71 -62.49 174.63 C-63.19 174.63 -63.89 174.63 -64.61 174.63 C-92.15 174.51 -118.97 166 -138.87 146.25 C-139.75 145.41 -140.64 144.56 -141.55 143.69 C-142.7 142.48 -142.7 142.48 -143.87 141.25 C-144.68 140.4 -144.68 140.4 -145.51 139.53 C-155.09 129.07 -160.81 116.61 -164.62 103.07 C-164.83 102.32 -165.04 101.57 -165.26 100.8 C-167.6 92.1 -168.03 83.79 -167.99 74.82 C-168 73.34 -168 73.34 -168 71.83 C-167.97 44.72 -156.94 20.58 -138.16 1.33 C-135.31 -1.46 -132.23 -3.59 -128.87 -5.75 C-128.1 -6.52 -128.1 -6.52 -127.32 -7.31 C-123.92 -10.68 -119.07 -12.54 -114.87 -14.75 C-114.19 -15.12 -113.52 -15.5 -112.82 -15.88 C-77.37 -35.01 -28.64 -27.43 0 0 Z " fill="#F7FBFC" transform="translate(468.8671875,547.74609375)"/>
<path d="M0 0 C1.63 1.63 1.17 3.46 1.21 5.7 C1.24 7.2 1.24 7.2 1.27 8.74 C1.28 9.83 1.3 10.91 1.32 12.04 C1.34 13.14 1.36 14.25 1.38 15.39 C1.44 18.95 1.5 22.51 1.56 26.06 C1.61 28.47 1.65 30.87 1.69 33.28 C1.8 39.18 1.9 45.09 2 51 C14.21 51.33 26.42 51.66 39 52 C40.25 54.51 40.12 56.2 40.11 59 C40.11 60.56 40.11 60.56 40.11 62.15 C40.11 63.28 40.1 64.41 40.1 65.57 C40.1 66.72 40.09 67.87 40.09 69.06 C40.09 72.75 40.08 76.44 40.06 80.12 C40.06 82.62 40.05 85.12 40.05 87.61 C40.04 93.74 40.02 99.87 40 106 C27.13 106.33 14.26 106.66 1 107 C1.12 119.7 1.12 119.7 1.26 132.4 C1.32 137.58 1.38 142.76 1.42 147.94 C1.46 152.11 1.51 156.29 1.56 160.46 C1.58 162.06 1.59 163.65 1.6 165.24 C1.62 167.47 1.65 169.71 1.68 171.94 C1.69 173.21 1.71 174.48 1.72 175.79 C1.98 178.81 2.33 180.5 4 183 C6.02 184.51 6.02 184.51 8.38 185.69 C9.15 186.1 9.92 186.52 10.71 186.95 C14.54 188.71 18.01 189.15 22.2 189.32 C23.18 189.36 24.16 189.4 25.17 189.44 C26.19 189.48 27.2 189.52 28.25 189.56 C29.8 189.63 29.8 189.63 31.38 189.69 C33.92 189.8 36.46 189.9 39 190 C40.22 192.43 40.13 193.99 40.13 196.71 C40.13 197.69 40.14 198.66 40.14 199.67 C40.14 201.26 40.14 201.26 40.13 202.88 C40.13 203.96 40.13 205.04 40.14 206.16 C40.14 208.45 40.13 210.74 40.13 213.03 C40.13 216.55 40.13 220.07 40.14 223.59 C40.14 225.81 40.13 228.03 40.13 230.25 C40.13 231.31 40.14 232.37 40.14 233.47 C40.13 234.93 40.13 234.93 40.13 236.42 C40.13 237.28 40.13 238.14 40.13 239.03 C40 241 40 241 39 242 C32.92 242.3 26.83 242.31 20.74 242.35 C18.7 242.37 16.65 242.39 14.6 242.43 C-6.9 242.84 -25.93 240.18 -42.44 225.25 C-56.44 210.15 -57.31 187.49 -57.26 168.06 C-57.26 166.4 -57.27 164.73 -57.27 163.07 C-57.28 158.6 -57.28 154.13 -57.27 149.65 C-57.26 144.96 -57.27 140.27 -57.27 135.58 C-57.28 127.71 -57.27 119.85 -57.26 111.98 C-57.25 102.88 -57.25 93.79 -57.26 84.69 C-57.27 76.87 -57.27 69.04 -57.27 61.22 C-57.27 56.55 -57.27 51.89 -57.27 47.22 C-57.28 42.84 -57.27 38.46 -57.26 34.08 C-57.26 32.48 -57.26 30.87 -57.27 29.26 C-57.27 27.07 -57.26 24.88 -57.25 22.69 C-57.25 21.46 -57.25 20.24 -57.25 18.97 C-57 16 -57 16 -55 13 C-52.21 12 -52.21 12 -48.66 11.13 C-47.7 10.89 -47.7 10.89 -46.73 10.65 C-44.65 10.13 -42.58 9.63 -40.5 9.12 C-38.37 8.6 -36.24 8.07 -34.12 7.54 C-32.71 7.18 -31.3 6.83 -29.9 6.49 C-23.67 4.94 -17.5 3.23 -11.36 1.37 C-7.47 0.24 -4.05 -0.29 0 0 Z " fill="#F7FBFC" transform="translate(566,476)"/>
<path d="M0 0 C1.53 -0.04 1.53 -0.04 3.1 -0.09 C10.37 -0.15 10.37 -0.15 13.89 1.83 C15.74 5.37 16.03 8.47 15.19 12.31 C13.59 14.81 12.15 16.72 10.19 18.88 C-1.14 32.33 -6.68 47.35 -10.81 64.31 C-11.93 64.33 -13.04 64.34 -14.19 64.36 C-29.86 64.76 -44.73 67.5 -56.81 78.31 C-59.74 81.76 -61.94 85.2 -63.81 89.31 C-64.14 90.04 -64.47 90.76 -64.81 91.5 C-68.85 101.73 -68.42 112.01 -68.42 122.83 C-68.44 124.9 -68.45 126.96 -68.47 129.03 C-68.52 134.44 -68.54 139.84 -68.55 145.25 C-68.57 150.78 -68.61 156.31 -68.65 161.84 C-68.73 172.66 -68.78 183.49 -68.81 194.31 C-76.61 194.34 -84.4 194.36 -92.2 194.37 C-94.86 194.37 -97.51 194.38 -100.16 194.39 C-103.97 194.4 -107.78 194.41 -111.59 194.41 C-112.78 194.42 -113.97 194.42 -115.2 194.43 C-116.3 194.43 -117.4 194.43 -118.54 194.43 C-120 194.43 -120 194.43 -121.48 194.43 C-123.81 194.31 -123.81 194.31 -125.81 193.31 C-125.88 169.11 -125.94 144.91 -125.97 120.71 C-125.98 109.48 -126 98.24 -126.04 87.01 C-126.07 77.22 -126.09 67.43 -126.09 57.63 C-126.1 52.45 -126.11 47.26 -126.13 42.08 C-126.15 37.2 -126.16 32.32 -126.15 27.44 C-126.15 25.65 -126.16 23.86 -126.17 22.06 C-126.18 19.62 -126.18 17.18 -126.17 14.73 C-126.18 14.02 -126.19 13.3 -126.2 12.57 C-126.17 9.68 -126.14 7.77 -124.44 5.37 C-122.12 3.86 -120.38 3.95 -117.62 3.96 C-116.04 3.95 -116.04 3.95 -114.42 3.95 C-113.28 3.96 -112.14 3.97 -110.96 3.98 C-109.79 3.99 -108.62 3.99 -107.42 3.99 C-104.94 4 -102.47 4.01 -100 4.03 C-96.2 4.06 -92.4 4.07 -88.59 4.08 C-86.2 4.09 -83.8 4.1 -81.4 4.11 C-80.25 4.11 -79.11 4.12 -77.93 4.12 C-76.88 4.13 -75.83 4.14 -74.74 4.15 C-73.81 4.16 -72.88 4.17 -71.92 4.17 C-69.81 4.31 -69.81 4.31 -68.81 5.31 C-68.67 7.29 -68.59 9.27 -68.53 11.25 C-68.48 13.05 -68.48 13.05 -68.42 14.9 C-68.37 16.81 -68.37 16.81 -68.31 18.75 C-68.24 21.25 -68.17 23.75 -68.09 26.25 C-68.06 27.36 -68.03 28.47 -68 29.62 C-67.99 32.28 -67.99 32.28 -66.81 34.31 C-66.1 32.64 -66.1 32.64 -65.38 30.94 C-58.65 17.54 -46.35 9.61 -32.81 4.31 C-21.99 0.89 -11.29 0.11 0 0 Z " fill="#F82155" transform="translate(953.8125,522.6875)"/>
<path d="M0 0 C11.19 11.09 14.25 22.61 14.51 37.8 C14.46 43.6 14.11 48.79 12.32 54.3 C11.96 55.52 11.96 55.52 11.58 56.75 C8.02 67.04 0.58 74.61 -9.01 79.49 C-20.05 84.04 -35.54 84.49 -46.93 80.74 C-58.41 75.49 -67.92 67.57 -72.61 55.68 C-77.18 41.27 -76.88 26.02 -69.99 12.37 C-63.78 2.11 -55.5 -3.27 -44.68 -8.01 C-29.24 -11.54 -12.32 -10.56 0 0 Z " fill="#1F242E" transform="translate(221.67578125,585.6953125)"/>
<path d="M0 0 C0.89 0.35 1.77 0.7 2.69 1.06 C13.51 5.81 19.5 15.01 24.11 25.54 C25.41 30.61 25.37 35.53 25.38 40.75 C25.4 41.78 25.42 42.82 25.45 43.88 C25.49 55.93 21.11 64.48 13 73.13 C3.16 82.66 -8.5 84.28 -21.8 84.24 C-35.47 84 -45.74 78.91 -56 70 C-64.51 58.77 -67.34 46.82 -66 33 C-63.47 20.74 -57.01 11.4 -47 4 C-32.29 -5.17 -15.98 -6.75 0 0 Z " fill="#1F252E" transform="translate(732,578)"/>
<path d="M0 0 C5.86 4.74 11.36 11.94 12.61 19.53 C13.27 30.58 13.12 38.59 5.86 47.28 C-0.68 54.22 -8.02 57.47 -17.54 57.87 C-19.42 57.89 -21.31 57.9 -23.2 57.91 C-24.14 57.93 -25.07 57.96 -26.03 57.98 C-37.13 58.03 -45.25 53.87 -53.39 46.53 C-58.89 40.89 -60.57 34.83 -60.83 27.16 C-60.55 17.44 -57.35 10.52 -50.65 3.5 C-36.96 -8.46 -15.34 -9.43 0 0 Z " fill="#1F252E" transform="translate(1065.390625,685.46875)"/>
<path d="M0 0 C6.77 7.41 7.8 13.94 7.55 23.83 C6.8 31.81 3.28 35.88 -2.69 40.98 C-10.2 46.15 -20.03 45.34 -28.79 44.43 C-36.22 42.49 -41.56 37.76 -45.79 31.43 C-48.96 24.96 -49.02 17.35 -46.88 10.53 C-42.82 1.83 -36.6 -2.35 -27.79 -5.57 C-18.65 -8.16 -7.22 -6.36 0 0 Z " fill="#1F252E" transform="translate(1061.78515625,587.57421875)"/>
<path d="M0 0 C5.85 5.85 10.05 12.62 13.25 20.25 C13.25 20.91 13.25 21.57 13.25 22.25 C-12.82 22.25 -38.89 22.25 -65.75 22.25 C-66.75 19.25 -66.75 19.25 -65.93 16.98 C-60.54 6.47 -53.59 -1.34 -42.09 -5.15 C-27.44 -8.89 -13.01 -8.28 0 0 Z " fill="#1F242E" transform="translate(427.75,579.75)"/>
<path d="M0 0 C0.99 0 1.98 0 3 0 C4.75 2.34 4.75 2.34 6.56 5.38 C8.96 9.43 8.96 9.43 12 13 C13.31 11.21 14.63 9.42 15.94 7.62 C16.67 6.63 17.4 5.63 18.15 4.6 C19.98 2.17 19.98 2.17 21 0 C21.99 0 22.98 0 24 0 C25.33 2.66 25.11 4.69 25.1 7.66 C25.09 8.79 25.09 9.91 25.09 11.06 C25.08 12.24 25.07 13.41 25.06 14.62 C25.06 15.81 25.05 16.99 25.05 18.21 C25.04 21.14 25.02 24.07 25 27 C23.68 26.67 22.36 26.34 21 26 C21 20.72 21 15.44 21 10 C20.34 10 19.68 10 19 10 C18.77 10.89 18.55 11.77 18.31 12.69 C16.83 16.43 14.98 18.34 12 21 C8.61 17.87 6.39 15.43 5 11 C4.34 11 3.68 11 3 11 C3 16.28 3 21.56 3 27 C1.68 26.67 0.36 26.34 -1 26 C-1.03 21.85 -1.05 17.71 -1.06 13.56 C-1.07 12.38 -1.08 11.19 -1.09 9.97 C-1.09 8.85 -1.09 7.73 -1.1 6.57 C-1.1 5.52 -1.11 4.48 -1.11 3.41 C-1 1 -1 1 0 0 Z " fill="#F7FBFC" transform="translate(1155,526)"/>
<path d="M0 0 C1.58 0.01 3.16 0.02 4.75 0.04 C5.55 0.04 6.36 0.04 7.19 0.05 C9.19 0.06 11.19 0.08 13.18 0.1 C13.51 1.75 13.84 3.4 14.18 5.1 C11.87 5.1 9.56 5.1 7.18 5.1 C7.18 12.36 7.18 19.62 7.18 27.1 C3.18 26.1 3.18 26.1 2.18 25.1 C2.03 23.68 1.93 22.26 1.87 20.84 C1.8 19.56 1.8 19.56 1.74 18.26 C1.68 16.91 1.68 16.91 1.62 15.54 C1.58 14.63 1.53 13.73 1.49 12.8 C1.38 10.57 1.28 8.33 1.18 6.1 C-0.8 5.44 -2.78 4.78 -4.82 4.1 C-4.82 -0.37 -4.62 0.12 0 0 Z " fill="#F7FBFC" transform="translate(1134.81640625,525.90234375)"/>
</svg>
