<?xml version="1.0" encoding="UTF-8"?>
<svg version="1.1" xmlns="http://www.w3.org/2000/svg" width="500" height="500">
<path d="M0 0 C165 0 330 0 500 0 C500 165 500 330 500 500 C335 500 170 500 0 500 C0 335 0 170 0 0 Z " fill="#85D424" transform="translate(0,0)"/>
<path d="M0 0 C16.38768547 -0.40463421 32.66584747 0.82860169 49 2 C48.57079395 21.4375799 47.72608062 40.85208013 46.75772095 60.2696228 C46.62899278 62.85306041 46.50182101 65.43657611 46.37631226 68.02017212 C45.77296403 80.37736369 45.12975817 92.72651843 44.02734375 105.05078125 C43.95479874 105.90818405 43.88225372 106.76558685 43.80751038 107.64897156 C43.73173264 108.43423721 43.6559549 109.21950287 43.57788086 110.02856445 C43.48282509 111.04174492 43.48282509 111.04174492 43.385849 112.07539368 C42.94084836 114.29504708 42.08724335 116.02401537 41 118 C40.34 118 39.68 118 39 118 C38.5978125 118.8971875 38.5978125 118.8971875 38.1875 119.8125 C37.00082594 121.99847854 35.90400887 123.41332594 34 125 C33.34 125 32.68 125 32 125 C32 125.66 32 126.32 32 127 C25.44216484 130.02669315 19.20391593 131.14362165 12 130 C10.73406569 129.36138135 9.48493985 128.688856 8.25 127.9921875 C3.49876596 125.46019075 -0.70997598 125.50715827 -6 125.6875 C-7.27617188 125.70200195 -7.27617188 125.70200195 -8.578125 125.71679688 C-12.99222155 125.79465287 -17.23861118 126.16761611 -21.61474609 126.76635742 C-26.80706788 127.27496049 -32.03050268 127.26486637 -37.24389648 127.29516602 C-38.61769924 127.30667788 -39.99145754 127.32711774 -41.36499023 127.35668945 C-53.1193282 127.60857818 -61.55540369 125.22229816 -72 120 C-72.99 120 -73.98 120 -75 120 C-76.68730565 122.07508993 -78.16031447 124.08948534 -79.625 126.3125 C-80.23601562 127.20485352 -80.23601562 127.20485352 -80.859375 128.11523438 C-82.61691453 130.71953551 -84.00198516 133.00595548 -85 136 C-89.40162549 135.10587294 -92.49859924 132.73778706 -96.0625 130.125 C-96.68705078 129.67769531 -97.31160156 129.23039063 -97.95507812 128.76953125 C-102.63604403 125.38245026 -102.63604403 125.38245026 -104.51342773 123.40966797 C-106.05851533 121.74532015 -106.05851533 121.74532015 -109 121 C-109 124.3 -109 127.6 -109 131 C-112.4963013 132.16543377 -115.86169812 132.42639678 -119.5078125 132.71875 C-120.63072441 132.81240845 -120.63072441 132.81240845 -121.77632141 132.90795898 C-124.2255199 133.11005748 -126.67518343 133.30554609 -129.125 133.5 C-129.96588165 133.56791748 -130.80676331 133.63583496 -131.67312622 133.70581055 C-142.54328727 134.5799441 -153.38636622 135.26352638 -164.28857422 135.58374023 C-175.75970088 135.96899978 -187.187083 136.99182928 -198.61889648 137.984375 C-207.4467039 138.73644158 -216.13241062 139.20350233 -225 139 C-225 137.02 -225 135.04 -225 133 C-225.79921875 133.39832031 -226.5984375 133.79664063 -227.421875 134.20703125 C-243.664301 142.04228604 -261.54496407 145.28699216 -279.3125 140.4375 C-284.37191318 138.60975388 -288.17318885 135.94626374 -292.09765625 132.29296875 C-293.89465819 130.79347696 -293.89465819 130.79347696 -296.01171875 131.09375 C-298.38455394 132.17527802 -299.87441365 133.50279168 -301.75 135.3125 C-310.97967068 143.63963831 -322.38313225 146.28797108 -334.5546875 146.9140625 C-335.53631866 146.97403412 -336.51794983 147.03400574 -337.52932739 147.09579468 C-340.64401243 147.28333558 -343.75934699 147.45438552 -346.875 147.625 C-348.92454286 147.74632463 -350.97402303 147.86871305 -353.0234375 147.9921875 C-365.67791079 148.74486147 -378.3380229 149.38820019 -391 150 C-391.05534912 148.93676514 -391.11069824 147.87353027 -391.16772461 146.77807617 C-391.37621092 142.78398484 -391.58749159 138.79004515 -391.79956055 134.79614258 C-391.89047673 133.07678087 -391.98066336 131.3573804 -392.07006836 129.63793945 C-392.50692472 121.2449282 -392.95902768 112.87295145 -393.77905273 104.50708008 C-394.19714023 99.7630574 -394.37442865 95.00778042 -394.5625 90.25 C-394.6049585 89.21101563 -394.64741699 88.17203125 -394.69116211 87.1015625 C-395.00098329 79.06241969 -395.11602341 71.04428998 -395 63 C-395.66 63 -396.32 63 -397 63 C-397.60272612 48.99623563 -398.19058861 35.018851 -398 21 C-381.67718897 19.56967204 -365.38101082 18.44630403 -349 18 C-348.03416992 17.97131836 -347.06833984 17.94263672 -346.07324219 17.91308594 C-343.2571091 17.83800173 -340.44184358 17.78894021 -337.625 17.75 C-336.3870166 17.717854 -336.3870166 17.717854 -335.12402344 17.68505859 C-326.97349551 17.64023899 -319.35077876 19.41319012 -312.75 24.375 C-311.51830078 25.29732422 -311.51830078 25.29732422 -310.26171875 26.23828125 C-309.14216797 27.11033203 -309.14216797 27.11033203 -308 28 C-307.08154297 28.67095703 -307.08154297 28.67095703 -306.14453125 29.35546875 C-302.55287177 32.09577191 -300.67175533 34.82061169 -299 39 C-299 39.66 -299 40.32 -299 41 C-298.19183838 40.96970703 -297.38367676 40.93941406 -296.55102539 40.90820312 C-278.69249178 40.25168581 -260.87376833 39.8426818 -243 40 C-243 38.02 -243 36.04 -243 34 C-239.37 34 -235.74 34 -232 34 C-232.33 26.08 -232.66 18.16 -233 10 C-216.91302938 8.46790756 -201.15297844 7.71866463 -185 8 C-185 9.98 -185 11.96 -185 14 C-182.50447516 13.21869929 -182.50447516 13.21869929 -180 12 C-179.67 11.01 -179.34 10.02 -179 9 C-174.59043283 6.38181949 -169.95393531 6.80572803 -165 7 C-165 6.34 -165 5.68 -165 5 C-148.95751113 3.28222246 -133.12938161 2.73474768 -117 3 C-116.31143676 9.38260084 -115.89642972 15.57864254 -116 22 C-115.34 22 -114.68 22 -114 22 C-113.6596875 21.1646875 -113.6596875 21.1646875 -113.3125 20.3125 C-111.64103234 17.36753316 -109.44723648 15.31843456 -107 13 C-103.9350908 14.33801412 -102.14639067 15.70907981 -100.0625 18.3125 C-97.52347138 21.39107221 -94.85963477 24.21011242 -92 27 C-91.54625 27.61488281 -91.0925 28.22976562 -90.625 28.86328125 C-87.93707528 32.21646733 -86.08533274 33.79006338 -81.7890625 34.62109375 C-74.71325198 34.87434944 -69.36124106 33.94990219 -63.28125 30.2890625 C-57.29724123 26.90768768 -51.21704033 26.45069962 -44.5 25.9375 C-43.47712891 25.85516113 -42.45425781 25.77282227 -41.40039062 25.68798828 C-27.95566838 24.67582598 -14.47545517 24.34104547 -1 24 C-1.00580078 23.28932373 -1.01160156 22.57864746 -1.01757812 21.84643555 C-1.04293571 16.47289065 -0.96092983 11.17080926 -0.5 5.8125 C-0.4071875 4.70519531 -0.314375 3.59789062 -0.21875 2.45703125 C-0.1465625 1.64621094 -0.074375 0.83539063 0 0 Z " fill="#2A387E" transform="translate(425,169)"/>
<path d="M0 0 C0 0.66 0 1.32 0 2 C0.59296875 2.26039063 1.1859375 2.52078125 1.796875 2.7890625 C5.73116947 4.95152932 8.04197376 7.99552053 10 12 C11.17624987 18.54837616 10.60037552 24.54892005 7.20703125 30.31640625 C4.4162462 34.20905465 1.4659495 37.18053909 -3 39 C-1.63718145 41.7256371 -0.14913458 41.92650681 2.625 43.125 C9.39003915 46.41557698 13.1831601 50.89378984 16.9375 57.3125 C18.92454247 64.20870623 19.00553598 71.42415646 16.11328125 78.0859375 C11.81910573 85.46890594 6.35153264 90.02005842 -1.6875 92.6875 C-14.33413308 95.89609247 -26.94880856 94.76937612 -39 90 C-39 91.65 -39 93.3 -39 95 C-42.970635 95.67585277 -46.72258108 96.06091937 -50.75390625 96.03125 C-51.55256104 96.02673828 -52.35121582 96.02222656 -53.17407227 96.01757812 C-54.07790649 96.00887695 -54.07790649 96.00887695 -55 96 C-56.59320075 73.84365417 -58.10296277 51.68780281 -59.1875 29.5 C-59.23001892 28.64858429 -59.27253784 27.79716858 -59.31634521 26.91995239 C-59.77774788 17.60316778 -60.09783165 8.33163403 -60 -1 C-55.05 -1 -50.1 -1 -45 -1 C-45 0.32 -45 1.64 -45 3 C-43.02463255 2.65213292 -43.02463255 2.65213292 -41 2 C-40.67 1.34 -40.34 0.68 -40 0 C-26.78680954 -5.20067195 -13.07372294 -5.71975379 0 0 Z " fill="#F8D503" transform="translate(104,206)"/>
<path d="M0 0 C0.89090332 0.00451172 1.78180664 0.00902344 2.69970703 0.01367188 C3.71073486 0.02237305 3.71073486 0.02237305 4.7421875 0.03125 C4.79523293 0.99511627 4.79523293 0.99511627 4.84934998 1.97845459 C5.21793096 8.66200716 5.59189399 15.34524311 5.96899414 22.02832031 C6.10904999 24.52303467 6.24772996 27.01782666 6.38500977 29.51269531 C6.58248646 33.09721807 6.78489755 36.68143316 6.98828125 40.265625 C7.0487413 41.38241638 7.10920135 42.49920776 7.17149353 43.64984131 C7.23148026 44.69061829 7.29146698 45.73139526 7.35327148 46.80371094 C7.40434555 47.71860291 7.45541962 48.63349487 7.50804138 49.57611084 C7.72323223 51.83249455 8.18000986 53.84293238 8.7421875 56.03125 C8.87314583 60.36859001 8.78559255 64.69074493 8.7421875 69.03125 C2.8021875 69.03125 -3.1378125 69.03125 -9.2578125 69.03125 C-9.2578125 65.40125 -9.2578125 61.77125 -9.2578125 58.03125 C-9.85207031 58.55074219 -10.44632812 59.07023437 -11.05859375 59.60546875 C-20.77997241 67.78473135 -29.47162416 72.34067362 -42.38671875 71.55859375 C-51.41857846 70.32821932 -56.69038332 66.2159477 -62.3203125 59.21875 C-65.80595913 54.13344054 -67.91706131 50.18319046 -68.2578125 44.03125 C-68.33644531 42.77828125 -68.41507812 41.5253125 -68.49609375 40.234375 C-68.82300286 32.46617439 -68.63515783 25.71382452 -64.2578125 19.03125 C-63.76023437 18.26296875 -63.26265625 17.4946875 -62.75 16.703125 C-57.7681972 9.70542991 -50.88657946 3.72316509 -42.2578125 2.03125 C-30.60508137 0.93128718 -21.36349902 3.74670078 -12.2578125 11.03125 C-12.2578125 7.73125 -12.2578125 4.43125 -12.2578125 1.03125 C-8.11671996 0.31105999 -4.20773409 -0.02772807 0 0 Z " fill="#F8F8FB" transform="translate(416.2578125,208.96875)"/>
<path d="M0 0 C7.62214074 4.48049316 12.95981435 10.50790646 15.79907227 18.96801758 C16.43797874 22.33004045 16.35045805 25.66320285 16.30859375 29.0703125 C16.30408203 29.76769531 16.29957031 30.46507812 16.29492188 31.18359375 C16.28319395 32.89587053 16.26526028 34.60810283 16.24609375 36.3203125 C11.17862171 36.75344946 6.11068016 37.18043733 1.04223633 37.60205078 C-0.6773024 37.74592234 -2.39670822 37.89139265 -4.1159668 38.03857422 C-13.3382017 38.82698279 -22.48713655 39.60250935 -31.75390625 39.3203125 C-30.07558619 44.6699577 -28.21902817 47.68690258 -23.24609375 50.4375 C-14.1490976 53.65994691 -4.24825049 51.2073443 4.24609375 47.3203125 C6.73285546 45.78565011 8.93967134 44.12533873 11.24609375 42.3203125 C11.90609375 42.3203125 12.56609375 42.3203125 13.24609375 42.3203125 C14.28153549 44.22912684 15.2989946 46.14770454 16.30859375 48.0703125 C16.87707031 49.13765625 17.44554687 50.205 18.03125 51.3046875 C19.24609375 54.3203125 19.24609375 54.3203125 19.24609375 56.52734375 C15.61303217 63.04130962 3.18916145 65.68560107 -3.74267578 67.82983398 C-13.08581539 70.46659619 -22.92232266 70.79475808 -31.75390625 66.3203125 C-40.04921613 61.2166645 -45.64668006 54.57514024 -48.75390625 45.3203125 C-49.30852703 41.86218792 -49.37508578 38.50517665 -49.31640625 35.0078125 C-49.30617432 34.08718018 -49.29594238 33.16654785 -49.28540039 32.21801758 C-48.96395552 21.87623466 -45.92500168 13.56374257 -38.7109375 6.00390625 C-28.06092208 -3.15808306 -12.90591618 -6.06090645 0 0 Z " fill="#F8D403" transform="translate(179.75390625,226.6796875)"/>
<path d="M0 0 C1.75570313 0.01353516 1.75570313 0.01353516 3.546875 0.02734375 C4.43890625 0.03894531 5.3309375 0.05054688 6.25 0.0625 C6.59002182 4.4995135 6.92077776 8.93717316 7.25 13.375 C7.34539062 14.61830078 7.44078125 15.86160156 7.5390625 17.14257812 C8.07728026 24.46618414 8.38660061 31.71926838 8.25 39.0625 C13.07735245 35.01004954 17.43008627 30.87308947 21.5078125 26.0625 C24.2609226 22.90197899 27.24681426 19.98353172 30.25 17.0625 C34.01895079 18.76206863 35.71756303 20.7948394 38.25 24.0625 C39.24 24.7225 40.23 25.3825 41.25 26.0625 C40.8253585 31.20522522 39.52088652 33.38422641 35.8125 36.91796875 C34.91789062 37.78744141 34.02328125 38.65691406 33.1015625 39.55273438 C32.16054688 40.44283203 31.21953125 41.33292969 30.25 42.25 C28.39160286 44.03075178 26.53722632 45.81571195 24.6875 47.60546875 C23.86121094 48.38946045 23.03492188 49.17345215 22.18359375 49.98120117 C20.04100268 51.99944504 20.04100268 51.99944504 19.25 55.0625 C19.78496094 55.30742187 20.31992187 55.55234375 20.87109375 55.8046875 C33.45217551 62.45675372 45.12548887 72.27276281 56.25 81.0625 C54.9244419 84.68526315 53.30653045 87.69755348 51.125 90.875 C50.31675781 92.06029297 50.31675781 92.06029297 49.4921875 93.26953125 C49.08226562 93.86121094 48.67234375 94.45289063 48.25 95.0625 C43.43137192 93.49920463 39.94430435 90.75162215 36 87.6875 C30.00156424 83.10261848 23.92941919 78.65065642 17.75 74.3125 C17.00202148 73.78736816 16.25404297 73.26223633 15.48339844 72.72119141 C13.74028227 71.49969886 11.99535455 70.28079204 10.25 69.0625 C10.31058594 69.72781738 10.37117188 70.39313477 10.43359375 71.07861328 C10.70849317 74.11466588 10.9792823 77.15107179 11.25 80.1875 C11.34539062 81.23421875 11.44078125 82.2809375 11.5390625 83.359375 C11.9745607 88.2742833 12.38675514 93.12222054 12.25 98.0625 C7.97583793 98.6841963 3.90690494 99.08979808 -0.41430664 99.07617188 C-1.63169273 99.07321106 -1.63169273 99.07321106 -2.87367249 99.07019043 C-3.49286057 99.06765259 -4.11204865 99.06511475 -4.75 99.0625 C-4.78092239 98.50351013 -4.81184479 97.94452026 -4.84370422 97.36859131 C-5.2424161 90.18279322 -5.64992823 82.99751526 -6.0625 75.8125 C-6.12869537 74.65935303 -6.19489075 73.50620605 -6.26309204 72.31811523 C-7.2110414 55.93659251 -8.32475488 39.58473794 -9.83520508 23.24511719 C-10.51087792 15.83041411 -10.93464816 8.51095257 -10.75 1.0625 C-7.14006828 -0.07230527 -3.7657673 -0.03765767 0 0 Z " fill="#F9FAFB" transform="translate(287.75,187.9375)"/>
<path d="M0 0 C0.33 7.26 0.66 14.52 1 22 C5.29 22 9.58 22 14 22 C14 26.95 14 31.9 14 37 C10.87110801 37.782223 8.8599909 38.11433318 5.75 38.0625 C3.89375 38.0315625 3.89375 38.0315625 2 38 C2.1539624 38.671521 2.3079248 39.34304199 2.46655273 40.03491211 C3.09197458 43.51122715 3.32415653 46.91500573 3.53515625 50.44140625 C3.57822403 51.15809479 3.62129181 51.87478333 3.66566467 52.6131897 C3.80260386 54.92938333 3.93316219 57.24587025 4.0625 59.5625 C4.10735535 60.34646149 4.15221069 61.13042297 4.19842529 61.93814087 C4.8813951 73.97961145 5.19303033 85.93560445 5 98 C-0.61 98 -6.22 98 -12 98 C-13.42568887 78.28221374 -14.29089866 58.78110877 -14 39 C-18.29 39 -22.58 39 -27 39 C-27 34.38 -27 29.76 -27 25 C-23.37 25 -19.74 25 -16 25 C-16.165 23.453125 -16.33 21.90625 -16.5 20.3125 C-17.0957685 13.86813085 -17.09252382 7.46638706 -17 1 C-11.11376326 0.14382011 -6.12321914 0 0 0 Z " fill="#F3D106" transform="translate(226,193)"/>
<path d="M0 0 C5.61 0 11.22 0 17 0 C17.22757922 15.83255993 16.52431146 31.5158757 15.5 47.3125 C15.35487237 49.6256137 15.21033797 51.9387647 15.06640625 54.25195312 C14.71774632 59.83508212 14.3618773 65.41771291 14 71 C12.55477383 71.00592349 11.10954067 71.01015691 9.66430664 71.01367188 C8.85949356 71.01620972 8.05468048 71.01874756 7.22547913 71.0213623 C3.75097254 70.98801062 0.43396474 70.49948578 -3 70 C-3.02781263 68.22926253 -3.04674879 66.45838583 -3.0625 64.6875 C-3.07410156 63.70136719 -3.08570313 62.71523437 -3.09765625 61.69921875 C-3.02136543 58.80932266 -2.82134162 56.04121787 -2.52734375 53.171875 C-1.77287565 45.32046161 -1.67799275 37.44325378 -1.5 29.5625 C-1.2759997 19.66775779 -0.94275019 9.85959572 0 0 Z " fill="#F4F5F8" transform="translate(440,186)"/>
<path d="M0 0 C1.89492188 0.01353516 1.89492188 0.01353516 3.828125 0.02734375 C4.79234375 0.03894531 5.7565625 0.05054688 6.75 0.0625 C7.27375337 8.30330032 7.79546737 16.54422617 8.31460571 24.78531837 C8.55574673 28.61231389 8.79757991 32.439263 9.04101562 36.26611328 C9.27608403 39.96183543 9.50930721 43.6576699 9.74127197 47.3535881 C9.82992362 48.76096086 9.91923089 50.16829249 10.00921631 51.5755806 C10.13550401 53.55239157 10.2592075 55.52936712 10.3828125 57.50634766 C10.48940186 59.19179184 10.48940186 59.19179184 10.59814453 60.9112854 C10.74499186 63.95857402 10.75 67.01167518 10.75 70.0625 C5.14 70.0625 -0.47 70.0625 -6.25 70.0625 C-7.60321815 55.53699879 -8.69197075 41.01094091 -9.55224609 26.44897461 C-9.62910645 25.18577393 -9.7059668 23.92257324 -9.78515625 22.62109375 C-9.850979 21.50017334 -9.91680176 20.37925293 -9.98461914 19.22436523 C-10.24462623 16.12652545 -10.71890397 13.12377664 -11.25 10.0625 C-11.3120775 8.43855252 -11.33712041 6.81244703 -11.3125 5.1875 C-11.30347656 4.40632812 -11.29445312 3.62515625 -11.28515625 2.8203125 C-11.27355469 2.24023438 -11.26195312 1.66015625 -11.25 1.0625 C-7.49600202 -0.1414337 -3.91782588 -0.03627617 0 0 Z " fill="#F3F4F8" transform="translate(261.25,217.9375)"/>
<path d="M0 0 C2.49124329 1.20397472 4.75995464 2.53560605 7.0703125 4.0546875 C7.71226562 4.40402344 8.35421875 4.75335938 9.015625 5.11328125 C11.64903589 6.78519096 12.92163435 8.51669605 13.74609375 11.5 C14.16106065 15.94695874 13.8637209 18.88498697 11.32421875 22.62890625 C5.05972885 29.19739219 -2.45243258 34.09605794 -11.7421875 34.3671875 C-16.59366168 34.31775472 -19.17873238 33.26979189 -22.9296875 30.0546875 C-24.0434375 29.1575 -24.0434375 29.1575 -25.1796875 28.2421875 C-28.58303202 23.98800685 -29.15533014 19.42748032 -28.9921875 14.1171875 C-28.26892358 8.33989642 -25.29867215 4.74525838 -20.9296875 1.0546875 C-15.12426581 -2.75316974 -6.35122815 -2.04932962 0 0 Z " fill="#2C3982" transform="translate(392.9296875,228.9453125)"/>
<path d="M0 0 C0.71027344 0.4125 1.42054687 0.825 2.15234375 1.25 C5.12989511 3.32544174 6.70499006 4.87244667 7.63671875 8.43359375 C7.9533182 13.16851436 7.6140216 15.29612158 4.4375 18.9375 C2.74609375 20.0390625 2.74609375 20.0390625 1 21 C0.01 21.598125 -0.98 22.19625 -2 22.8125 C-10.84434178 26.20966439 -20.83883858 24.24741463 -29.4765625 21.265625 C-32.50343631 19.74750253 -34.07720995 18.82605421 -36 16 C-36.48004074 12.73450962 -36.37639892 9.54123352 -36.25 6.25 C-36.23195312 5.36183594 -36.21390625 4.47367187 -36.1953125 3.55859375 C-36.14827374 1.37129152 -36.08257009 -0.81379816 -36 -3 C-24.18189677 -4.64810283 -10.62475995 -6.45146714 0 0 Z " fill="#2C397B" transform="translate(99,261)"/>
<path d="M0 0 C0.495 0.309375 0.99 0.61875 1.5 0.9375 C2.49 0.2775 3.48 -0.3825 4.5 -1.0625 C9.35476051 -1.77014306 13.30188749 -1.771587 17.5625 0.75 C20.51414297 4.08250013 20.62240799 6.76091851 20.59765625 11.04296875 C20.59443359 12.02587891 20.59121094 13.00878906 20.58789062 14.02148438 C20.57532227 15.55772461 20.57532227 15.55772461 20.5625 17.125 C20.55798828 18.16076172 20.55347656 19.19652344 20.54882812 20.26367188 C20.5370401 22.82167266 20.52058515 25.37955733 20.5 27.9375 C17.86 27.9375 15.22 27.9375 12.5 27.9375 C12.43941406 26.67292969 12.37882812 25.40835937 12.31640625 24.10546875 C12.23199096 22.44530129 12.14734345 20.78514563 12.0625 19.125 C12.02318359 18.29162109 11.98386719 17.45824219 11.94335938 16.59960938 C11.90146484 15.79716797 11.85957031 14.99472656 11.81640625 14.16796875 C11.76141968 13.06038208 11.76141968 13.06038208 11.70532227 11.93041992 C11.55157859 9.730005 11.55157859 9.730005 10.5 6.9375 C8.08354218 6.77062552 8.08354218 6.77062552 5.5 6.9375 C3.1031335 9.3343665 3.21718867 10.00778314 3.0859375 13.2890625 C3.04726563 14.13984375 3.00859375 14.990625 2.96875 15.8671875 C2.92234375 17.20136719 2.92234375 17.20136719 2.875 18.5625 C2.83632813 19.4596875 2.79765625 20.356875 2.7578125 21.28125 C2.66340643 23.4997927 2.57783252 25.71832403 2.5 27.9375 C-0.14 27.9375 -2.78 27.9375 -5.5 27.9375 C-5.5 21.3375 -5.5 14.7375 -5.5 7.9375 C-12.11430493 6.19879589 -12.11430493 6.19879589 -15.5 8.9375 C-16.00621513 10.96026681 -16.00621513 10.96026681 -16.01171875 13.2890625 C-16.04716797 14.13984375 -16.08261719 14.990625 -16.11914062 15.8671875 C-16.14169922 16.75664062 -16.16425781 17.64609375 -16.1875 18.5625 C-16.22166016 19.4596875 -16.25582031 20.356875 -16.29101562 21.28125 C-16.37362402 23.49987538 -16.44272719 25.7180994 -16.5 27.9375 C-18.81 27.9375 -21.12 27.9375 -23.5 27.9375 C-23.5 18.3675 -23.5 8.7975 -23.5 -1.0625 C-20.53 -1.0625 -17.56 -1.0625 -14.5 -1.0625 C-9.33104365 -2.35473909 -4.92872197 -2.09470684 0 0 Z " fill="#2F4277" transform="translate(421.5,303.0625)"/>
<path d="M0 0 C2.22818427 1.42818558 3.62231807 2.79151114 4.80859375 5.1640625 C5.33943209 9.05687702 5.01541125 10.81461224 2.99609375 14.2265625 C-3.92479846 21.65433695 -15.36713555 23.89877584 -25.10546875 24.27734375 C-27.47213334 24.28734374 -29.82676463 24.25639124 -32.19140625 24.1640625 C-32.35366344 21.41169976 -32.47233905 18.66888774 -32.56640625 15.9140625 C-32.61667969 15.13675781 -32.66695312 14.35945312 -32.71875 13.55859375 C-32.77698382 11.28747486 -32.7415685 9.3703369 -32.19140625 7.1640625 C-29.44921875 4.7578125 -29.44921875 4.7578125 -26.19140625 3.1640625 C-25.43859375 2.74640625 -24.68578125 2.32875 -23.91015625 1.8984375 C-16.61731217 -1.33712008 -7.67142227 -2.92635359 0 0 Z " fill="#2C397B" transform="translate(93.19140625,217.8359375)"/>
<path d="M0 0 C3.54813789 1.94787975 6.18410919 4.36821838 8 8 C8.09649939 9.9981051 8.12980872 11.9995718 8.125 14 C8.12886719 15.60875 8.12886719 15.60875 8.1328125 17.25 C8 20 8 20 7 22 C6.34 22 5.68 22 5 22 C4.731875 22.969375 4.46375 23.93875 4.1875 24.9375 C3.795625 25.948125 3.40375 26.95875 3 28 C-2.22886612 29.74295537 -7.5686432 29.83303018 -13 29 C-16.81038468 26.42055629 -18.56734472 23.29796585 -20 19 C-20.57953691 14.39304834 -21.07775329 9.90347812 -18.73046875 5.7578125 C-13.35616045 -0.54490429 -8.15706177 -1.13408129 0 0 Z " fill="#2F4376" transform="translate(387,302)"/>
<path d="M0 0 C1.28583984 -0.02126953 1.28583984 -0.02126953 2.59765625 -0.04296875 C4.9375 0.1875 4.9375 0.1875 7.9375 2.1875 C7.6075 3.8375 7.2775 5.4875 6.9375 7.1875 C5.69033203 7.35185547 5.69033203 7.35185547 4.41796875 7.51953125 C3.33128906 7.67808594 2.24460937 7.83664062 1.125 8 C0.04605469 8.15082031 -1.03289062 8.30164063 -2.14453125 8.45703125 C-5.17193593 9.21489561 -6.29831231 9.66042034 -8.0625 12.1875 C-8.79291853 15.79773099 -8.79291853 15.79773099 -9.0625 19.1875 C-8.44375 19.496875 -7.825 19.80625 -7.1875 20.125 C-5.8125 20.8125 -4.4375 21.5 -3.0625 22.1875 C-1.35547265 22.25746014 0.35418003 22.27190154 2.0625 22.25 C2.97257812 22.24097656 3.88265625 22.23195313 4.8203125 22.22265625 C5.51898438 22.21105469 6.21765625 22.19945312 6.9375 22.1875 C7.2675 23.8375 7.5975 25.4875 7.9375 27.1875 C3.02382126 30.46328582 -2.34865121 30.23137622 -8.0625 29.1875 C-11.74560091 26.52209803 -14.04528643 23.22192713 -16.0625 19.1875 C-16.74341284 14.52169954 -17.23777104 10.04404079 -14.640625 5.94140625 C-10.02778269 1.20042943 -6.55645415 0.04944536 0 0 Z " fill="#2D4078" transform="translate(357.0625,301.8125)"/>
<path d="M0 0 C0.33 0.66 0.66 1.32 1 2 C1.66 2 2.32 2 3 2 C3.04898437 2.80824219 3.09796875 3.61648438 3.1484375 4.44921875 C3.22320312 5.51785156 3.29796875 6.58648437 3.375 7.6875 C3.44460938 8.74324219 3.51421875 9.79898437 3.5859375 10.88671875 C3.98760089 13.90677269 4.74069019 16.24078054 6 19 C4.68 18.67 3.36 18.34 2 18 C2 19.98 2 21.96 2 24 C0.68 23.67 -0.64 23.34 -2 23 C-1.34 22.67 -0.68 22.34 0 22 C0 20.35 0 18.7 0 17 C-0.99 17.33 -1.98 17.66 -3 18 C-7.17561192 18.39392565 -9.59291785 18.18503734 -13.4375 16.4375 C-16 14 -16 14 -16.625 10.5 C-15.91988484 6.55135511 -15.17606014 5.35935896 -12 3 C-9.11788698 2.03929566 -7.30149956 1.89418117 -4.3125 1.9375 C-3.10013672 1.95103516 -3.10013672 1.95103516 -1.86328125 1.96484375 C-0.94095703 1.98224609 -0.94095703 1.98224609 0 2 C0 1.34 0 0.68 0 0 Z " fill="#7DC62C" transform="translate(364,307)"/>
<path d="M0 0 C3.5060303 0.86943897 4.94966563 2.56083702 6.9375 5.48046875 C7.62901325 9.78321784 7.45307405 11.68992187 5.0625 15.35546875 C2.36343031 18.05453844 1.44648995 18.41324366 -2.375 18.91796875 C-6.0625 18.48046875 -6.0625 18.48046875 -9 15.91796875 C-10.79111311 13.39493899 -11.12718531 12.1117625 -11.6875 8.91796875 C-11.0625 5.48046875 -11.0625 5.48046875 -9.0625 2.54296875 C-5.72661401 0.24954713 -3.96265906 -0.27768634 0 0 Z " fill="#F2F3F7" transform="translate(260.0625,191.51953125)"/>
<path d="M0 0 C2.84733965 1.57130966 5.08155496 3.36784773 7 6 C7.6875 8.70703125 7.6875 8.70703125 8 11 C-11.34042553 12.19148936 -11.34042553 12.19148936 -21 12 C-19.75303814 8.35217128 -18.55018173 6.19154636 -15.5625 3.75 C-14.96566406 3.24984375 -14.36882812 2.7496875 -13.75390625 2.234375 C-9.66307206 -0.64469762 -4.79852588 -0.8421254 0 0 Z " fill="#323D78" transform="translate(171,239)"/>
<path d="M0 0 C3.12689277 2.08459518 3.82986774 2.5796134 5 6 C5.49884276 9.68548011 5.83240288 12.89012949 3.5 16 C-0.04831205 17.41932482 -3.27520501 17.64169735 -7 17 C-10 15.5 -10 15.5 -12 13 C-12.79190864 8.01097559 -12.80380719 6.16917409 -9.9375 2 C-6.29704773 -0.4786058 -4.32351988 -0.56045628 0 0 Z " fill="#F7F7FA" transform="translate(447,265)"/>
<path d="M0 0 C2.4375 1.625 2.4375 1.625 4 4 C4.63656938 7.73984509 4.25584708 9.50962644 2.5 12.875 C-0.10595657 15.09006309 -0.80519827 15.40904629 -4.0625 15.625 C-8 15 -8 15 -10.0625 12.9375 C-11.26109504 9.1819022 -10.98491662 6.79896412 -10 3 C-7.67133148 -1.01048467 -4.26353269 -0.52359173 0 0 Z " fill="#80CB29" transform="translate(384,309)"/>
<path d="M0 0 C0.33 0 0.66 0 1 0 C1.65655389 8.68761489 2.16311941 17.28217363 2 26 C6.84669357 21.97157937 11.18294077 17.80722194 15.2578125 13 C18.0109226 9.83947899 20.99681426 6.92103172 24 4 C24.99 4.33 25.98 4.66 27 5 C26.35160156 5.64324219 25.70320313 6.28648437 25.03515625 6.94921875 C22.63949096 9.34150868 20.28502377 11.77129346 17.93359375 14.20703125 C16.43512021 15.74240651 14.93641693 17.2775576 13.4375 18.8125 C12.30538086 19.99489258 12.30538086 19.99489258 11.15039062 21.20117188 C10.05307617 22.31782227 10.05307617 22.31782227 8.93359375 23.45703125 C8.27415771 24.13741455 7.61472168 24.81779785 6.93530273 25.51879883 C5 27 5 27 1 27 C-0.06996173 17.98175113 -0.10234659 9.06335876 0 0 Z " fill="#D0D3E3" transform="translate(294,201)"/>
<path d="M0 0 C2.5 0.25 2.5 0.25 4.5 2.25 C4.75 4.75 4.75 4.75 4.5 7.25 C3.84 7.91 3.18 8.57 2.5 9.25 C-1.125 8.875 -1.125 8.875 -4.5 8.25 C-4.625 5.375 -4.625 5.375 -4.5 2.25 C-2.5 0.25 -2.5 0.25 0 0 Z " fill="#314774" transform="translate(335.5,321.75)"/>
<path d="M0 0 C0 3 0 3 -1.609375 4.83203125 C-2.31578125 5.48558594 -3.0221875 6.13914063 -3.75 6.8125 C-6.2959389 9.24598577 -8.51224994 11.50680239 -10.375 14.5 C-11.179375 15.7375 -11.179375 15.7375 -12 17 C-12.66 17 -13.32 17 -14 17 C-13.4194679 13.69881206 -12.45131901 12.08865924 -10.05859375 9.765625 C-9.18364258 8.90517578 -9.18364258 8.90517578 -8.29101562 8.02734375 C-7.67935547 7.44082031 -7.06769531 6.85429687 -6.4375 6.25 C-5.82197266 5.64800781 -5.20644531 5.04601562 -4.57226562 4.42578125 C-3.05485187 2.94365619 -1.52829404 1.4709033 0 0 Z " fill="#3D498C" transform="translate(321,226)"/>
<path d="M0 0 C0 0.66 0 1.32 0 2 C-2.64 2.33 -5.28 2.66 -8 3 C-8 3.66 -8 4.32 -8 5 C-9.6796875 6.32421875 -9.6796875 6.32421875 -11.875 7.6875 C-12.95394531 8.37392578 -12.95394531 8.37392578 -14.0546875 9.07421875 C-15.01761719 9.53248047 -15.01761719 9.53248047 -16 10 C-16.66 9.67 -17.32 9.34 -18 9 C-16.61019248 7.86756424 -15.21285323 6.74436881 -13.8125 5.625 C-13.03519531 4.99851563 -12.25789062 4.37203125 -11.45703125 3.7265625 C-7.51147308 0.95400811 -4.84726643 0 0 0 Z " fill="#CCB71D" transform="translate(158,225)"/>
<path d="M0 0 C3.63 0 7.26 0 11 0 C11.33 1.32 11.66 2.64 12 4 C12.99 4.33 13.98 4.66 15 5 C13.35 5.66 11.7 6.32 10 7 C10 5.02 10 3.04 10 1 C6.7 1 3.4 1 0 1 C0 0.67 0 0.34 0 0 Z " fill="#5C8E4C" transform="translate(230,176)"/>
<path d="M0 0 C0.66 0.33 1.32 0.66 2 1 C0.90033225 2.29549899 -0.20491801 3.58626071 -1.3125 4.875 C-1.92738281 5.59429687 -2.54226563 6.31359375 -3.17578125 7.0546875 C-5 9 -5 9 -8 11 C-6.63629701 8.00779732 -5.05091917 5.70973471 -2.875 3.25 C-2.33617187 2.63640625 -1.79734375 2.0228125 -1.2421875 1.390625 C-0.62730469 0.70226562 -0.62730469 0.70226562 0 0 Z " fill="#CBCEE0" transform="translate(361,217)"/>
<path d="M0 0 C0.66 0.33 1.32 0.66 2 1 C1.525625 1.350625 1.05125 1.70125 0.5625 2.0625 C-1.67873825 4.84163543 -1.67117658 7.5144717 -2 11 C-2.66 11 -3.32 11 -4 11 C-4.49230769 4.6 -4.49230769 4.6 -2 1.5625 C-1.34 1.046875 -0.68 0.53125 0 0 Z " fill="#6DAB3B" transform="translate(352,310)"/>
<path d="M0 0 C-1.81817001 2.31459868 -2.75615543 2.95377187 -5.69921875 3.51171875 C-7.17841797 3.59873047 -7.17841797 3.59873047 -8.6875 3.6875 C-10.17830078 3.78611328 -10.17830078 3.78611328 -11.69921875 3.88671875 C-12.45847656 3.92410156 -13.21773437 3.96148437 -14 4 C-11.68516093 1.68516093 -10.10977477 1.2391044 -7 0.3125 C-6.113125 0.04050781 -5.22625 -0.23148437 -4.3125 -0.51171875 C-2 -1 -2 -1 0 0 Z " fill="#64645B" transform="translate(188,291)"/>
<path d="M0 0 C0.99 0.33 1.98 0.66 3 1 C-0.61328125 5.6875 -0.61328125 5.6875 -2 7 C-2.99 7 -3.98 7 -5 7 C-3.70700306 4.11562221 -2.34058637 2.12780579 0 0 Z " fill="#3F4C8D" transform="translate(372,230)"/>
</svg>
