<?xml version="1.0" encoding="UTF-8"?>
<svg version="1.1" xmlns="http://www.w3.org/2000/svg" width="412" height="150">
<path d="M0 0 C15.09229916 -0.32730287 29.96919708 0.67659949 45 2 C45.40564165 20.26841319 44.24487462 38.45957472 43.20404053 56.6887207 C43.01421512 60.03992907 42.83041941 63.39145687 42.6467371 66.74300671 C42.46777726 70.0006515 42.2861422 73.25814261 42.10360527 76.51558876 C42.01733217 78.05717117 41.93162111 79.59878515 41.84651375 81.14043236 C40.36168506 107.89772345 40.36168506 107.89772345 31.98828125 115.9296875 C26.41210121 120.1143253 20.93227136 121.45882659 14 121 C10.19358758 120.17479303 6.61730662 119.03306371 3.32055664 116.92724609 C0.03979042 115.61632025 -2.59144545 115.99813497 -6.1015625 116.27734375 C-6.77923676 116.32693741 -7.45691101 116.37653107 -8.15512085 116.42762756 C-10.31271863 116.58688379 -12.46873506 116.76117892 -14.625 116.9375 C-16.78847344 117.10826261 -18.9520747 117.27573325 -21.11630249 117.43666077 C-23.07500413 117.58318173 -25.03289423 117.74043291 -26.99072266 117.89819336 C-30 118 -30 118 -32 117 C-33.2065625 117.2165625 -33.2065625 117.2165625 -34.4375 117.4375 C-46.81342982 119.39159418 -56.88473587 116.55763206 -68 111 C-71.63 115.95 -75.26 120.9 -79 126 C-82.56976612 125.10755847 -83.88771342 124.58421494 -86.671875 122.49609375 C-87.66767578 121.75649414 -87.66767578 121.75649414 -88.68359375 121.00195312 C-89.36550781 120.48568359 -90.04742187 119.96941406 -90.75 119.4375 C-91.44738281 118.91736328 -92.14476562 118.39722656 -92.86328125 117.86132812 C-94.57974556 116.57985819 -96.29044431 115.29067202 -98 114 C-98.33 116.64 -98.66 119.28 -99 122 C-102.74283382 123.13212609 -106.51333663 123.32386808 -110.39208984 123.55664062 C-111.13096436 123.60394821 -111.86983887 123.6512558 -112.63110352 123.69999695 C-115.07417517 123.85556356 -117.51753985 124.00589799 -119.9609375 124.15625 C-121.6704825 124.26418667 -123.38000574 124.37246847 -125.08950806 124.4810791 C-129.59829161 124.76668255 -134.10733592 125.04793744 -138.61645508 125.32818604 C-144.0481523 125.66649535 -149.47955241 126.00953286 -154.9109745 126.35222626 C-159.14860235 126.61955507 -163.38627339 126.88610378 -167.62411499 127.15002441 C-175.80946602 127.6613318 -183.99069976 128.20021955 -192.16925049 128.81236267 C-195.58543689 129.03880591 -198.95200828 129.10053324 -202.375 129.0625 C-203.45523438 129.05347656 -204.53546875 129.04445312 -205.6484375 129.03515625 C-206.81246094 129.01775391 -206.81246094 129.01775391 -208 129 C-208.33 127.68 -208.66 126.36 -209 125 C-210.23363281 125.50660156 -210.23363281 125.50660156 -211.4921875 126.0234375 C-225.53973215 131.63596688 -242.17730385 135.43037093 -257 130 C-262.04922356 127.80272238 -266.66017294 125.40631735 -271 122 C-274.12363268 123.40842367 -276.41942673 125.13654819 -279 127.375 C-286.59164031 133.40809164 -296.33780164 135.79951858 -305.90698242 136.38891602 C-306.8553447 136.44890274 -307.80370697 136.50888947 -308.7808075 136.57069397 C-309.79544571 136.63115402 -310.81008392 136.69161407 -311.85546875 136.75390625 C-312.91228348 136.81907944 -313.96909821 136.88425262 -315.05793762 136.95140076 C-317.29283557 137.08834558 -319.5278399 137.22356377 -321.76293945 137.35717773 C-325.15803099 137.56073316 -328.55264547 137.7711671 -331.94726562 137.98242188 C-334.12497477 138.11499847 -336.30270845 138.24717276 -338.48046875 138.37890625 C-339.48498581 138.44139053 -340.48950287 138.50387482 -341.52445984 138.56825256 C-347.69126441 138.93178255 -353.82282778 139.07566863 -360 139 C-362.03952362 120.31109791 -363.13707032 101.55729984 -364.28710938 82.79760742 C-364.56778873 78.22252377 -364.85673902 73.64800411 -365.1478672 69.07357502 C-365.37484348 65.48823181 -365.59660081 61.90257895 -365.81696701 58.31682396 C-365.92125817 56.6318189 -366.02724664 54.94691781 -366.13515091 53.26214027 C-366.864557 41.82588744 -367.12575038 30.45912377 -367 19 C-360.93978559 18.56417457 -354.87901818 18.137403 -348.81762695 17.71826172 C-346.76472662 17.57511431 -344.71198383 17.42968544 -342.65942383 17.28173828 C-332.25908914 16.53358599 -321.87557162 15.86226161 -311.4453125 15.796875 C-310.68760056 15.78789185 -309.92988861 15.77890869 -309.1492157 15.76965332 C-300.12021241 15.79771212 -292.11439853 18.41011544 -285 24 C-283.989375 24.7425 -282.97875 25.485 -281.9375 26.25 C-279.50514084 28.29520302 -277.95916534 30.45702861 -276.31640625 33.171875 C-275.8788501 33.88956055 -275.44129395 34.60724609 -274.99047852 35.34667969 C-274.66362061 35.89227539 -274.3367627 36.43787109 -274 37 C-273.26177002 36.96970703 -272.52354004 36.93941406 -271.76293945 36.90820312 C-256.16657062 36.27956102 -240.60920668 35.84796227 -225 36 C-225 34.35 -225 32.7 -225 31 C-221.37 31 -217.74 31 -214 31 C-214.33 29.02 -214.66 27.04 -215 25 C-215 19.72 -215 14.44 -215 9 C-200.15 8.01 -185.3 7.02 -170 6 C-169.01 8.475 -169.01 8.475 -168 11 C-167.4740625 10.54753906 -166.948125 10.09507813 -166.40625 9.62890625 C-151.21587864 -0.65418605 -124.4127303 1.85519559 -107 2 C-106.34 7.28 -105.68 12.56 -105 18 C-104.071875 17.01 -103.14375 16.02 -102.1875 15 C-100.60546875 13.3125 -100.60546875 13.3125 -99 12 C-96 12 -96 12 -94.5625 13.36328125 C-94.046875 14.00652344 -93.53125 14.64976563 -93 15.3125 C-92.38382812 16.03050781 -91.76765625 16.74851562 -91.1328125 17.48828125 C-89.59013992 19.30501837 -88.06641401 21.13790114 -86.5546875 22.98046875 C-83.09142629 26.98524638 -80.03624208 30.45112127 -74.75390625 31.875 C-68.14950629 32.12392909 -63.04731303 30.6928994 -57.4140625 27.2890625 C-51.42970536 24.09353199 -45.20905581 23.58527545 -38.55859375 23.1484375 C-37.67269058 23.08467926 -36.78678741 23.02092102 -35.8740387 22.95523071 C-34.01107746 22.82248232 -32.14786208 22.69325809 -30.28442383 22.56738281 C-27.44229421 22.37532397 -24.60104173 22.17301352 -21.75976562 21.96875 C-19.94275028 21.84054992 -18.12569416 21.71292619 -16.30859375 21.5859375 C-15.46469589 21.52659027 -14.62079803 21.46724304 -13.75132751 21.40609741 C-9.49115412 21.11984336 -5.27300987 20.93529011 -1 21 C-1.01160156 19.98679687 -1.02320313 18.97359375 -1.03515625 17.9296875 C-1.04454209 16.57812686 -1.05364143 15.2265642 -1.0625 13.875 C-1.07087891 13.20984375 -1.07925781 12.5446875 -1.08789062 11.859375 C-1.10782292 7.79318646 -0.78890161 3.9879908 0 0 Z " fill="#28367F" transform="translate(367,0)"/>
<path d="M0 0 C4.26522157 3.4307217 8.12059562 7.04928687 9.875 12.3125 C10.55569064 20.20851139 8.33830039 25.80416309 3.8125 32.25 C1.875 34.3125 1.875 34.3125 -1.125 36.3125 C-0.14660156 36.93125 -0.14660156 36.93125 0.8515625 37.5625 C7.90282113 42.22173874 13.61665367 47.34276101 16.875 55.3125 C17.7756252 62.64317026 17.47782018 69.33012307 12.875 75.3125 C6.28604985 82.40169582 -0.76768514 85.92675861 -10.47265625 86.515625 C-18.83326181 86.6211216 -26.13843477 85.81109024 -34.125 83.3125 C-34.455 84.6325 -34.785 85.9525 -35.125 87.3125 C-38.74511635 88.05508797 -42.16466067 88.37065773 -45.84765625 88.34375 C-46.65082275 88.33923828 -47.45398926 88.33472656 -48.28149414 88.33007812 C-48.88985107 88.32427734 -49.49820801 88.31847656 -50.125 88.3125 C-50.78294554 78.79318105 -51.4352831 69.27349824 -52.08075714 59.75332546 C-52.38075013 55.33121107 -52.68256551 50.90923784 -52.98876953 46.48754883 C-53.28502921 42.20843276 -53.57620965 37.92899682 -53.86408997 33.64930916 C-53.97395037 32.02879926 -54.08554196 30.40840563 -54.19902039 28.78814507 C-54.91112783 18.60040226 -55.23439268 8.52704146 -55.125 -1.6875 C-50.505 -1.6875 -45.885 -1.6875 -41.125 -1.6875 C-41.125 -0.3675 -41.125 0.9525 -41.125 2.3125 C-40.31675781 1.96316406 -39.50851563 1.61382812 -38.67578125 1.25390625 C-37.60714844 0.79886719 -36.53851563 0.34382813 -35.4375 -0.125 C-33.85388672 -0.80369141 -33.85388672 -0.80369141 -32.23828125 -1.49609375 C-22.11994587 -5.36822962 -9.58896908 -5.1780433 0 0 Z " fill="#FAD602" transform="translate(71.125,34.6875)"/>
<path d="M0 0 C0.05607422 1.55654297 0.05607422 1.55654297 0.11328125 3.14453125 C0.65823448 16.39324504 1.77004614 29.57354198 2.98364258 42.7746582 C3.62635441 49.86500609 4.18566448 56.87209832 4 64 C-1.28 64 -6.56 64 -12 64 C-12.99 59.05 -12.99 59.05 -14 54 C-15.134375 55.0725 -16.26875 56.145 -17.4375 57.25 C-25.69935054 64.32134083 -33.17040236 66.00456295 -43.890625 65.50390625 C-50.70079095 64.88352812 -55.36362046 62.00817666 -59.828125 56.9140625 C-66.65881198 47.46384022 -68.42848138 37.54689118 -67 26 C-64.04238876 16.38776347 -58.21882306 9.90200662 -49.80859375 4.625 C-43.22010823 1.23057454 -36.36470825 0.72721879 -29.25390625 2.80078125 C-24.92895956 4.46521096 -20.86467759 6.42354827 -17 9 C-16.67 6.36 -16.34 3.72 -16 1 C-10.58595744 0.22656535 -5.4683932 -0.04595288 0 0 Z " fill="#F9F9FB" transform="translate(363,37)"/>
<path d="M0 0 C6.48754023 3.88338676 11.36960942 9.90156213 13.81640625 17.08203125 C14.38625346 20.26321713 14.31114295 23.34968609 14.28125 26.578125 C14.27222656 27.84140625 14.26320312 29.1046875 14.25390625 30.40625 C14.24230469 31.37046875 14.23070312 32.3346875 14.21875 33.328125 C9.07785459 33.75904794 3.93666225 34.18616902 -1.20483398 34.60986328 C-2.95166423 34.75434161 -4.69841087 34.8998347 -6.44506836 35.04638672 C-8.96446455 35.25759358 -11.48414488 35.46507595 -14.00390625 35.671875 C-14.77710709 35.73749634 -15.55030792 35.80311768 -16.34693909 35.87072754 C-20.84290094 36.23552536 -25.27044166 36.39081139 -29.78125 36.328125 C-28.34304187 41.36185344 -25.87879485 43.31768389 -21.78125 46.328125 C-14.14549107 48.87337798 -6.06290898 47.39784398 1.21875 44.328125 C3.37493171 43.01211065 5.4184229 41.64879899 7.4296875 40.12109375 C9.21875 39.328125 9.21875 39.328125 11.296875 39.91796875 C13.63009378 41.62994432 14.42866677 43.0663577 15.59375 45.703125 C16.13128906 46.85941406 16.13128906 46.85941406 16.6796875 48.0390625 C17.21875 50.328125 17.21875 50.328125 16.5859375 52.4609375 C11.51602935 59.38498349 -0.8785295 61.71831156 -8.78125 63.328125 C-18.86082756 64.47511141 -28.29896159 62.96300133 -36.59375 56.828125 C-43.07784123 50.48499228 -46.03390388 43.11788321 -46.39233398 34.15625 C-46.43435469 26.56008555 -46.17119103 19.78311617 -41.78125 13.328125 C-41.35714844 12.6371875 -40.93304688 11.94625 -40.49609375 11.234375 C-31.49747152 -2.20089385 -14.71854793 -6.78582405 0 0 Z " fill="#FAD602" transform="translate(141.78125,53.671875)"/>
<path d="M0 0 C1.22823191 12.02425976 2.3716832 23.89964694 2 36 C5.10096126 33.612207 7.80911158 31.25655085 10.3125 28.25 C13.99167202 23.93872353 17.9470728 19.95818345 22 16 C25.45201639 17.47721422 27.64961936 19.43794001 30.25 22.125 C30.95640625 22.84945312 31.6628125 23.57390625 32.390625 24.3203125 C32.92171875 24.87460937 33.4528125 25.42890625 34 26 C29.64354469 31.22368125 25.04239775 36.05233196 20.1875 40.8125 C18.84537138 42.12918543 17.50541323 43.4480881 16.16796875 44.76953125 C15.58297607 45.34292236 14.9979834 45.91631348 14.39526367 46.50708008 C12.89784025 47.96766261 12.89784025 47.96766261 12 50 C12.58015869 50.27384521 13.16031738 50.54769043 13.75805664 50.82983398 C15.96168251 51.98000046 17.86816539 53.25413984 19.87109375 54.72265625 C20.60473145 55.25737549 21.33836914 55.79209473 22.09423828 56.34301758 C23.25415283 57.19416138 23.25415283 57.19416138 24.4375 58.0625 C31.88447178 63.48789176 39.39423403 68.79959111 47 74 C45.53181332 77.10742423 43.79975 79.90471739 41.875 82.75 C41.33617187 83.54921875 40.79734375 84.3484375 40.2421875 85.171875 C39.83226562 85.77515625 39.42234375 86.3784375 39 87 C33.76301281 85.35170523 29.73324477 82.09755617 25.375 78.875 C24.5804541 78.29403564 23.7859082 77.71307129 22.96728516 77.11450195 C21.37895187 75.9526805 19.79216767 74.78873794 18.20703125 73.62255859 C15.27211862 71.46487836 12.32380359 69.32615052 9.375 67.1875 C7.93125 66.135625 6.4875 65.08375 5 64 C5.33 72.58 5.66 81.16 6 90 C0.43037407 90.79566085 -4.45650173 91.08528459 -10 91 C-10.75322653 83.56087075 -11.19349206 76.15899829 -11.4375 68.6875 C-11.73258231 60.65838537 -12.22216853 52.6842907 -13 44.6875 C-14.41283297 30.12815862 -15.21482 15.63162869 -15 1 C-9.92932037 0.28832567 -5.13401853 -0.04978442 0 0 Z " fill="#FAFAFC" transform="translate(246,18)"/>
<path d="M0 0 C4.95 0 9.9 0 15 0 C16.10087193 7.01805857 16.09733092 13.90565767 16 21 C19.96 21 23.92 21 28 21 C29.45781334 25.37344001 29.0598032 29.39515357 29 34 C25.37 34 21.74 34 18 34 C18.06058594 35.1331665 18.12117188 36.26633301 18.18359375 37.43383789 C18.41121173 41.71097772 18.63357304 45.98837852 18.85449219 50.26586914 C18.95010391 52.10350728 19.04706796 53.94107565 19.14550781 55.77856445 C19.73841276 66.86528191 20.15338032 77.89590381 20 89 C15.03926578 90.32286246 10.08888488 90.08893197 5 90 C4.5711055 82.81015598 4.14404429 75.62020476 3.71826172 68.43017578 C3.57317714 65.98386158 3.4276718 63.5375723 3.28173828 61.09130859 C3.07213676 57.576562 2.86404504 54.06172879 2.65625 50.546875 C2.59062866 49.4519574 2.52500732 48.35703979 2.45739746 47.22894287 C2.39733521 46.20818665 2.33727295 45.18743042 2.27539062 44.13574219 C2.19544861 42.79005157 2.19544861 42.79005157 2.1138916 41.41717529 C2.01320005 39.28015086 2 37.13939529 2 35 C-1.63 35 -5.26 35 -9 35 C-9.33 30.71 -9.66 26.42 -10 22 C-6.37 22 -2.74 22 1 22 C0.835 20.783125 0.67 19.56625 0.5 18.3125 C-0.19266433 12.20534687 -0.0646344 6.1402682 0 0 Z " fill="#F9D503" transform="translate(168,23)"/>
<path d="M0 0 C5.28 0 10.56 0 16 0 C17.33333333 21.33333333 18.66666667 42.66666667 20 64 C14.72 64 9.44 64 4 64 C3.42611179 56.33225828 2.85658422 48.66420948 2.29101562 40.99584961 C2.09819087 38.38964182 1.90419508 35.78352039 1.70898438 33.17749023 C1.42787356 29.42193586 1.15103804 25.66608647 0.875 21.91015625 C0.78750488 20.75354996 0.70000977 19.59694366 0.60986328 18.4052887 C0.16190465 12.24965994 -0.09139238 6.17184157 0 0 Z " fill="#F8F8FB" transform="translate(206,46)"/>
<path d="M0 0 C4.95 0 9.9 0 15 0 C15.11663612 11.5703034 14.87020856 23.06526393 14.20043945 34.61669922 C14.06095247 37.02673812 13.92934435 39.43711638 13.79882812 41.84765625 C13.37093809 49.58833268 12.86237395 57.29301838 12 65 C7.05 64.67 2.1 64.34 -3 64 C-2.53909125 42.60413058 -1.76642592 21.33430916 0 0 Z " fill="#FAFBFC" transform="translate(381,16)"/>
<path d="M0 0 C2.48389991 1.1995059 4.76408375 2.50379878 7.06640625 4.01953125 C7.93265625 4.57640625 8.79890625 5.13328125 9.69140625 5.70703125 C12.02504385 9.63178539 11.8649112 13.59973632 11.06640625 18.01953125 C7.51057488 23.73041194 2.25527184 27.56374479 -3.80859375 30.33203125 C-9.50254875 31.58470135 -14.03954059 32.00163289 -19.30859375 29.26953125 C-23.45083996 25.7190345 -25.60381351 22.87484375 -26.2421875 17.34765625 C-26.63310216 8.0130879 -26.63310216 8.0130879 -23.18359375 3.89453125 C-16.98739892 -2.39554532 -8.14253477 -2.72140643 0 0 Z " fill="#27357F" transform="translate(337.93359375,55.98046875)"/>
<path d="M0 0 C2.98938453 2.802548 3.24189281 4.75487134 3.4375 8.75 C3.41015625 11.4609375 3.41015625 11.4609375 3 13.875 C-3.05047544 19.63735756 -10.66778815 20.31807858 -18.66796875 20.19921875 C-23.56530575 19.72269006 -27.70399534 18.24057163 -32 15.875 C-33.11955078 15.3490625 -33.11955078 15.3490625 -34.26171875 14.8125 C-37.15867672 11.58353112 -36.41742365 7.85055345 -36.25 3.6875 C-36.23195312 2.84251953 -36.21390625 1.99753906 -36.1953125 1.12695312 C-36.14820586 -0.95751573 -36.07646233 -3.04140144 -36 -5.125 C-23.18268843 -7.63940083 -10.86231404 -7.69413911 0 0 Z " fill="#29377D" transform="translate(70,87.125)"/>
<path d="M0 0 C0.7734375 0.4640625 0.7734375 0.4640625 1.5625 0.9375 C2.5525 0.2775 3.5425 -0.3825 4.5625 -1.0625 C7.6293414 -1.60809913 10.49311835 -1.59021825 13.5625 -1.0625 C16.49018666 1.07227152 18.14338145 2.52462238 19.18359375 6.03125 C19.71571591 10.11268185 19.66717724 14.13934144 19.625 18.25 C19.62048828 19.08595703 19.61597656 19.92191406 19.61132812 20.78320312 C19.59960548 22.83466649 19.58167203 24.88609273 19.5625 26.9375 C16.9225 26.9375 14.2825 26.9375 11.5625 26.9375 C11.50191406 25.81730469 11.44132812 24.69710937 11.37890625 23.54296875 C11.29448576 22.07030016 11.20983851 20.59764456 11.125 19.125 C11.08568359 18.38701172 11.04636719 17.64902344 11.00585938 16.88867188 C10.81868965 13.70678658 10.57529207 10.97587622 9.5625 7.9375 C7.5825 8.2675 5.6025 8.5975 3.5625 8.9375 C3.2325 14.8775 2.9025 20.8175 2.5625 26.9375 C-0.0775 26.9375 -2.7175 26.9375 -5.4375 26.9375 C-5.47488281 25.74511719 -5.51226562 24.55273438 -5.55078125 23.32421875 C-5.61644032 21.757781 -5.68288768 20.19137616 -5.75 18.625 C-5.77255859 17.83931641 -5.79511719 17.05363281 -5.81835938 16.24414062 C-5.8715332 15.1081543 -5.8715332 15.1081543 -5.92578125 13.94921875 C-5.95196533 13.25272217 -5.97814941 12.55622559 -6.00512695 11.83862305 C-6.5712097 9.34958502 -7.34320183 8.38419368 -9.4375 6.9375 C-10.7575 7.2675 -12.0775 7.5975 -13.4375 7.9375 C-13.7675 14.2075 -14.0975 20.4775 -14.4375 26.9375 C-17.0775 26.9375 -19.7175 26.9375 -22.4375 26.9375 C-22.4375 17.6975 -22.4375 8.4575 -22.4375 -1.0625 C-19.1375 -1.0625 -15.8375 -1.0625 -12.4375 -1.0625 C-8.05649946 -2.52283351 -4.21293691 -1.83640839 0 0 Z " fill="#27357F" transform="translate(363.4375,123.0625)"/>
<path d="M0 0 C1.010625 -0.02578125 2.02125 -0.0515625 3.0625 -0.078125 C6.43942842 0.29908509 8.28014341 1.24896265 11 3.25 C12.42662219 6.10324437 12.31033868 8.08454549 12 11.25 C8.99990902 17.10732049 2.90295869 19.14946665 -3 21.25 C-9.53690715 22.96837397 -15.16114631 23.25 -22 23.25 C-22 17.97 -22 12.69 -22 7.25 C-20.288125 6.280625 -18.57625 5.31125 -16.8125 4.3125 C-15.36810547 3.49458984 -15.36810547 3.49458984 -13.89453125 2.66015625 C-9.2811761 0.41262425 -5.09027027 0.0779123 0 0 Z " fill="#29367D" transform="translate(54,44.75)"/>
<path d="M0 0 C3.42111478 1.67578996 5.46452082 4.07508141 7.375 7.375 C8.47385082 11.99017345 8.48932865 15.64075374 6.875 20.125 C4.67603883 23.49674046 2.64316334 26.22395787 -1 28 C-5.62519222 28.7856897 -9.58398033 28.57243348 -13.9375 26.8125 C-17.37060979 23.79552473 -18.71154202 21.09201951 -19.875 16.6875 C-20.02807267 12.17185637 -19.24042991 8.91862265 -17 5 C-11.68804186 -0.05283823 -7.18707149 -0.98105731 0 0 Z M-11 9 C-12.44335931 14.53184657 -12.44335931 14.53184657 -10.4375 19.5625 C-8.02282255 21.27405925 -8.02282255 21.27405925 -4.875 20.9375 C-1.70825068 20.23305313 -1.70825068 20.23305313 0 17 C0.47149618 13.30661324 0.48544427 11.65881723 -1.75 8.625 C-5.39692671 5.99110849 -7.38817791 6.59211861 -11 9 Z " fill="#27357F" transform="translate(332,122)"/>
<path d="M0 0 C0.845625 0.495 1.69125 0.99 2.5625 1.5 C1.9025 3.48 1.2425 5.46 0.5625 7.5 C-0.35982422 7.48259766 -0.35982422 7.48259766 -1.30078125 7.46484375 C-2.51314453 7.45130859 -2.51314453 7.45130859 -3.75 7.4375 C-4.55050781 7.42589844 -5.35101563 7.41429687 -6.17578125 7.40234375 C-8.60611334 7.40342145 -8.60611334 7.40342145 -11.4375 8.5 C-12.83181504 11.28863007 -12.69410094 13.42078868 -12.4375 16.5 C-8.75634463 18.95410358 -6.78456402 18.73287843 -2.4375 18.5 C-1.4475 18.17 -0.4575 17.84 0.5625 17.5 C1.2225 19.81 1.8825 22.12 2.5625 24.5 C-2.11551299 27.61867533 -6.96098722 27.08676923 -12.4375 26.5 C-16.89281067 24.38958968 -19.59560959 22.10472604 -21.4375 17.5 C-22.152828 12.73114667 -21.92597963 9.44206786 -19.6875 5.125 C-14.22187066 -1.25156756 -8.058846 -3.51658734 0 0 Z " fill="#27357F" transform="translate(310.4375,123.5)"/>
<path d="M0 0 C2.5 1.5 2.5 1.5 4 4 C4.791013 8.02098277 4.62153384 10.96411027 2.5 14.5 C-1.02309336 16.61385602 -3.99667231 16.9352036 -8 16 C-11.2883921 13.28707652 -11.90851499 11.65183071 -12.5 7.4375 C-12 4 -12 4 -10.5 1.5625 C-6.97441116 -0.64099302 -4.04985528 -0.79669284 0 0 Z " fill="#F8F9FB" transform="translate(217,22)"/>
<path d="M0 0 C2.9375 1.5625 2.9375 1.5625 5 4 C5.6694949 8.09135771 5.38501272 10.24601675 3.5 13.9375 C0.45855278 16.44669396 -1.24113553 16.69047708 -5.09375 16.41015625 C-7 16 -7 16 -9.5 14.5 C-11.61897146 10.9683809 -11.79841448 8.01676563 -11 4 C-8.1553332 -0.55146687 -5.11689336 -0.71816047 0 0 Z " fill="#FAFBFC" transform="translate(387,89)"/>
<path d="M0 0 C3.86665297 2.08204391 6.72595332 4.20992219 9 8 C9 8.66 9 9.32 9 10 C-0.01824887 11.06996173 -8.93664124 11.10234659 -18 11 C-16.22144366 5.92813598 -14.26920948 4.13656207 -10 1 C-6.38069302 -0.20643566 -3.80768995 -0.32268559 0 0 Z " fill="#323D78" transform="translate(132,65)"/>
<path d="M0 0 C2.3125 1.4375 2.3125 1.4375 3.3125 3.3125 C3.3125 5.4375 3.3125 5.4375 2.1875 7.6875 C0.3125 9.4375 0.3125 9.4375 -2.25 9.8125 C-4.6875 9.4375 -4.6875 9.4375 -6.6875 7.4375 C-7.0625 5 -7.0625 5 -6.6875 2.4375 C-4.37196269 -0.22107988 -3.49119722 -0.7307157 0 0 Z " fill="#27357F" transform="translate(286.6875,140.5625)"/>
<path d="M0 0 C-1.875 3.875 -1.875 3.875 -3 5 C-0.36 5.33 2.28 5.66 5 6 C5 6.33 5 6.66 5 7 C1.37 7 -2.26 7 -6 7 C-4.25 0 -4.25 0 0 0 Z " fill="#1D2D84" transform="translate(121,68)"/>
</svg>
