<?xml version="1.0" encoding="UTF-8"?>
<!DOCTYPE svg PUBLIC "-//W3C//DTD SVG 1.1//EN" "http://www.w3.org/Graphics/SVG/1.1/DTD/svg11.dtd">
<svg xmlns="http://www.w3.org/2000/svg" version="1.1" width="204px" height="192px" style="shape-rendering:geometricPrecision; text-rendering:geometricPrecision; image-rendering:optimizeQuality; fill-rule:evenodd; clip-rule:evenodd" xmlns:xlink="http://www.w3.org/1999/xlink">
<g><path style="opacity:1" fill="#3dc71b" d="M -0.5,-0.5 C 67.5,-0.5 135.5,-0.5 203.5,-0.5C 203.5,63.5 203.5,127.5 203.5,191.5C 135.5,191.5 67.5,191.5 -0.5,191.5C -0.5,127.5 -0.5,63.5 -0.5,-0.5 Z"/></g>
<g><path style="opacity:1" fill="#fafdf9" d="M 132.5,41.5 C 138.694,39.9926 143.194,41.9926 146,47.5C 146.667,71.1667 146.667,94.8333 146,118.5C 141.361,126.993 135.694,127.66 129,120.5C 118.697,128.328 108.197,128.495 97.5,121C 84.3852,106.359 83.2185,90.8593 94,74.5C 103.962,64.5941 115.128,62.9274 127.5,69.5C 128.331,61.8549 128.831,54.1883 129,46.5C 129.997,44.6769 131.164,43.0103 132.5,41.5 Z"/></g>
<g><path style="opacity:1" fill="#f3ea36" d="M 154.5,41.5 C 168.439,40.9033 172.439,46.7366 166.5,59C 160.559,62.8709 155.393,62.0376 151,56.5C 148.343,50.586 149.51,45.586 154.5,41.5 Z"/></g>
<g><path style="opacity:1" fill="#fbfdfa" d="M 46.5,65.5 C 63.8572,62.9249 76.0238,69.5915 83,85.5C 86.9702,113.183 75.1369,126.683 47.5,126C 30.6979,120.175 23.1979,108.342 25,90.5C 27.5311,78.062 34.6978,69.7287 46.5,65.5 Z"/></g>
<g><path style="opacity:1" fill="#fcfefc" d="M 156.5,66.5 C 161.126,65.7004 164.96,67.0337 168,70.5C 168.667,87.1667 168.667,103.833 168,120.5C 165.252,124.619 161.419,126.119 156.5,125C 154.43,124.052 152.93,122.552 152,120.5C 151.333,104.167 151.333,87.8333 152,71.5C 153.025,69.313 154.525,67.6464 156.5,66.5 Z"/></g>
<g><path style="opacity:1" fill="#40c721" d="M 49.5,81.5 C 63.8651,81.5341 69.0318,88.5341 65,102.5C 64.2078,104.587 63.0412,106.421 61.5,108C 51.7527,112.358 45.5861,109.524 43,99.5C 42.3333,96.1667 42.3333,92.8333 43,89.5C 45.0007,86.6693 47.1673,84.0026 49.5,81.5 Z"/></g>
<g><path style="opacity:1" fill="#40c721" d="M 111.5,81.5 C 126.189,81.8352 131.356,89.1686 127,103.5C 126.215,105.286 125.049,106.786 123.5,108C 108.826,111.668 102.659,105.834 105,90.5C 106.611,87.0624 108.777,84.0624 111.5,81.5 Z"/></g>
<g><path style="opacity:1" fill="#f1e935" d="M 98.5,131.5 C 102.846,131.334 107.179,131.501 111.5,132C 115.386,135.465 115.386,138.798 111.5,142C 118.393,147.197 118.06,151.864 110.5,156C 106.459,156.827 102.459,156.66 98.5,155.5C 97.1694,147.47 97.1694,139.47 98.5,131.5 Z"/></g>
<g><path style="opacity:1" fill="#efe935" d="M 135.5,141.5 C 136.897,138.169 138.23,134.669 139.5,131C 143.925,130.044 145.592,131.877 144.5,136.5C 146.484,136.383 148.15,137.05 149.5,138.5C 153.67,135.89 157.836,135.89 162,138.5C 162.684,139.784 162.517,140.951 161.5,142C 159.114,141.649 156.781,141.815 154.5,142.5C 157.086,144.043 159.586,145.709 162,147.5C 163.266,151.801 161.766,154.634 157.5,156C 154.623,156.725 151.957,156.225 149.5,154.5C 148.253,152.994 148.253,151.494 149.5,150C 151.677,149.655 153.677,150.155 155.5,151.5C 156.167,151.167 156.833,150.833 157.5,150.5C 155.664,149.081 153.664,147.914 151.5,147C 149.393,145.736 148.393,143.903 148.5,141.5C 147.167,141.5 145.833,141.5 144.5,141.5C 144.666,145.846 144.499,150.179 144,154.5C 142.333,155.833 140.667,155.833 139,154.5C 138.501,150.179 138.334,145.846 138.5,141.5C 137.5,141.5 136.5,141.5 135.5,141.5 Z"/></g>
<g><path style="opacity:1" fill="#44c71b" d="M 103.5,136.5 C 105.167,136.5 106.833,136.5 108.5,136.5C 108.5,137.833 108.5,139.167 108.5,140.5C 106.833,140.5 105.167,140.5 103.5,140.5C 103.5,139.167 103.5,137.833 103.5,136.5 Z"/></g>
<g><path style="opacity:1" fill="#f1e935" d="M 135.5,141.5 C 135.5,143.5 135.5,145.5 135.5,147.5C 131.116,147.174 126.783,147.508 122.5,148.5C 124.021,149.937 125.855,150.604 128,150.5C 130.498,150.083 132.998,149.749 135.5,149.5C 136.026,152.808 134.693,154.974 131.5,156C 120.502,157.333 116.002,152.5 118,141.5C 123.801,134.969 129.635,134.969 135.5,141.5 Z"/></g>
<g><path style="opacity:1" fill="#63cc1f" d="M 125.5,140.5 C 127.912,140.244 129.579,141.244 130.5,143.5C 128.167,144.833 125.833,144.833 123.5,143.5C 124.193,142.482 124.859,141.482 125.5,140.5 Z"/></g>
<g><path style="opacity:1" fill="#4ac81c" d="M 103.5,145.5 C 107.851,144.533 110.185,146.2 110.5,150.5C 108.167,150.5 105.833,150.5 103.5,150.5C 103.5,148.833 103.5,147.167 103.5,145.5 Z"/></g>
</svg>
