<?xml version="1.0" encoding="UTF-8"?>
<!DOCTYPE svg PUBLIC "-//W3C//DTD SVG 1.1//EN" "http://www.w3.org/Graphics/SVG/1.1/DTD/svg11.dtd">
<svg xmlns="http://www.w3.org/2000/svg" version="1.1" width="500px" height="500px" style="shape-rendering:geometricPrecision; text-rendering:geometricPrecision; image-rendering:optimizeQuality; fill-rule:evenodd; clip-rule:evenodd" xmlns:xlink="http://www.w3.org/1999/xlink">
<g><path style="opacity:0.173" fill="#131212" d="M 373.5,89.5 C 373.5,89.8333 373.5,90.1667 373.5,90.5C 371.441,87.8515 368.775,87.0182 365.5,88C 362.603,90.41 359.603,92.5767 356.5,94.5C 359.347,89.9887 363.347,86.9887 368.5,85.5C 370.786,86.1329 372.452,87.4662 373.5,89.5 Z"/></g>
<g><path style="opacity:0.184" fill="#410e42" d="M 388.5,99.5 C 386.057,96.9484 384.39,93.9484 383.5,90.5C 379.633,90.2417 375.966,90.9084 372.5,92.5C 372.833,91.8333 373.167,91.1667 373.5,90.5C 373.5,90.1667 373.5,89.8333 373.5,89.5C 374.117,89.6107 374.617,89.944 375,90.5C 377.633,88.8399 380.466,88.3399 383.5,89C 386.109,92.0508 387.775,95.5508 388.5,99.5 Z"/></g>
<g><path style="opacity:1" fill="#b23eaf" d="M 388.5,99.5 C 388.5,100.833 388.5,102.167 388.5,103.5C 386.461,102.089 385.461,100.089 385.5,97.5C 382.999,98.8264 380.332,99.3264 377.5,99C 376.62,97.6439 376.286,96.1439 376.5,94.5C 374.143,94.3367 371.81,94.5034 369.5,95C 365.719,97.6367 361.885,100.137 358,102.5C 357.86,106.234 358.36,109.901 359.5,113.5C 358.5,112.167 357.5,110.833 356.5,109.5C 355.61,107.218 355.444,104.885 356,102.5C 357.73,100.598 359.563,98.9314 361.5,97.5C 364.91,95.5307 368.576,93.864 372.5,92.5C 375.966,90.9084 379.633,90.2417 383.5,90.5C 384.39,93.9484 386.057,96.9484 388.5,99.5 Z"/></g>
<g><path style="opacity:0.227" fill="#393014" d="M 403.5,94.5 C 401.5,94.5 399.5,94.5 397.5,94.5C 399.5,91.8333 401.5,91.8333 403.5,94.5 Z"/></g>
<g><path style="opacity:0.184" fill="#3d2a0c" d="M 403.5,94.5 C 406.941,95.0965 410.275,95.7632 413.5,96.5C 409.671,97.069 406.337,96.4023 403.5,94.5 Z"/></g>
<g><path style="opacity:0.455" fill="#483219" d="M 397.5,94.5 C 396.833,98.1667 396.167,101.833 395.5,105.5C 394.539,107.265 394.205,109.265 394.5,111.5C 394.167,111.5 393.833,111.5 393.5,111.5C 393.5,110.833 393.5,110.167 393.5,109.5C 393.5,108.5 393.5,107.5 393.5,106.5C 394.235,102.195 395.568,98.1953 397.5,94.5 Z"/></g>
<g><path style="opacity:1" fill="#c8aa5a" d="M 397.5,94.5 C 399.5,94.5 401.5,94.5 403.5,94.5C 406.337,96.4023 409.671,97.069 413.5,96.5C 415.36,97.9387 417.027,99.6053 418.5,101.5C 416.037,100.767 413.703,99.7674 411.5,98.5C 408.103,99.4938 404.77,99.1604 401.5,97.5C 400.558,97.6082 399.725,97.9415 399,98.5C 397.787,100.925 396.621,103.259 395.5,105.5C 396.167,101.833 396.833,98.1667 397.5,94.5 Z"/></g>
<g><path style="opacity:0.173" fill="#52421d" d="M 413.5,96.5 C 416.817,97.3054 419.483,99.1388 421.5,102C 424.187,102.537 426.687,102.037 429,100.5C 429.399,100.728 429.565,101.062 429.5,101.5C 428.5,102.167 427.5,102.833 426.5,103.5C 423.487,103.893 420.82,103.226 418.5,101.5C 417.027,99.6053 415.36,97.9387 413.5,96.5 Z"/></g>
<g><path style="opacity:1" fill="#333133" d="M 373.5,90.5 C 373.167,91.1667 372.833,91.8333 372.5,92.5C 368.576,93.864 364.91,95.5307 361.5,97.5C 353.92,97.7557 351.587,101.422 354.5,108.5C 355.146,110.156 355.813,111.823 356.5,113.5C 356.333,114.167 356.167,114.833 356,115.5C 355.329,114.748 354.496,114.414 353.5,114.5C 343.427,106.266 344.427,99.5992 356.5,94.5C 359.603,92.5767 362.603,90.41 365.5,88C 368.775,87.0182 371.441,87.8515 373.5,90.5 Z"/></g>
<g><path style="opacity:1" fill="#682e66" d="M 361.5,97.5 C 359.563,98.9314 357.73,100.598 356,102.5C 355.444,104.885 355.61,107.218 356.5,109.5C 355.833,109.167 355.167,108.833 354.5,108.5C 351.587,101.422 353.92,97.7557 361.5,97.5 Z"/></g>
<g><path style="opacity:1" fill="#c92cc7" d="M 388.5,103.5 C 389.325,105.81 390.658,107.81 392.5,109.5C 392.5,110.833 392.5,112.167 392.5,113.5C 390.167,113.5 387.833,113.5 385.5,113.5C 385.784,110.223 385.451,107.057 384.5,104C 382.305,102.627 379.971,102.294 377.5,103C 376.748,103.671 376.414,104.504 376.5,105.5C 372.97,106.011 369.804,105.344 367,103.5C 364.522,109.019 365.355,114.019 369.5,118.5C 367.696,119.768 365.696,120.435 363.5,120.5C 363.416,117.318 362.083,114.985 359.5,113.5C 358.36,109.901 357.86,106.234 358,102.5C 361.885,100.137 365.719,97.6367 369.5,95C 371.81,94.5034 374.143,94.3367 376.5,94.5C 376.286,96.1439 376.62,97.6439 377.5,99C 380.332,99.3264 382.999,98.8264 385.5,97.5C 385.461,100.089 386.461,102.089 388.5,103.5 Z"/></g>
<g><path style="opacity:0.686" fill="#621561" d="M 388.5,99.5 C 389.419,102.327 391.086,104.66 393.5,106.5C 393.5,107.5 393.5,108.5 393.5,109.5C 393.167,109.5 392.833,109.5 392.5,109.5C 390.658,107.81 389.325,105.81 388.5,103.5C 388.5,102.167 388.5,100.833 388.5,99.5 Z"/></g>
<g><path style="opacity:0.814" fill="#95834f" d="M 429.5,101.5 C 430.5,101.5 431.5,101.5 432.5,101.5C 433.25,105.775 431.917,109.109 428.5,111.5C 430.046,109.118 430.713,106.451 430.5,103.5C 429.167,103.5 427.833,103.5 426.5,103.5C 427.5,102.833 428.5,102.167 429.5,101.5 Z"/></g>
<g><path style="opacity:1" fill="#e4b952" d="M 418.5,101.5 C 420.82,103.226 423.487,103.893 426.5,103.5C 427.833,103.5 429.167,103.5 430.5,103.5C 430.713,106.451 430.046,109.118 428.5,111.5C 426.738,112.262 425.738,113.596 425.5,115.5C 421.373,118.391 418.706,122.391 417.5,127.5C 415.707,129.426 414.707,131.759 414.5,134.5C 413.532,136.607 413.198,138.941 413.5,141.5C 411.097,141.552 408.764,141.219 406.5,140.5C 406.829,137.772 406.163,135.438 404.5,133.5C 404.076,129.966 403.409,126.466 402.5,123C 402.528,121.93 402.861,121.097 403.5,120.5C 406.992,119.59 409.992,117.924 412.5,115.5C 415.173,115.316 415.84,114.149 414.5,112C 412.19,111.503 409.857,111.337 407.5,111.5C 402.176,106.842 399.51,108.175 399.5,115.5C 398.041,115.567 396.708,115.234 395.5,114.5C 394.89,113.609 394.557,112.609 394.5,111.5C 394.205,109.265 394.539,107.265 395.5,105.5C 396.621,103.259 397.787,100.925 399,98.5C 399.725,97.9415 400.558,97.6082 401.5,97.5C 404.77,99.1604 408.103,99.4938 411.5,98.5C 413.703,99.7674 416.037,100.767 418.5,101.5 Z"/></g>
<g><path style="opacity:1" fill="#b331a7" d="M 376.5,105.5 C 376.389,106.117 376.056,106.617 375.5,107C 372.832,107.567 370.166,108.067 367.5,108.5C 367.338,110.527 367.505,112.527 368,114.5C 368.816,115.823 369.983,116.489 371.5,116.5C 371.5,116.833 371.5,117.167 371.5,117.5C 371.586,118.496 371.252,119.329 370.5,120C 368.235,121.118 365.901,121.951 363.5,122.5C 361.895,119.622 360.561,116.622 359.5,113.5C 362.083,114.985 363.416,117.318 363.5,120.5C 365.696,120.435 367.696,119.768 369.5,118.5C 365.355,114.019 364.522,109.019 367,103.5C 369.804,105.344 372.97,106.011 376.5,105.5 Z"/></g>
<g><path style="opacity:0.945" fill="#922891" d="M 385.5,113.5 C 385.167,113.5 384.833,113.5 384.5,113.5C 386.589,105.607 383.923,102.94 376.5,105.5C 376.414,104.504 376.748,103.671 377.5,103C 379.971,102.294 382.305,102.627 384.5,104C 385.451,107.057 385.784,110.223 385.5,113.5 Z"/></g>
<g><path style="opacity:0.094" fill="#460d44" d="M 384.5,113.5 C 384.167,113.5 383.833,113.5 383.5,113.5C 383.5,112.833 383.5,112.167 383.5,111.5C 384.169,107.27 382.502,105.437 378.5,106C 375.686,107.831 372.852,109.665 370,111.5C 369.7,113.066 370.2,114.399 371.5,115.5C 371.5,115.833 371.5,116.167 371.5,116.5C 369.983,116.489 368.816,115.823 368,114.5C 367.505,112.527 367.338,110.527 367.5,108.5C 370.166,108.067 372.832,107.567 375.5,107C 376.056,106.617 376.389,106.117 376.5,105.5C 383.923,102.94 386.589,105.607 384.5,113.5 Z"/></g>
<g><path style="opacity:0.196" fill="#594317" d="M 407.5,111.5 C 405.565,110.85 403.565,110.517 401.5,110.5C 401.371,112.216 401.038,113.883 400.5,115.5C 400.167,115.5 399.833,115.5 399.5,115.5C 399.51,108.175 402.176,106.842 407.5,111.5 Z"/></g>
<g><path style="opacity:0.58" fill="#6d5325" d="M 407.5,111.5 C 409.857,111.337 412.19,111.503 414.5,112C 415.84,114.149 415.173,115.316 412.5,115.5C 412.611,114.883 412.944,114.383 413.5,114C 411.389,113.155 409.389,112.322 407.5,111.5 Z"/></g>
<g><path style="opacity:0.2" fill="#420a0e" d="M 383.5,111.5 C 383.5,112.167 383.5,112.833 383.5,113.5C 383.5,114.167 383.167,114.5 382.5,114.5C 378.838,114.723 375.505,115.723 372.5,117.5C 372.167,117.5 371.833,117.5 371.5,117.5C 371.5,117.167 371.5,116.833 371.5,116.5C 371.5,116.167 371.5,115.833 371.5,115.5C 375.766,114.772 379.766,113.438 383.5,111.5 Z"/></g>
<g><path style="opacity:0.043" fill="#3c2c13" d="M 428.5,111.5 C 428.262,113.404 427.262,114.738 425.5,115.5C 425.738,113.596 426.738,112.262 428.5,111.5 Z"/></g>
<g><path style="opacity:0.278" fill="#3b232d" d="M 354.5,108.5 C 355.167,108.833 355.833,109.167 356.5,109.5C 357.5,110.833 358.5,112.167 359.5,113.5C 360.561,116.622 361.895,119.622 363.5,122.5C 362.66,124.853 361.326,126.853 359.5,128.5C 359.877,126.742 360.544,125.075 361.5,123.5C 358.811,120.48 356.144,117.48 353.5,114.5C 354.496,114.414 355.329,114.748 356,115.5C 356.167,114.833 356.333,114.167 356.5,113.5C 355.813,111.823 355.146,110.156 354.5,108.5 Z"/></g>
<g><path style="opacity:1" fill="#d32163" d="M 392.5,109.5 C 392.833,109.5 393.167,109.5 393.5,109.5C 393.5,110.167 393.5,110.833 393.5,111.5C 393.5,112.833 393.5,114.167 393.5,115.5C 390.167,115.5 386.833,115.5 383.5,115.5C 383.167,115.5 382.833,115.5 382.5,115.5C 382.5,115.167 382.5,114.833 382.5,114.5C 383.167,114.5 383.5,114.167 383.5,113.5C 383.833,113.5 384.167,113.5 384.5,113.5C 384.833,113.5 385.167,113.5 385.5,113.5C 387.833,113.5 390.167,113.5 392.5,113.5C 392.5,112.167 392.5,110.833 392.5,109.5 Z"/></g>
<g><path style="opacity:0.953" fill="#983438" d="M 382.5,114.5 C 382.5,114.833 382.5,115.167 382.5,115.5C 380.716,115.893 379.05,116.559 377.5,117.5C 375.833,117.5 374.167,117.5 372.5,117.5C 375.505,115.723 378.838,114.723 382.5,114.5 Z"/></g>
<g><path style="opacity:0.561" fill="#6c562c" d="M 412.5,115.5 C 409.992,117.924 406.992,119.59 403.5,120.5C 403.5,120.167 403.5,119.833 403.5,119.5C 406.088,117.408 409.088,116.075 412.5,115.5 Z"/></g>
<g><path style="opacity:1" fill="#c82f47" d="M 371.5,117.5 C 371.833,117.5 372.167,117.5 372.5,117.5C 374.167,117.5 375.833,117.5 377.5,117.5C 375.919,119.303 373.919,120.636 371.5,121.5C 370.599,122.29 369.932,123.29 369.5,124.5C 366.5,124.167 365.167,125.5 365.5,128.5C 361.746,127.58 360.08,129.247 360.5,133.5C 359.549,132.081 359.216,130.415 359.5,128.5C 361.326,126.853 362.66,124.853 363.5,122.5C 365.901,121.951 368.235,121.118 370.5,120C 371.252,119.329 371.586,118.496 371.5,117.5 Z"/></g>
<g><path style="opacity:1" fill="#f1807c" d="M 382.5,115.5 C 382.833,115.5 383.167,115.5 383.5,115.5C 382.555,117.779 380.888,119.446 378.5,120.5C 380.718,121.057 383.051,121.057 385.5,120.5C 385.746,117.53 387.412,116.197 390.5,116.5C 390.5,117.5 390.5,118.5 390.5,119.5C 387.612,119.22 386.112,120.553 386,123.5C 385.329,124.252 384.496,124.586 383.5,124.5C 381.549,124.773 380.049,124.107 379,122.5C 378,125.167 377,125.167 376,122.5C 373.955,124.043 372.455,123.71 371.5,121.5C 373.919,120.636 375.919,119.303 377.5,117.5C 379.05,116.559 380.716,115.893 382.5,115.5 Z"/></g>
<g><path style="opacity:1" fill="#eb5b59" d="M 371.5,121.5 C 372.455,123.71 373.955,124.043 376,122.5C 377,125.167 378,125.167 379,122.5C 380.049,124.107 381.549,124.773 383.5,124.5C 382.075,125.922 381.075,127.589 380.5,129.5C 376.05,131.881 371.383,132.047 366.5,130C 365.944,129.617 365.611,129.117 365.5,128.5C 367.5,128.167 369.5,127.833 371.5,127.5C 371.715,125.821 371.048,124.821 369.5,124.5C 369.932,123.29 370.599,122.29 371.5,121.5 Z"/></g>
<g><path style="opacity:1" fill="#e43638" d="M 393.5,111.5 C 393.833,111.5 394.167,111.5 394.5,111.5C 394.557,112.609 394.89,113.609 395.5,114.5C 395.5,115.167 395.5,115.833 395.5,116.5C 394.5,116.5 393.5,116.5 392.5,116.5C 392.684,119.321 391.351,120.988 388.5,121.5C 387.221,124.769 385.221,127.436 382.5,129.5C 381.833,129.5 381.167,129.5 380.5,129.5C 381.075,127.589 382.075,125.922 383.5,124.5C 384.496,124.586 385.329,124.252 386,123.5C 386.112,120.553 387.612,119.22 390.5,119.5C 390.5,118.5 390.5,117.5 390.5,116.5C 387.412,116.197 385.746,117.53 385.5,120.5C 383.051,121.057 380.718,121.057 378.5,120.5C 380.888,119.446 382.555,117.779 383.5,115.5C 386.833,115.5 390.167,115.5 393.5,115.5C 393.5,114.167 393.5,112.833 393.5,111.5 Z"/></g>
<g><path style="opacity:0.137" fill="#5d4c1c" d="M 425.5,115.5 C 422.82,119.537 420.154,123.537 417.5,127.5C 418.706,122.391 421.373,118.391 425.5,115.5 Z"/></g>
<g><path style="opacity:1" fill="#fba09d" d="M 369.5,124.5 C 371.048,124.821 371.715,125.821 371.5,127.5C 369.5,127.833 367.5,128.167 365.5,128.5C 365.167,125.5 366.5,124.167 369.5,124.5 Z"/></g>
<g><path style="opacity:1" fill="#f49493" d="M 374.5,125.5 C 376.167,125.5 377.833,125.5 379.5,125.5C 379.143,129.395 377.143,130.395 373.5,128.5C 374.127,127.583 374.461,126.583 374.5,125.5 Z"/></g>
<g><path style="opacity:1" fill="#a1211b" d="M 395.5,114.5 C 396.708,115.234 398.041,115.567 399.5,115.5C 399.833,115.5 400.167,115.5 400.5,115.5C 400.088,117.973 401.088,119.306 403.5,119.5C 403.5,119.833 403.5,120.167 403.5,120.5C 402.861,121.097 402.528,121.93 402.5,123C 403.409,126.466 404.076,129.966 404.5,133.5C 403.145,130.232 401.312,129.898 399,132.5C 398.153,136.318 396.986,139.984 395.5,143.5C 396.309,145.071 396.643,146.738 396.5,148.5C 397.552,148.649 398.552,148.483 399.5,148C 401.189,145.747 403.189,143.914 405.5,142.5C 405.5,143.5 405.5,144.5 405.5,145.5C 405.5,145.833 405.5,146.167 405.5,146.5C 401.188,148.289 397.521,151.123 394.5,155C 390.909,157.805 386.909,158.805 382.5,158C 379.598,157.081 379.265,156.248 381.5,155.5C 384.167,156.833 386.833,156.833 389.5,155.5C 390.497,155.53 391.164,155.03 391.5,154C 390.571,152.923 389.904,151.756 389.5,150.5C 388.378,148.712 388.211,146.712 389,144.5C 390.892,142.113 392.058,139.447 392.5,136.5C 392.752,130.87 394.085,125.537 396.5,120.5C 396.154,119.151 395.821,117.817 395.5,116.5C 395.5,115.833 395.5,115.167 395.5,114.5 Z"/></g>
<g><path style="opacity:1" fill="#fabfba" d="M 395.5,125.5 C 396.5,125.5 397.5,125.5 398.5,125.5C 398.662,127.527 398.495,129.527 398,131.5C 395.605,132.798 394.438,131.965 394.5,129C 394.648,127.744 394.982,126.577 395.5,125.5 Z"/></g>
<g><path style="opacity:0.345" fill="#8f8f8f" d="M 332.5,133.5 C 335.976,132.357 339.642,132.19 343.5,133C 346.106,133.792 348.106,135.292 349.5,137.5C 346.659,136.776 343.992,135.61 341.5,134C 338.518,133.502 335.518,133.335 332.5,133.5 Z"/></g>
<g><path style="opacity:1" fill="#f9f9f9" d="M 332.5,133.5 C 335.518,133.335 338.518,133.502 341.5,134C 343.992,135.61 346.659,136.776 349.5,137.5C 350.08,139.749 351.413,141.415 353.5,142.5C 353.261,146.842 352.927,151.176 352.5,155.5C 351.127,155.343 349.793,155.51 348.5,156C 349.684,157.145 349.684,158.312 348.5,159.5C 348.158,160.338 347.492,160.672 346.5,160.5C 344.447,160.402 342.78,161.069 341.5,162.5C 338.15,162.335 334.817,162.502 331.5,163C 329.026,163.037 327.026,163.87 325.5,165.5C 321.878,165.322 318.544,165.989 315.5,167.5C 312.794,167.575 310.127,167.908 307.5,168.5C 304.813,168.336 302.146,168.503 299.5,169C 299.833,169.333 300.167,169.667 300.5,170C 299.244,170.417 298.577,171.25 298.5,172.5C 298.167,172.5 297.833,172.5 297.5,172.5C 293.085,172.861 289.085,174.194 285.5,176.5C 281.686,176.366 278.686,177.7 276.5,180.5C 274.302,180.12 272.635,180.787 271.5,182.5C 271.158,183.338 270.492,183.672 269.5,183.5C 266.894,184.136 264.394,184.136 262,183.5C 260.148,184.695 258.981,186.362 258.5,188.5C 258.158,189.338 257.492,189.672 256.5,189.5C 253.386,189.555 251.052,190.888 249.5,193.5C 248.486,194.674 247.153,195.34 245.5,195.5C 243.326,195.75 241.659,196.75 240.5,198.5C 238.54,199.138 236.707,199.138 235,198.5C 233.88,200.03 233.046,201.697 232.5,203.5C 229.655,205.023 226.655,206.023 223.5,206.5C 223.5,207.5 223.5,208.5 223.5,209.5C 223.5,210.167 223.167,210.5 222.5,210.5C 220.973,210.427 219.973,211.094 219.5,212.5C 217.596,212.738 216.262,213.738 215.5,215.5C 213.596,215.738 212.262,216.738 211.5,218.5C 209.251,219.08 207.585,220.413 206.5,222.5C 206.5,223.167 206.167,223.5 205.5,223.5C 201.428,225.208 198.095,227.874 195.5,231.5C 195.5,232.167 195.167,232.5 194.5,232.5C 191.911,233.419 189.911,235.086 188.5,237.5C 188.167,238.5 187.5,239.167 186.5,239.5C 184.251,240.08 182.585,241.413 181.5,243.5C 180.833,244.833 179.833,245.833 178.5,246.5C 176.906,246.92 175.406,247.586 174,248.5C 173.228,248.355 172.561,248.022 172,247.5C 171.805,248.819 171.972,250.153 172.5,251.5C 171.167,252.5 169.833,253.5 168.5,254.5C 167.175,253.047 166.342,253.381 166,255.5C 165.333,254.167 164.667,254.167 164,255.5C 163.342,253.892 163.842,252.725 165.5,252C 163.027,251.78 161.36,250.614 160.5,248.5C 161.6,247.395 162.267,246.062 162.5,244.5C 164.587,243.415 165.92,241.749 166.5,239.5C 168.914,238.089 170.581,236.089 171.5,233.5C 178.225,227.777 184.225,221.444 189.5,214.5C 194.44,211.23 198.773,207.23 202.5,202.5C 202.5,201.833 202.833,201.5 203.5,201.5C 207.363,200.306 210.363,197.973 212.5,194.5C 215.089,193.581 217.089,191.914 218.5,189.5C 220.404,189.262 221.738,188.262 222.5,186.5C 225.674,185.99 228.008,184.323 229.5,181.5C 231.027,181.573 232.027,180.906 232.5,179.5C 234.027,179.573 235.027,178.906 235.5,177.5C 236.899,176.11 238.566,175.11 240.5,174.5C 242.027,174.573 243.027,173.906 243.5,172.5C 247.731,171.78 251.064,169.78 253.5,166.5C 253.833,166.5 254.167,166.5 254.5,166.5C 259.671,165.42 264.004,163.086 267.5,159.5C 268.514,158.326 269.847,157.66 271.5,157.5C 275.836,157.163 279.503,155.496 282.5,152.5C 290.397,150.651 297.73,147.651 304.5,143.5C 308.044,143.868 311.044,142.868 313.5,140.5C 315.898,140.741 317.898,140.074 319.5,138.5C 324.272,137.801 328.605,136.134 332.5,133.5 Z"/></g>
<g><path style="opacity:0.125" fill="#493c14" d="M 417.5,127.5 C 416.173,132.538 415.173,137.538 414.5,142.5C 414.5,139.833 414.5,137.167 414.5,134.5C 414.707,131.759 415.707,129.426 417.5,127.5 Z"/></g>
<g><path style="opacity:1" fill="#c40606" d="M 395.5,116.5 C 395.821,117.817 396.154,119.151 396.5,120.5C 394.085,125.537 392.752,130.87 392.5,136.5C 392.058,139.447 390.892,142.113 389,144.5C 388.211,146.712 388.378,148.712 389.5,150.5C 389.904,151.756 390.571,152.923 391.5,154C 391.164,155.03 390.497,155.53 389.5,155.5C 388.127,155.657 386.793,155.49 385.5,155C 384.778,153.249 383.778,151.749 382.5,150.5C 383.239,150.631 383.906,150.464 384.5,150C 381.404,143.443 380.737,136.609 382.5,129.5C 385.221,127.436 387.221,124.769 388.5,121.5C 391.351,120.988 392.684,119.321 392.5,116.5C 393.5,116.5 394.5,116.5 395.5,116.5 Z"/></g>
<g><path style="opacity:0.647" fill="#828282" d="M 332.5,133.5 C 328.605,136.134 324.272,137.801 319.5,138.5C 323.444,136.036 327.777,134.37 332.5,133.5 Z"/></g>
<g><path style="opacity:1" fill="#f8b2ac" d="M 365.5,135.5 C 366.5,136.167 367.5,136.833 368.5,137.5C 368.768,139.099 368.434,140.432 367.5,141.5C 365.57,140.237 363.903,138.57 362.5,136.5C 363.325,135.614 364.325,135.281 365.5,135.5 Z"/></g>
<g><path style="opacity:1" fill="#da1c1c" d="M 365.5,128.5 C 365.611,129.117 365.944,129.617 366.5,130C 371.383,132.047 376.05,131.881 380.5,129.5C 381.167,129.5 381.833,129.5 382.5,129.5C 380.737,136.609 381.404,143.443 384.5,150C 383.906,150.464 383.239,150.631 382.5,150.5C 380.515,147.312 377.515,145.812 373.5,146C 371.424,143.303 369.757,140.47 368.5,137.5C 367.5,136.833 366.5,136.167 365.5,135.5C 364.081,134.549 362.415,134.216 360.5,134.5C 360.5,134.167 360.5,133.833 360.5,133.5C 360.08,129.247 361.746,127.58 365.5,128.5 Z"/></g>
<g><path style="opacity:0.733" fill="#a4a4a3" d="M 349.5,137.5 C 351.587,138.585 352.92,140.251 353.5,142.5C 351.413,141.415 350.08,139.749 349.5,137.5 Z"/></g>
<g><path style="opacity:1" fill="#f9cbc3" d="M 392.5,136.5 C 393.708,135.766 395.041,135.433 396.5,135.5C 396.949,137.977 396.283,139.977 394.5,141.5C 392.783,140.332 392.116,138.665 392.5,136.5 Z"/></g>
<g><path style="opacity:0.624" fill="#888888" d="M 319.5,138.5 C 317.898,140.074 315.898,140.741 313.5,140.5C 315.102,138.926 317.102,138.259 319.5,138.5 Z"/></g>
<g><path style="opacity:0.725" fill="#9b7c49" d="M 414.5,134.5 C 414.5,137.167 414.5,139.833 414.5,142.5C 413.081,143.451 411.415,143.784 409.5,143.5C 408.71,142.599 407.71,141.932 406.5,141.5C 406.5,141.167 406.5,140.833 406.5,140.5C 408.764,141.219 411.097,141.552 413.5,141.5C 413.198,138.941 413.532,136.607 414.5,134.5 Z"/></g>
<g><path style="opacity:0.741" fill="#808080" d="M 313.5,140.5 C 311.044,142.868 308.044,143.868 304.5,143.5C 307.215,141.928 310.215,140.928 313.5,140.5 Z"/></g>
<g><path style="opacity:1" fill="#9f2327" d="M 360.5,134.5 C 362.415,134.216 364.081,134.549 365.5,135.5C 364.325,135.281 363.325,135.614 362.5,136.5C 363.903,138.57 365.57,140.237 367.5,141.5C 367.236,147.682 369.903,151.682 375.5,153.5C 375.216,151.585 375.549,149.919 376.5,148.5C 376.5,149.5 376.5,150.5 376.5,151.5C 376.414,152.496 376.748,153.329 377.5,154C 376.5,154.167 375.5,154.333 374.5,154.5C 371.954,153.943 369.621,152.943 367.5,151.5C 364.672,146.016 362.339,140.349 360.5,134.5 Z"/></g>
<g><path style="opacity:0.427" fill="#4a1610" d="M 406.5,141.5 C 407.71,141.932 408.71,142.599 409.5,143.5C 407.801,143.527 406.467,144.194 405.5,145.5C 405.5,144.5 405.5,143.5 405.5,142.5C 405.5,141.833 405.833,141.5 406.5,141.5 Z"/></g>
<g><path style="opacity:1" fill="#b60905" d="M 404.5,133.5 C 406.163,135.438 406.829,137.772 406.5,140.5C 406.5,140.833 406.5,141.167 406.5,141.5C 405.833,141.5 405.5,141.833 405.5,142.5C 403.189,143.914 401.189,145.747 399.5,148C 398.552,148.483 397.552,148.649 396.5,148.5C 396.643,146.738 396.309,145.071 395.5,143.5C 396.986,139.984 398.153,136.318 399,132.5C 401.312,129.898 403.145,130.232 404.5,133.5 Z"/></g>
<g><path style="opacity:0.306" fill="#480908" d="M 359.5,128.5 C 359.216,130.415 359.549,132.081 360.5,133.5C 360.5,133.833 360.5,134.167 360.5,134.5C 362.339,140.349 364.672,146.016 367.5,151.5C 362.514,146.022 359.514,139.522 358.5,132C 358.514,130.615 358.848,129.449 359.5,128.5 Z"/></g>
<g><path style="opacity:1" fill="#b31a1c" d="M 368.5,137.5 C 369.757,140.47 371.424,143.303 373.5,146C 377.515,145.812 380.515,147.312 382.5,150.5C 383.778,151.749 384.778,153.249 385.5,155C 386.793,155.49 388.127,155.657 389.5,155.5C 386.833,156.833 384.167,156.833 381.5,155.5C 381.5,155.167 381.5,154.833 381.5,154.5C 381.676,150.808 380.009,148.808 376.5,148.5C 375.549,149.919 375.216,151.585 375.5,153.5C 369.903,151.682 367.236,147.682 367.5,141.5C 368.434,140.432 368.768,139.099 368.5,137.5 Z"/></g>
<g><path style="opacity:0.922" fill="#b1b2b1" d="M 353.5,142.5 C 356.186,147.113 356.019,151.78 353,156.5C 351.871,158.141 350.371,159.141 348.5,159.5C 349.684,158.312 349.684,157.145 348.5,156C 349.793,155.51 351.127,155.343 352.5,155.5C 352.927,151.176 353.261,146.842 353.5,142.5 Z"/></g>
<g><path style="opacity:1" fill="#f7b8b1" d="M 389.5,150.5 C 388.425,146.062 390.092,144.062 394.5,144.5C 395.406,149.241 393.74,151.241 389.5,150.5 Z"/></g>
<g><path style="opacity:0.592" fill="#7c7c7c" d="M 304.5,143.5 C 297.73,147.651 290.397,150.651 282.5,152.5C 289.538,148.988 296.871,145.988 304.5,143.5 Z"/></g>
<g><path style="opacity:1" fill="#f9aea4" d="M 376.5,148.5 C 380.009,148.808 381.676,150.808 381.5,154.5C 379.589,153.925 377.922,152.925 376.5,151.5C 376.5,150.5 376.5,149.5 376.5,148.5 Z"/></g>
<g><path style="opacity:1" fill="#7a3132" d="M 405.5,146.5 C 400.779,153.732 394.279,158.399 386,160.5C 378.646,159.739 372.48,156.739 367.5,151.5C 369.621,152.943 371.954,153.943 374.5,154.5C 375.5,154.333 376.5,154.167 377.5,154C 376.748,153.329 376.414,152.496 376.5,151.5C 377.922,152.925 379.589,153.925 381.5,154.5C 381.5,154.833 381.5,155.167 381.5,155.5C 379.265,156.248 379.598,157.081 382.5,158C 386.909,158.805 390.909,157.805 394.5,155C 397.521,151.123 401.188,148.289 405.5,146.5 Z"/></g>
<g><path style="opacity:0.725" fill="#858585" d="M 282.5,152.5 C 279.503,155.496 275.836,157.163 271.5,157.5C 274.74,155.049 278.407,153.382 282.5,152.5 Z"/></g>
<g><path style="opacity:0.141" fill="#6d6d6d" d="M 346.5,160.5 C 345.22,161.931 343.553,162.598 341.5,162.5C 342.78,161.069 344.447,160.402 346.5,160.5 Z"/></g>
<g><path style="opacity:0.769" fill="#929292" d="M 341.5,162.5 C 336.43,164.23 331.097,165.23 325.5,165.5C 327.026,163.87 329.026,163.037 331.5,163C 334.817,162.502 338.15,162.335 341.5,162.5 Z"/></g>
<g><path style="opacity:0.792" fill="#939393" d="M 267.5,159.5 C 264.004,163.086 259.671,165.42 254.5,166.5C 258.347,163.407 262.68,161.074 267.5,159.5 Z"/></g>
<g><path style="opacity:0.037" fill="#515151" d="M 325.5,165.5 C 322.411,166.785 319.078,167.451 315.5,167.5C 318.544,165.989 321.878,165.322 325.5,165.5 Z"/></g>
<g><path style="opacity:0.976" fill="#afafaf" d="M 307.5,168.5 C 307.5,168.833 307.5,169.167 307.5,169.5C 304.746,170.946 301.746,171.946 298.5,172.5C 298.577,171.25 299.244,170.417 300.5,170C 300.167,169.667 299.833,169.333 299.5,169C 302.146,168.503 304.813,168.336 307.5,168.5 Z"/></g>
<g><path style="opacity:0.031" fill="#5c5c5c" d="M 315.5,167.5 C 313.095,168.768 310.428,169.435 307.5,169.5C 307.5,169.167 307.5,168.833 307.5,168.5C 310.127,167.908 312.794,167.575 315.5,167.5 Z"/></g>
<g><path style="opacity:0.702" fill="#7e6a34" d="M 387.5,172.5 C 383.188,170.804 378.688,169.804 374,169.5C 371.179,169.408 368.679,170.074 366.5,171.5C 365.167,171.5 363.833,171.5 362.5,171.5C 363.058,170.21 364.058,169.377 365.5,169C 371.182,167.064 376.848,167.064 382.5,169C 384.584,169.697 386.251,170.864 387.5,172.5 Z"/></g>
<g><path style="opacity:0.745" fill="#727272" d="M 253.5,166.5 C 251.064,169.78 247.731,171.78 243.5,172.5C 246.494,170 249.827,168 253.5,166.5 Z"/></g>
<g><path style="opacity:0.212" fill="#432f16" d="M 362.5,171.5 C 361.5,173.167 360.167,174.5 358.5,175.5C 358.833,173.167 360.167,171.833 362.5,171.5 Z"/></g>
<g><path style="opacity:0.065" fill="#31031b" d="M 136.5,174.5 C 146.325,173.342 156.325,173.175 166.5,174C 167.574,174.739 168.241,175.739 168.5,177C 168.333,181.665 168.333,186.498 168.5,191.5C 168.167,191.5 167.833,191.5 167.5,191.5C 167.473,185.949 166.806,180.616 165.5,175.5C 156.014,174.506 146.348,174.173 136.5,174.5 Z"/></g>
<g><path style="opacity:0.396" fill="#686868" d="M 243.5,172.5 C 243.027,173.906 242.027,174.573 240.5,174.5C 240.973,173.094 241.973,172.427 243.5,172.5 Z"/></g>
<g><path style="opacity:0.059" fill="#575858" d="M 297.5,172.5 C 293.767,174.411 289.767,175.744 285.5,176.5C 289.085,174.194 293.085,172.861 297.5,172.5 Z"/></g>
<g><path style="opacity:1" fill="#eabd4d" d="M 387.5,172.5 C 387.5,173.167 387.5,173.833 387.5,174.5C 384.036,192.466 381.036,210.466 378.5,228.5C 374.463,231.778 373.13,235.944 374.5,241C 374.066,243.634 373.233,246.134 372,248.5C 371.786,256.949 370.953,265.283 369.5,273.5C 369.5,274.5 369.5,275.5 369.5,276.5C 368.883,276.611 368.383,276.944 368,277.5C 366.343,284.753 365.177,292.086 364.5,299.5C 364.037,302.482 363.704,305.482 363.5,308.5C 354.161,308.666 344.827,308.5 335.5,308C 334.756,306.961 333.756,306.461 332.5,306.5C 330.847,303.193 329.18,299.86 327.5,296.5C 326.978,293.432 326.145,290.432 325,287.5C 318.976,274.431 313.143,261.265 307.5,248C 306.767,246.234 306.433,244.401 306.5,242.5C 305.5,242.5 304.5,242.5 303.5,242.5C 301.483,240.04 299.65,240.373 298,243.5C 293.402,263.988 289.236,284.655 285.5,305.5C 284.5,306 283.5,306.5 282.5,307C 273.657,307.824 264.99,307.657 256.5,306.5C 257.5,306.5 258.5,306.5 259.5,306.5C 260.732,295.182 261.898,283.849 263,272.5C 264,271.167 265,269.833 266,268.5C 266.333,265.167 266.667,261.833 267,258.5C 267.333,258.833 267.667,259.167 268,259.5C 269,257.833 270,256.167 271,254.5C 272,255.833 273,255.833 274,254.5C 274.296,251.294 274.796,248.128 275.5,245C 275.05,243.715 274.383,242.548 273.5,241.5C 275.151,239.598 275.484,237.598 274.5,235.5C 275.729,234.719 277.062,234.219 278.5,234C 279.833,233.333 279.833,232.667 278.5,232C 279.635,231.251 280.635,231.417 281.5,232.5C 280.016,235.439 278.683,238.439 277.5,241.5C 277.881,243.707 279.214,245.04 281.5,245.5C 282.996,242.509 284.496,239.509 286,236.5C 288.101,235.076 290.267,233.742 292.5,232.5C 291.572,231.232 291.405,229.899 292,228.5C 294.519,226.69 297.019,225.023 299.5,223.5C 299.325,220.671 300.658,219.004 303.5,218.5C 305.749,216.755 307.416,214.588 308.5,212C 309.448,211.517 310.448,211.351 311.5,211.5C 311.5,210.167 311.5,208.833 311.5,207.5C 312.833,207.5 314.167,207.5 315.5,207.5C 315.5,205.5 315.5,203.5 315.5,201.5C 317.144,201.714 318.644,201.38 320,200.5C 321.076,202.067 321.909,203.734 322.5,205.5C 319.924,209.255 320.924,210.255 325.5,208.5C 327.916,213.001 330.583,217.334 333.5,221.5C 333.166,224.491 334.166,226.824 336.5,228.5C 336.502,232.165 337.835,235.165 340.5,237.5C 340.5,238.833 340.5,240.167 340.5,241.5C 341.959,241.567 343.292,241.234 344.5,240.5C 346.097,239.263 347.263,237.596 348,235.5C 351.03,216.641 354.697,197.974 359,179.5C 361.275,176.613 363.775,173.946 366.5,171.5C 368.679,170.074 371.179,169.408 374,169.5C 378.688,169.804 383.188,170.804 387.5,172.5 Z"/></g>
<g><path style="opacity:0.541" fill="#584520" d="M 387.5,172.5 C 389.672,173.661 391.006,175.495 391.5,178C 390.338,183.671 389.004,189.171 387.5,194.5C 387.905,189.473 388.572,184.473 389.5,179.5C 389.333,178.167 389.167,176.833 389,175.5C 388.617,174.944 388.117,174.611 387.5,174.5C 387.5,173.833 387.5,173.167 387.5,172.5 Z"/></g>
<g><path style="opacity:0.254" fill="#42071c" d="M 203.5,175.5 C 210.321,174.345 217.321,174.179 224.5,175C 226.851,176.854 226.517,178.354 223.5,179.5C 224.684,178.312 224.684,177.145 223.5,176C 216.842,175.5 210.175,175.334 203.5,175.5 Z"/></g>
<g><path style="opacity:0.701" fill="#8d1335" d="M 99.5,191.5 C 99.1667,191.5 98.8333,191.5 98.5,191.5C 98.8168,187.298 98.4834,183.298 97.5,179.5C 97.3893,178.883 97.056,178.383 96.5,178C 91.5111,177.501 86.5111,177.334 81.5,177.5C 76.1667,177.5 70.8333,177.5 65.5,177.5C 65.2743,184.876 65.6076,192.209 66.5,199.5C 66.5,201.833 66.5,204.167 66.5,206.5C 65.6862,204.369 65.1862,202.036 65,199.5C 64.5003,191.841 64.3336,184.174 64.5,176.5C 75.505,176.333 86.505,176.5 97.5,177C 98,177.5 98.5,178 99,178.5C 99.499,182.821 99.6657,187.154 99.5,191.5 Z"/></g>
<g><path style="opacity:1" fill="#9a1b50" d="M 203.5,176.5 C 203.5,176.167 203.5,175.833 203.5,175.5C 210.175,175.334 216.842,175.5 223.5,176C 224.684,177.145 224.684,178.312 223.5,179.5C 221.781,182.219 219.447,184.219 216.5,185.5C 217.75,182.994 218.416,180.327 218.5,177.5C 213.482,177.387 208.482,177.053 203.5,176.5 Z"/></g>
<g><path style="opacity:0.776" fill="#838385" d="M 285.5,176.5 C 282.744,178.204 279.744,179.537 276.5,180.5C 278.686,177.7 281.686,176.366 285.5,176.5 Z"/></g>
<g><path style="opacity:0.341" fill="#5f5d5d" d="M 235.5,177.5 C 235.027,178.906 234.027,179.573 232.5,179.5C 232.973,178.094 233.973,177.427 235.5,177.5 Z"/></g>
<g><path style="opacity:0.427" fill="#5a4b27" d="M 312.5,176.5 C 309.813,176.336 307.146,176.503 304.5,177C 300.991,178.759 297.325,179.926 293.5,180.5C 299.312,176.218 305.646,174.885 312.5,176.5 Z"/></g>
<g><path style="opacity:0.827" fill="#786232" d="M 312.5,176.5 C 317.59,185.416 321.923,194.749 325.5,204.5C 321.172,196.536 316.839,188.536 312.5,180.5C 312.5,179.167 312.5,177.833 312.5,176.5 Z"/></g>
<g><path style="opacity:0.467" fill="#5b051b" d="M 100.5,198.5 C 99.5318,196.393 99.1984,194.059 99.5,191.5C 99.6657,187.154 99.499,182.821 99,178.5C 98.5,178 98,177.5 97.5,177C 86.505,176.5 75.505,176.333 64.5,176.5C 64.3336,184.174 64.5003,191.841 65,199.5C 65.1862,202.036 65.6862,204.369 66.5,206.5C 66.5,206.833 66.5,207.167 66.5,207.5C 66.824,214.354 66.4907,221.021 65.5,227.5C 64.9219,211.807 63.9219,196.14 62.5,180.5C 62.4858,178.407 63.1524,176.574 64.5,175C 75.803,175.217 87.1364,175.551 98.5,176C 99,176.5 99.5,177 100,177.5C 100.5,184.492 100.666,191.492 100.5,198.5 Z"/></g>
<g><path style="opacity:0.361" fill="#545654" d="M 232.5,179.5 C 232.027,180.906 231.027,181.573 229.5,181.5C 229.973,180.094 230.973,179.427 232.5,179.5 Z"/></g>
<g><path style="opacity:0.051" fill="#484849" d="M 276.5,180.5 C 275.07,181.537 273.403,182.204 271.5,182.5C 272.635,180.787 274.302,180.12 276.5,180.5 Z"/></g>
<g><path style="opacity:0.424" fill="#4e3c17" d="M 356.5,178.5 C 356.074,182.427 355.074,186.093 353.5,189.5C 353.517,185.466 354.517,181.799 356.5,178.5 Z"/></g>
<g><path style="opacity:0.325" fill="#666766" d="M 229.5,181.5 C 228.008,184.323 225.674,185.99 222.5,186.5C 224.55,184.453 226.883,182.786 229.5,181.5 Z"/></g>
<g><path style="opacity:0.71" fill="#711449" d="M 136.5,174.5 C 146.348,174.173 156.014,174.506 165.5,175.5C 155.494,175.334 145.494,175.5 135.5,176C 127.186,191.462 119.52,207.295 112.5,223.5C 109.833,228.167 107.167,232.833 104.5,237.5C 104.167,237.5 103.833,237.5 103.5,237.5C 112.96,216.58 122.96,195.913 133.5,175.5C 134.325,174.614 135.325,174.281 136.5,174.5 Z"/></g>
<g><path style="opacity:0.18" fill="#604e2a" d="M 293.5,180.5 C 289.877,183.054 285.877,185.054 281.5,186.5C 284.902,183.465 288.902,181.465 293.5,180.5 Z"/></g>
<g><path style="opacity:0.894" fill="#9b9f9e" d="M 269.5,183.5 C 266.021,185.403 262.354,187.07 258.5,188.5C 258.981,186.362 260.148,184.695 262,183.5C 264.394,184.136 266.894,184.136 269.5,183.5 Z"/></g>
<g><path style="opacity:1" fill="#d50f58" d="M 81.5,177.5 C 86.5111,177.334 91.5111,177.501 96.5,178C 97.056,178.383 97.3893,178.883 97.5,179.5C 97.5,180.833 97.5,182.167 97.5,183.5C 95.6814,184.584 94.0147,185.918 92.5,187.5C 90.7637,191.205 88.9304,194.871 87,198.5C 80.9626,204.535 75.296,210.869 70,217.5C 69.6174,216.944 69.1174,216.611 68.5,216.5C 68.0104,213.345 67.3438,210.345 66.5,207.5C 66.5,207.167 66.5,206.833 66.5,206.5C 66.5,204.167 66.5,201.833 66.5,199.5C 67.963,202.203 68.7963,205.203 69,208.5C 71.0182,203.815 74.3516,200.482 79,198.5C 82.0472,192.125 85.8806,186.292 90.5,181C 87.4289,179.704 84.4289,178.538 81.5,177.5 Z"/></g>
<g><path style="opacity:0.341" fill="#645c5f" d="M 222.5,186.5 C 221.738,188.262 220.404,189.262 218.5,189.5C 219.262,187.738 220.596,186.738 222.5,186.5 Z"/></g>
<g><path style="opacity:0.749" fill="#6b0c2d" d="M 203.5,175.5 C 203.5,175.833 203.5,176.167 203.5,176.5C 199.336,179.493 196.669,183.493 195.5,188.5C 193.167,192.5 190.833,196.5 188.5,200.5C 190.153,194.188 192.653,188.188 196,182.5C 197.736,179.261 200.236,176.927 203.5,175.5 Z"/></g>
<g><path style="opacity:0.271" fill="#666866" d="M 256.5,189.5 C 254.664,191.588 252.331,192.921 249.5,193.5C 251.052,190.888 253.386,189.555 256.5,189.5 Z"/></g>
<g><path style="opacity:1" fill="#d40b46" d="M 81.5,177.5 C 84.4289,178.538 87.4289,179.704 90.5,181C 85.8806,186.292 82.0472,192.125 79,198.5C 74.3516,200.482 71.0182,203.815 69,208.5C 68.7963,205.203 67.963,202.203 66.5,199.5C 65.6076,192.209 65.2743,184.876 65.5,177.5C 70.8333,177.5 76.1667,177.5 81.5,177.5 Z"/></g>
<g><path style="opacity:1" fill="#d21160" d="M 203.5,176.5 C 208.482,177.053 213.482,177.387 218.5,177.5C 218.416,180.327 217.75,182.994 216.5,185.5C 213.743,186.512 211.076,187.512 208.5,188.5C 203.987,190.025 199.987,192.358 196.5,195.5C 195.526,193.257 195.192,190.924 195.5,188.5C 196.669,183.493 199.336,179.493 203.5,176.5 Z"/></g>
<g><path style="opacity:1" fill="#eac056" d="M 312.5,180.5 C 316.839,188.536 321.172,196.536 325.5,204.5C 325.5,205.833 325.5,207.167 325.5,208.5C 320.924,210.255 319.924,209.255 322.5,205.5C 321.909,203.734 321.076,202.067 320,200.5C 318.644,201.38 317.144,201.714 315.5,201.5C 315.5,203.5 315.5,205.5 315.5,207.5C 314.167,207.5 312.833,207.5 311.5,207.5C 311.5,208.833 311.5,210.167 311.5,211.5C 310.448,211.351 309.448,211.517 308.5,212C 307.416,214.588 305.749,216.755 303.5,218.5C 300.658,219.004 299.325,220.671 299.5,223.5C 297.019,225.023 294.519,226.69 292,228.5C 291.405,229.899 291.572,231.232 292.5,232.5C 290.267,233.742 288.101,235.076 286,236.5C 284.496,239.509 282.996,242.509 281.5,245.5C 279.214,245.04 277.881,243.707 277.5,241.5C 278.683,238.439 280.016,235.439 281.5,232.5C 280.635,231.417 279.635,231.251 278.5,232C 279.833,232.667 279.833,233.333 278.5,234C 277.062,234.219 275.729,234.719 274.5,235.5C 275.484,237.598 275.151,239.598 273.5,241.5C 274.383,242.548 275.05,243.715 275.5,245C 274.796,248.128 274.296,251.294 274,254.5C 273,255.833 272,255.833 271,254.5C 270,256.167 269,257.833 268,259.5C 267.667,259.167 267.333,258.833 267,258.5C 266.667,261.833 266.333,265.167 266,268.5C 265,269.833 264,271.167 263,272.5C 261.898,283.849 260.732,295.182 259.5,306.5C 258.5,306.5 257.5,306.5 256.5,306.5C 258.119,300.294 259.119,293.961 259.5,287.5C 260.686,281.9 261.353,276.233 261.5,270.5C 261.5,270.167 261.5,269.833 261.5,269.5C 262.117,269.389 262.617,269.056 263,268.5C 264.906,259.136 266.74,249.803 268.5,240.5C 269.117,240.389 269.617,240.056 270,239.5C 270.667,236.833 271.333,234.167 272,231.5C 273.052,220.63 275.052,209.963 278,199.5C 280.078,196.897 281.411,193.897 282,190.5C 283.167,189.333 284.333,188.167 285.5,187C 291.474,184.381 297.474,181.715 303.5,179C 306.823,178.068 309.823,178.568 312.5,180.5 Z"/></g>
<g><path style="opacity:0.569" fill="#828380" d="M 218.5,189.5 C 217.089,191.914 215.089,193.581 212.5,194.5C 213.911,192.086 215.911,190.419 218.5,189.5 Z"/></g>
<g><path style="opacity:0.275" fill="#6a0e3b" d="M 216.5,185.5 C 208.418,193.252 199.751,200.252 190.5,206.5C 195.362,200.811 201.028,195.978 207.5,192C 208.337,190.989 208.67,189.822 208.5,188.5C 211.076,187.512 213.743,186.512 216.5,185.5 Z"/></g>
<g><path style="opacity:0.502" fill="#68562e" d="M 281.5,186.5 C 279.736,191.68 277.736,196.68 275.5,201.5C 275.956,195.78 277.956,190.78 281.5,186.5 Z"/></g>
<g><path style="opacity:1" fill="#d8b45a" d="M 387.5,174.5 C 388.117,174.611 388.617,174.944 389,175.5C 389.167,176.833 389.333,178.167 389.5,179.5C 388.572,184.473 387.905,189.473 387.5,194.5C 386.087,197.219 385.42,200.219 385.5,203.5C 383.825,206.507 383.159,209.84 383.5,213.5C 381.061,218.26 379.395,223.26 378.5,228.5C 381.036,210.466 384.036,192.466 387.5,174.5 Z"/></g>
<g><path style="opacity:0.498" fill="#838484" d="M 212.5,194.5 C 210.363,197.973 207.363,200.306 203.5,201.5C 206.208,198.791 209.208,196.458 212.5,194.5 Z"/></g>
<g><path style="opacity:1" fill="#d51164" d="M 97.5,183.5 C 97.666,188.844 97.4994,194.177 97,199.5C 96.1253,202.215 94.2919,203.548 91.5,203.5C 89.2205,208.642 86.5538,213.642 83.5,218.5C 81.1018,219.898 79.4351,221.898 78.5,224.5C 77.1667,225.833 75.8333,225.833 74.5,224.5C 72.3946,226.343 71.2279,228.676 71,231.5C 70.6174,230.944 70.1174,230.611 69.5,230.5C 68.6864,225.881 68.3531,221.214 68.5,216.5C 69.1174,216.611 69.6174,216.944 70,217.5C 75.296,210.869 80.9626,204.535 87,198.5C 88.9304,194.871 90.7637,191.205 92.5,187.5C 94.0147,185.918 95.6814,184.584 97.5,183.5 Z"/></g>
<g><path style="opacity:1" fill="#c11c63" d="M 195.5,188.5 C 195.192,190.924 195.526,193.257 196.5,195.5C 199.987,192.358 203.987,190.025 208.5,188.5C 208.67,189.822 208.337,190.989 207.5,192C 201.028,195.978 195.362,200.811 190.5,206.5C 189.325,206.719 188.325,206.386 187.5,205.5C 188.309,203.929 188.643,202.262 188.5,200.5C 190.833,196.5 193.167,192.5 195.5,188.5 Z"/></g>
<g><path style="opacity:0.137" fill="#5e5e5e" d="M 245.5,195.5 C 244.341,197.25 242.674,198.25 240.5,198.5C 241.659,196.75 243.326,195.75 245.5,195.5 Z"/></g>
<g><path style="opacity:0.376" fill="#735e2d" d="M 261.5,194.5 C 260.514,196.408 258.848,197.408 256.5,197.5C 257.659,195.75 259.326,194.75 261.5,194.5 Z"/></g>
<g><path style="opacity:0.983" fill="#9e9e9e" d="M 240.5,198.5 C 238.178,200.664 235.511,202.331 232.5,203.5C 233.046,201.697 233.88,200.03 235,198.5C 236.707,199.138 238.54,199.138 240.5,198.5 Z"/></g>
<g><path style="opacity:0.02" fill="#4b3f10" d="M 387.5,194.5 C 387.58,197.781 386.913,200.781 385.5,203.5C 385.42,200.219 386.087,197.219 387.5,194.5 Z"/></g>
<g><path style="opacity:1" fill="#d2156c" d="M 97.5,179.5 C 98.4834,183.298 98.8168,187.298 98.5,191.5C 98.5,197.5 98.5,203.5 98.5,209.5C 97.0689,209.119 96.2355,208.119 96,206.5C 94.6667,207.167 93.3333,207.833 92,208.5C 88.608,214.615 85.7746,220.948 83.5,227.5C 81.0771,227.424 79.2438,228.424 78,230.5C 76.5603,229.852 75.0603,229.519 73.5,229.5C 71.5487,235.314 70.5487,241.314 70.5,247.5C 70.1667,247.5 69.8333,247.5 69.5,247.5C 69.5,241.833 69.5,236.167 69.5,230.5C 70.1174,230.611 70.6174,230.944 71,231.5C 71.2279,228.676 72.3946,226.343 74.5,224.5C 75.8333,225.833 77.1667,225.833 78.5,224.5C 79.4351,221.898 81.1018,219.898 83.5,218.5C 86.5538,213.642 89.2205,208.642 91.5,203.5C 94.2919,203.548 96.1253,202.215 97,199.5C 97.4994,194.177 97.666,188.844 97.5,183.5C 97.5,182.167 97.5,180.833 97.5,179.5 Z"/></g>
<g><path style="opacity:0.055" fill="#440436" d="M 167.5,191.5 C 167.833,191.5 168.167,191.5 168.5,191.5C 170.093,203.629 170.426,215.629 169.5,227.5C 168.999,215.489 168.333,203.489 167.5,191.5 Z"/></g>
<g><path style="opacity:1" fill="#c12280" d="M 165.5,175.5 C 165.5,175.833 165.5,176.167 165.5,176.5C 165.167,176.5 164.833,176.5 164.5,176.5C 162.833,176.5 161.167,176.5 159.5,176.5C 153.463,176.171 147.463,176.504 141.5,177.5C 138.376,178.915 135.709,180.915 133.5,183.5C 130.183,190.438 127.016,197.438 124,204.5C 123.059,206.061 121.892,207.395 120.5,208.5C 118.408,213.025 116.575,217.691 115,222.5C 114.329,223.252 113.496,223.586 112.5,223.5C 119.52,207.295 127.186,191.462 135.5,176C 145.494,175.5 155.494,175.334 165.5,175.5 Z"/></g>
<g><path style="opacity:1" fill="#d31f9f" d="M 164.5,176.5 C 164.833,176.5 165.167,176.5 165.5,176.5C 165.571,186.876 166.238,197.209 167.5,207.5C 166.307,207.03 165.64,206.03 165.5,204.5C 165.065,199.731 164.231,195.064 163,190.5C 161.989,191.337 160.822,191.67 159.5,191.5C 157.574,196.286 154.407,200.286 150,203.5C 148.985,206.558 147.819,209.558 146.5,212.5C 143.833,214.833 141.167,217.167 138.5,219.5C 137.119,225.378 133.619,229.045 128,230.5C 127.257,232.441 127.424,234.274 128.5,236C 126.901,237.066 125.901,238.566 125.5,240.5C 120.859,243.641 116.359,246.974 112,250.5C 111.005,254.145 110.172,257.812 109.5,261.5C 108.022,261.238 106.689,261.571 105.5,262.5C 103.343,264.412 101.009,266.079 98.5,267.5C 96.5934,271.41 93.9267,274.744 90.5,277.5C 88.6838,283.126 86.3504,288.459 83.5,293.5C 81.549,293.227 80.049,293.893 79,295.5C 78.7508,294.376 78.2508,293.376 77.5,292.5C 76.2888,293.274 76.2888,294.107 77.5,295C 76.5838,295.374 75.7504,295.874 75,296.5C 74.6012,296.272 74.4346,295.938 74.5,295.5C 74.3367,293.143 74.5034,290.81 75,288.5C 76.7398,287.284 77.7398,285.618 78,283.5C 84.5903,281.184 88.5903,276.184 90,268.5C 94.586,265.421 98.7526,261.754 102.5,257.5C 103.57,252.431 106.237,248.431 110.5,245.5C 111.281,244.271 111.781,242.938 112,241.5C 114,240.167 116,238.833 118,237.5C 118.49,236.207 118.657,234.873 118.5,233.5C 120.942,233.646 121.609,232.813 120.5,231C 124.205,229.814 127.205,227.647 129.5,224.5C 128.5,223.833 127.5,223.167 126.5,222.5C 129.807,220.193 132.807,217.527 135.5,214.5C 136.689,213.571 138.022,213.238 139.5,213.5C 142.313,204.842 147.313,197.509 154.5,191.5C 154.96,187.736 156.96,185.236 160.5,184C 159.396,182.869 159.729,182.035 161.5,181.5C 162.478,181.977 163.311,182.643 164,183.5C 164.497,181.19 164.663,178.857 164.5,176.5 Z"/></g>
<g><path style="opacity:0.133" fill="#53132e" d="M 188.5,200.5 C 188.643,202.262 188.309,203.929 187.5,205.5C 188.325,206.386 189.325,206.719 190.5,206.5C 189.713,208.104 188.38,208.771 186.5,208.5C 186.111,205.447 186.777,202.78 188.5,200.5 Z"/></g>
<g><path style="opacity:0.114" fill="#58431c" d="M 353.5,189.5 C 353.321,198.595 351.654,207.261 348.5,215.5C 349.753,206.629 351.42,197.962 353.5,189.5 Z"/></g>
<g><path style="opacity:0.22" fill="#5d4c22" d="M 265.5,227.5 C 267.707,215.591 269.707,203.591 271.5,191.5C 268.177,192.492 264.844,193.492 261.5,194.5C 264.756,191.21 268.756,189.543 273.5,189.5C 271.464,202.414 268.797,215.08 265.5,227.5 Z"/></g>
<g><path style="opacity:1" fill="#eabd4d" d="M 260.5,245.5 C 259.992,249.736 258.992,253.736 257.5,257.5C 256.883,257.611 256.383,257.944 256,258.5C 255.283,265.25 254.117,271.916 252.5,278.5C 251.833,279.167 251.167,279.833 250.5,280.5C 249.333,288.829 248.333,297.162 247.5,305.5C 237.701,307.362 227.701,308.029 217.5,307.5C 221.358,286.804 225.358,266.138 229.5,245.5C 229.5,244.833 229.5,244.167 229.5,243.5C 230.765,242.486 231.431,240.986 231.5,239C 231.643,230.588 232.976,222.421 235.5,214.5C 241.043,210.569 246.709,207.069 252.5,204C 253.167,202.667 253.833,201.333 254.5,200C 259.567,198.123 264.567,196.29 269.5,194.5C 266.465,207.343 263.632,220.343 261,233.5C 260.501,237.486 260.334,241.486 260.5,245.5 Z"/></g>
<g><path style="opacity:0.906" fill="#969792" d="M 232.5,203.5 C 230.025,206.241 227.025,208.241 223.5,209.5C 223.5,208.5 223.5,207.5 223.5,206.5C 226.655,206.023 229.655,205.023 232.5,203.5 Z"/></g>
<g><path style="opacity:0.745" fill="#90793d" d="M 249.5,201.5 C 249.063,203.074 248.063,204.241 246.5,205C 241.49,206.936 237.157,209.77 233.5,213.5C 234.048,211.606 235.048,209.94 236.5,208.5C 240.615,205.707 244.949,203.374 249.5,201.5 Z"/></g>
<g><path style="opacity:0.169" fill="#413213" d="M 275.5,201.5 C 275.59,204.152 274.924,206.485 273.5,208.5C 273.41,205.848 274.076,203.515 275.5,201.5 Z"/></g>
<g><path style="opacity:0.792" fill="#675225" d="M 325.5,204.5 C 328.949,209.735 331.616,215.402 333.5,221.5C 330.583,217.334 327.916,213.001 325.5,208.5C 325.5,207.167 325.5,205.833 325.5,204.5 Z"/></g>
<g><path style="opacity:1" fill="#d025b2" d="M 167.5,216.5 C 167.5,220.5 167.5,224.5 167.5,228.5C 159.494,238.52 151.494,248.52 143.5,258.5C 142.5,258.5 141.5,258.5 140.5,258.5C 140.666,251.492 140.5,244.492 140,237.5C 139.283,236.956 138.783,236.289 138.5,235.5C 140.897,231.944 144.23,229.777 148.5,229C 150.316,227.685 151.983,226.185 153.5,224.5C 152.833,223.833 152.167,223.167 151.5,222.5C 153.005,221.158 153.672,219.492 153.5,217.5C 155.981,217.677 157.814,216.677 159,214.5C 160.113,215.711 161.28,215.711 162.5,214.5C 163.149,212.376 163.983,210.376 165,208.5C 166.061,211.166 166.894,213.833 167.5,216.5 Z"/></g>
<g><path style="opacity:1" fill="#ceac56" d="M 362.5,171.5 C 363.833,171.5 365.167,171.5 366.5,171.5C 363.775,173.946 361.275,176.613 359,179.5C 354.697,197.974 351.03,216.641 348,235.5C 347.263,237.596 346.097,239.263 344.5,240.5C 345.265,237.904 345.599,235.237 345.5,232.5C 345.216,230.585 345.549,228.919 346.5,227.5C 347.222,227.082 347.722,226.416 348,225.5C 348.497,222.854 348.664,220.187 348.5,217.5C 348.5,216.833 348.5,216.167 348.5,215.5C 351.654,207.261 353.321,198.595 353.5,189.5C 355.074,186.093 356.074,182.427 356.5,178.5C 356.427,176.973 357.094,175.973 358.5,175.5C 360.167,174.5 361.5,173.167 362.5,171.5 Z"/></g>
<g><path style="opacity:0.169" fill="#5c461e" d="M 385.5,203.5 C 385.451,207.078 384.785,210.411 383.5,213.5C 383.159,209.84 383.825,206.507 385.5,203.5 Z"/></g>
<g><path style="opacity:0.529" fill="#7b7a7b" d="M 202.5,202.5 C 198.773,207.23 194.44,211.23 189.5,214.5C 193.227,209.77 197.56,205.77 202.5,202.5 Z"/></g>
<g><path style="opacity:0.004" fill="#313131" d="M 222.5,210.5 C 222.027,211.906 221.027,212.573 219.5,212.5C 219.973,211.094 220.973,210.427 222.5,210.5 Z"/></g>
<g><path style="opacity:1" fill="#d51677" d="M 98.5,209.5 C 98.5,213.833 98.5,218.167 98.5,222.5C 98.3146,224.196 97.4813,225.529 96,226.5C 95.0922,224.561 93.5922,223.561 91.5,223.5C 91.762,224.978 91.4287,226.311 90.5,227.5C 83.8765,234.413 79.0432,242.413 76,251.5C 75.0857,249.336 73.919,247.336 72.5,245.5C 71.7025,245.957 71.3691,246.624 71.5,247.5C 71.1667,247.5 70.8333,247.5 70.5,247.5C 70.5487,241.314 71.5487,235.314 73.5,229.5C 75.0603,229.519 76.5603,229.852 78,230.5C 79.2438,228.424 81.0771,227.424 83.5,227.5C 85.7746,220.948 88.608,214.615 92,208.5C 93.3333,207.833 94.6667,207.167 96,206.5C 96.2355,208.119 97.0689,209.119 98.5,209.5 Z"/></g>
<g><path style="opacity:1" fill="#a31e5d" d="M 98.5,191.5 C 98.8333,191.5 99.1667,191.5 99.5,191.5C 99.1984,194.059 99.5318,196.393 100.5,198.5C 100.5,199.167 100.5,199.833 100.5,200.5C 100.5,208.167 100.5,215.833 100.5,223.5C 99.8333,223.167 99.1667,222.833 98.5,222.5C 98.5,218.167 98.5,213.833 98.5,209.5C 98.5,203.5 98.5,197.5 98.5,191.5 Z"/></g>
<g><path style="opacity:1" fill="#d8b45a" d="M 265.5,227.5 C 263.834,233.479 262.167,239.479 260.5,245.5C 260.334,241.486 260.501,237.486 261,233.5C 263.632,220.343 266.465,207.343 269.5,194.5C 264.567,196.29 259.567,198.123 254.5,200C 253.833,201.333 253.167,202.667 252.5,204C 246.709,207.069 241.043,210.569 235.5,214.5C 232.976,222.421 231.643,230.588 231.5,239C 231.431,240.986 230.765,242.486 229.5,243.5C 229.5,241.5 229.5,239.5 229.5,237.5C 230.556,229.44 231.889,221.44 233.5,213.5C 237.157,209.77 241.49,206.936 246.5,205C 248.063,204.241 249.063,203.074 249.5,201.5C 251.336,199.412 253.669,198.079 256.5,197.5C 258.848,197.408 260.514,196.408 261.5,194.5C 264.844,193.492 268.177,192.492 271.5,191.5C 269.707,203.591 267.707,215.591 265.5,227.5 Z"/></g>
<g><path style="opacity:0.047" fill="#474747" d="M 219.5,212.5 C 218.738,214.262 217.404,215.262 215.5,215.5C 216.262,213.738 217.596,212.738 219.5,212.5 Z"/></g>
<g><path style="opacity:1" fill="#a42d8a" d="M 165.5,175.5 C 166.806,180.616 167.473,185.949 167.5,191.5C 168.333,203.489 168.999,215.489 169.5,227.5C 169.5,227.833 169.5,228.167 169.5,228.5C 168.833,228.5 168.167,228.5 167.5,228.5C 167.5,224.5 167.5,220.5 167.5,216.5C 167.5,213.5 167.5,210.5 167.5,207.5C 166.238,197.209 165.571,186.876 165.5,176.5C 165.5,176.167 165.5,175.833 165.5,175.5 Z"/></g>
<g><path style="opacity:0.063" fill="#4b4b4b" d="M 215.5,215.5 C 214.738,217.262 213.404,218.262 211.5,218.5C 212.262,216.738 213.596,215.738 215.5,215.5 Z"/></g>
<g><path style="opacity:0.573" fill="#735e2a" d="M 233.5,213.5 C 231.889,221.44 230.556,229.44 229.5,237.5C 228.833,238.5 228.167,239.5 227.5,240.5C 228.335,231.115 230.335,222.115 233.5,213.5 Z"/></g>
<g><path style="opacity:0.18" fill="#4a3b17" d="M 273.5,209.5 C 273.706,212.495 273.04,215.162 271.5,217.5C 271.565,214.572 272.232,211.905 273.5,209.5 Z"/></g>
<g><path style="opacity:0.6" fill="#7c7e7d" d="M 189.5,214.5 C 184.225,221.444 178.225,227.777 171.5,233.5C 176.775,226.556 182.775,220.223 189.5,214.5 Z"/></g>
<g><path style="opacity:1" fill="#d41c98" d="M 159.5,176.5 C 161.167,176.5 162.833,176.5 164.5,176.5C 164.663,178.857 164.497,181.19 164,183.5C 163.311,182.643 162.478,181.977 161.5,181.5C 159.729,182.035 159.396,182.869 160.5,184C 156.96,185.236 154.96,187.736 154.5,191.5C 147.313,197.509 142.313,204.842 139.5,213.5C 138.022,213.238 136.689,213.571 135.5,214.5C 132.807,217.527 129.807,220.193 126.5,222.5C 127.5,223.167 128.5,223.833 129.5,224.5C 127.205,227.647 124.205,229.814 120.5,231C 121.609,232.813 120.942,233.646 118.5,233.5C 118.657,234.873 118.49,236.207 118,237.5C 116,238.833 114,240.167 112,241.5C 111.781,242.938 111.281,244.271 110.5,245.5C 106.237,248.431 103.57,252.431 102.5,257.5C 98.7526,261.754 94.586,265.421 90,268.5C 88.5903,276.184 84.5903,281.184 78,283.5C 77.7398,285.618 76.7398,287.284 75,288.5C 74.5034,290.81 74.3367,293.143 74.5,295.5C 74.1667,295.5 73.8333,295.5 73.5,295.5C 73.5,292.833 73.5,290.167 73.5,287.5C 76.913,283.586 78.7464,278.92 79,273.5C 79.6667,274.167 80.3333,274.833 81,275.5C 84.6335,268.704 88.4669,262.038 92.5,255.5C 99.7603,251.319 104.927,245.319 108,237.5C 108.893,238.711 109.726,238.711 110.5,237.5C 109.456,235.232 109.289,232.899 110,230.5C 111.049,229.483 112.216,229.316 113.5,230C 112.483,231.049 112.316,232.216 113,233.5C 115.815,231.023 117.815,228.023 119,224.5C 120.779,225.479 122.445,225.146 124,223.5C 124.256,220.443 124.756,217.443 125.5,214.5C 130.704,212.63 133.704,208.963 134.5,203.5C 137.281,201.037 140.114,198.703 143,196.5C 143.779,194.193 143.279,192.193 141.5,190.5C 141.808,189.692 142.308,189.025 143,188.5C 143.419,189.672 144.085,190.672 145,191.5C 146.031,188.123 147.698,185.123 150,182.5C 150.333,182.833 150.667,183.167 151,183.5C 151.49,182.207 151.657,180.873 151.5,179.5C 154.024,180.812 156.691,181.312 159.5,181C 159.034,179.701 159.034,178.201 159.5,176.5 Z"/></g>
<g><path style="opacity:0.071" fill="#474747" d="M 211.5,218.5 C 210.415,220.587 208.749,221.92 206.5,222.5C 207.585,220.413 209.251,219.08 211.5,218.5 Z"/></g>
<g><path style="opacity:1" fill="#9b1a4f" d="M 66.5,207.5 C 67.3438,210.345 68.0104,213.345 68.5,216.5C 68.3531,221.214 68.6864,225.881 69.5,230.5C 69.5,236.167 69.5,241.833 69.5,247.5C 69.5,257.167 69.5,266.833 69.5,276.5C 68.5104,270.69 68.1771,264.69 68.5,258.5C 68.5715,248.301 67.9049,238.301 66.5,228.5C 65.8333,228.5 65.5,228.167 65.5,227.5C 66.4907,221.021 66.824,214.354 66.5,207.5 Z"/></g>
<g><path style="opacity:0.647" fill="#665221" d="M 333.5,221.5 C 335.065,223.509 336.065,225.843 336.5,228.5C 334.166,226.824 333.166,224.491 333.5,221.5 Z"/></g>
<g><path style="opacity:0.69" fill="#5d4d27" d="M 348.5,217.5 C 348.664,220.187 348.497,222.854 348,225.5C 347.722,226.416 347.222,227.082 346.5,227.5C 346.549,223.922 347.215,220.589 348.5,217.5 Z"/></g>
<g><path style="opacity:0.651" fill="#63532a" d="M 271.5,218.5 C 271.956,223.607 270.956,228.274 268.5,232.5C 268.87,227.578 269.87,222.911 271.5,218.5 Z"/></g>
<g><path style="opacity:0.608" fill="#7d6335" d="M 383.5,213.5 C 382.579,221.774 380.913,229.774 378.5,237.5C 378.5,234.5 378.5,231.5 378.5,228.5C 379.395,223.26 381.061,218.26 383.5,213.5 Z"/></g>
<g><path style="opacity:0.098" fill="#414040" d="M 205.5,223.5 C 202.54,226.645 199.207,229.312 195.5,231.5C 198.095,227.874 201.428,225.208 205.5,223.5 Z"/></g>
<g><path style="opacity:0.406" fill="#640c39" d="M 100.5,200.5 C 101.23,209.847 101.896,219.347 102.5,229C 102.113,230.823 101.779,232.657 101.5,234.5C 101.64,236.03 102.307,237.03 103.5,237.5C 102.992,239.233 102.159,239.566 101,238.5C 100.501,233.511 100.334,228.511 100.5,223.5C 100.5,215.833 100.5,208.167 100.5,200.5 Z"/></g>
<g><path style="opacity:1" fill="#d4b567" d="M 312.5,176.5 C 312.5,177.833 312.5,179.167 312.5,180.5C 309.823,178.568 306.823,178.068 303.5,179C 297.474,181.715 291.474,184.381 285.5,187C 284.333,188.167 283.167,189.333 282,190.5C 281.411,193.897 280.078,196.897 278,199.5C 275.052,209.963 273.052,220.63 272,231.5C 271.333,234.167 270.667,236.833 270,239.5C 269.617,240.056 269.117,240.389 268.5,240.5C 268.5,238.167 268.5,235.833 268.5,233.5C 268.5,233.167 268.5,232.833 268.5,232.5C 270.956,228.274 271.956,223.607 271.5,218.5C 271.5,218.167 271.5,217.833 271.5,217.5C 273.04,215.162 273.706,212.495 273.5,209.5C 273.5,209.167 273.5,208.833 273.5,208.5C 274.924,206.485 275.59,204.152 275.5,201.5C 277.736,196.68 279.736,191.68 281.5,186.5C 285.877,185.054 289.877,183.054 293.5,180.5C 297.325,179.926 300.991,178.759 304.5,177C 307.146,176.503 309.813,176.336 312.5,176.5 Z"/></g>
<g><path style="opacity:0.678" fill="#765d2e" d="M 336.5,228.5 C 338.592,231.088 339.925,234.088 340.5,237.5C 337.835,235.165 336.502,232.165 336.5,228.5 Z"/></g>
<g><path style="opacity:0.384" fill="#531242" d="M 207.5,237.5 C 207.5,235.167 207.5,232.833 207.5,230.5C 201.711,232.609 197.044,236.276 193.5,241.5C 188.893,244.768 184.559,248.435 180.5,252.5C 183.563,247.928 187.23,243.761 191.5,240C 196.167,236 200.833,232 205.5,228C 208.237,226.92 209.904,227.754 210.5,230.5C 210.061,233.176 209.061,235.509 207.5,237.5 Z"/></g>
<g><path style="opacity:1" fill="#cfac55" d="M 378.5,228.5 C 378.5,231.5 378.5,234.5 378.5,237.5C 376.336,242.126 375.336,247.126 375.5,252.5C 375.784,254.415 375.451,256.081 374.5,257.5C 372.833,262.853 371.166,268.186 369.5,273.5C 370.953,265.283 371.786,256.949 372,248.5C 373.233,246.134 374.066,243.634 374.5,241C 373.13,235.944 374.463,231.778 378.5,228.5 Z"/></g>
<g><path style="opacity:0.082" fill="#480120" d="M 66.5,228.5 C 67.9049,238.301 68.5715,248.301 68.5,258.5C 67.1796,248.694 66.5129,238.694 66.5,228.5 Z"/></g>
<g><path style="opacity:1" fill="#d31a88" d="M 98.5,222.5 C 99.1667,222.833 99.8333,223.167 100.5,223.5C 100.334,228.511 100.501,233.511 101,238.5C 102.159,239.566 102.992,239.233 103.5,237.5C 103.833,237.5 104.167,237.5 104.5,237.5C 103.952,240.084 102.285,241.084 99.5,240.5C 99.5,241.5 99.5,242.5 99.5,243.5C 98.5,243.5 97.5,243.5 96.5,243.5C 96.6495,244.552 96.4828,245.552 96,246.5C 92.9375,247.284 90.4375,248.951 88.5,251.5C 86.7036,255.164 85.0369,258.831 83.5,262.5C 81.8615,263.958 80.1949,264.292 78.5,263.5C 77.2528,265.006 77.2528,266.506 78.5,268C 77.5838,268.374 76.7504,268.874 76,269.5C 74.2186,267.276 72.7186,264.942 71.5,262.5C 71.5,257.5 71.5,252.5 71.5,247.5C 71.3691,246.624 71.7025,245.957 72.5,245.5C 73.919,247.336 75.0857,249.336 76,251.5C 79.0432,242.413 83.8765,234.413 90.5,227.5C 91.4287,226.311 91.762,224.978 91.5,223.5C 93.5922,223.561 95.0922,224.561 96,226.5C 97.4813,225.529 98.3146,224.196 98.5,222.5 Z"/></g>
<g><path style="opacity:1" fill="#b72c9a" d="M 138.5,235.5 C 138.783,236.289 139.283,236.956 140,237.5C 140.5,244.492 140.666,251.492 140.5,258.5C 141.5,258.5 142.5,258.5 143.5,258.5C 142.713,260.104 141.38,260.771 139.5,260.5C 139.768,258.901 139.434,257.568 138.5,256.5C 138.5,250.833 138.5,245.167 138.5,239.5C 137.022,239.238 135.689,239.571 134.5,240.5C 134.058,241.739 133.391,242.739 132.5,243.5C 130.145,237.835 132.145,235.168 138.5,235.5 Z"/></g>
<g><path style="opacity:0.027" fill="#372e2c" d="M 194.5,232.5 C 193.089,234.914 191.089,236.581 188.5,237.5C 189.911,235.086 191.911,233.419 194.5,232.5 Z"/></g>
<g><path style="opacity:1" fill="#af2693" d="M 207.5,237.5 C 204.689,241.718 202.022,246.051 199.5,250.5C 200.383,245.652 201.716,240.985 203.5,236.5C 200.412,236.197 198.746,237.53 198.5,240.5C 193.51,243.973 188.843,248.139 184.5,253C 183.906,253.464 183.239,253.631 182.5,253.5C 186.167,249.5 189.833,245.5 193.5,241.5C 197.044,236.276 201.711,232.609 207.5,230.5C 207.5,232.833 207.5,235.167 207.5,237.5 Z"/></g>
<g><path style="opacity:0.341" fill="#5b5953" d="M 171.5,233.5 C 170.581,236.089 168.914,238.089 166.5,239.5C 167.419,236.911 169.086,234.911 171.5,233.5 Z"/></g>
<g><path style="opacity:0.412" fill="#590945" d="M 138.5,256.5 C 137.893,251.572 137.06,246.572 136,241.5C 133.913,245.322 131.747,248.989 129.5,252.5C 130.647,249.59 131.647,246.59 132.5,243.5C 133.391,242.739 134.058,241.739 134.5,240.5C 135.689,239.571 137.022,239.238 138.5,239.5C 138.5,245.167 138.5,250.833 138.5,256.5 Z"/></g>
<g><path style="opacity:0.361" fill="#725216" d="M 345.5,232.5 C 345.599,235.237 345.265,237.904 344.5,240.5C 343.292,241.234 341.959,241.567 340.5,241.5C 340.5,240.167 340.5,238.833 340.5,237.5C 341.151,238.091 341.818,238.757 342.5,239.5C 343.66,237.125 344.66,234.792 345.5,232.5 Z"/></g>
<g><path style="opacity:0.282" fill="#5e5d5c" d="M 166.5,239.5 C 165.92,241.749 164.587,243.415 162.5,244.5C 163.08,242.251 164.413,240.585 166.5,239.5 Z"/></g>
<g><path style="opacity:0.02" fill="#2f3131" d="M 186.5,239.5 C 185.415,241.587 183.749,242.92 181.5,243.5C 182.585,241.413 184.251,240.08 186.5,239.5 Z"/></g>
<g><path style="opacity:0.224" fill="#5c4820" d="M 265.5,227.5 C 260.834,253.842 255.167,279.842 248.5,305.5C 252.131,289.638 255.131,273.638 257.5,257.5C 258.992,253.736 259.992,249.736 260.5,245.5C 262.167,239.479 263.834,233.479 265.5,227.5 Z"/></g>
<g><path style="opacity:0.224" fill="#5e481c" d="M 378.5,237.5 C 377.942,242.709 376.942,247.709 375.5,252.5C 375.336,247.126 376.336,242.126 378.5,237.5 Z"/></g>
<g><path style="opacity:0.396" fill="#5c1251" d="M 167.5,228.5 C 168.167,228.5 168.833,228.5 169.5,228.5C 160.713,239.792 151.713,250.959 142.5,262C 141.216,262.684 140.049,262.517 139,261.5C 138.506,259.866 138.34,258.199 138.5,256.5C 139.434,257.568 139.768,258.901 139.5,260.5C 141.38,260.771 142.713,260.104 143.5,258.5C 151.494,248.52 159.494,238.52 167.5,228.5 Z"/></g>
<g><path style="opacity:0.349" fill="#636062" d="M 162.5,244.5 C 162.267,246.062 161.6,247.395 160.5,248.5C 159.194,250.473 157.527,252.139 155.5,253.5C 157.111,249.949 159.444,246.949 162.5,244.5 Z"/></g>
<g><path style="opacity:0.192" fill="#584019" d="M 303.5,242.5 C 304.73,244.297 305.396,246.297 305.5,248.5C 304.356,246.9 303.189,245.233 302,243.5C 301.243,245.315 300.41,246.981 299.5,248.5C 299.5,246.5 299.5,244.5 299.5,242.5C 300.833,242.5 302.167,242.5 303.5,242.5 Z"/></g>
<g><path style="opacity:1" fill="#d221a8" d="M 167.5,207.5 C 167.5,210.5 167.5,213.5 167.5,216.5C 166.894,213.833 166.061,211.166 165,208.5C 163.983,210.376 163.149,212.376 162.5,214.5C 161.28,215.711 160.113,215.711 159,214.5C 157.814,216.677 155.981,217.677 153.5,217.5C 153.672,219.492 153.005,221.158 151.5,222.5C 152.167,223.167 152.833,223.833 153.5,224.5C 151.983,226.185 150.316,227.685 148.5,229C 144.23,229.777 140.897,231.944 138.5,235.5C 132.145,235.168 130.145,237.835 132.5,243.5C 130.839,245.328 129.172,247.328 127.5,249.5C 123.832,258.167 120.166,266.834 116.5,275.5C 115.743,279.683 114.41,283.683 112.5,287.5C 109.285,289.107 107.951,291.774 108.5,295.5C 106.431,298.602 104.098,301.602 101.5,304.5C 99.8793,304.787 98.8793,305.787 98.5,307.5C 90.1932,308.498 81.8599,308.831 73.5,308.5C 73.5,308.167 73.5,307.833 73.5,307.5C 73.5,303.5 73.5,299.5 73.5,295.5C 73.8333,295.5 74.1667,295.5 74.5,295.5C 74.4346,295.938 74.6012,296.272 75,296.5C 75.7504,295.874 76.5838,295.374 77.5,295C 76.2888,294.107 76.2888,293.274 77.5,292.5C 78.2508,293.376 78.7508,294.376 79,295.5C 80.049,293.893 81.549,293.227 83.5,293.5C 86.3504,288.459 88.6838,283.126 90.5,277.5C 93.9267,274.744 96.5934,271.41 98.5,267.5C 101.009,266.079 103.343,264.412 105.5,262.5C 106.689,261.571 108.022,261.238 109.5,261.5C 110.172,257.812 111.005,254.145 112,250.5C 116.359,246.974 120.859,243.641 125.5,240.5C 125.901,238.566 126.901,237.066 128.5,236C 127.424,234.274 127.257,232.441 128,230.5C 133.619,229.045 137.119,225.378 138.5,219.5C 141.167,217.167 143.833,214.833 146.5,212.5C 147.819,209.558 148.985,206.558 150,203.5C 154.407,200.286 157.574,196.286 159.5,191.5C 160.822,191.67 161.989,191.337 163,190.5C 164.231,195.064 165.065,199.731 165.5,204.5C 165.64,206.03 166.307,207.03 167.5,207.5 Z"/></g>
<g><path style="opacity:1" fill="#8b8d8b" d="M 178.5,246.5 C 177.167,248.5 175.5,250.167 173.5,251.5C 173.167,251.5 172.833,251.5 172.5,251.5C 171.972,250.153 171.805,248.819 172,247.5C 172.561,248.022 173.228,248.355 174,248.5C 175.406,247.586 176.906,246.92 178.5,246.5 Z"/></g>
<g><path style="opacity:0.906" fill="#a58d48" d="M 229.5,237.5 C 229.5,239.5 229.5,241.5 229.5,243.5C 229.5,244.167 229.5,244.833 229.5,245.5C 228.589,247.751 227.256,249.751 225.5,251.5C 225.848,247.742 226.515,244.076 227.5,240.5C 228.167,239.5 228.833,238.5 229.5,237.5 Z"/></g>
<g><path style="opacity:0.659" fill="#6f5a29" d="M 268.5,233.5 C 268.5,235.833 268.5,238.167 268.5,240.5C 266.74,249.803 264.906,259.136 263,268.5C 262.617,269.056 262.117,269.389 261.5,269.5C 263.55,257.326 265.883,245.326 268.5,233.5 Z"/></g>
<g><path style="opacity:1" fill="#d41c91" d="M 159.5,176.5 C 159.034,178.201 159.034,179.701 159.5,181C 156.691,181.312 154.024,180.812 151.5,179.5C 151.657,180.873 151.49,182.207 151,183.5C 150.667,183.167 150.333,182.833 150,182.5C 147.698,185.123 146.031,188.123 145,191.5C 144.085,190.672 143.419,189.672 143,188.5C 142.308,189.025 141.808,189.692 141.5,190.5C 143.279,192.193 143.779,194.193 143,196.5C 140.114,198.703 137.281,201.037 134.5,203.5C 133.704,208.963 130.704,212.63 125.5,214.5C 124.756,217.443 124.256,220.443 124,223.5C 122.445,225.146 120.779,225.479 119,224.5C 117.815,228.023 115.815,231.023 113,233.5C 112.316,232.216 112.483,231.049 113.5,230C 112.216,229.316 111.049,229.483 110,230.5C 109.289,232.899 109.456,235.232 110.5,237.5C 109.726,238.711 108.893,238.711 108,237.5C 104.927,245.319 99.7603,251.319 92.5,255.5C 88.4669,262.038 84.6335,268.704 81,275.5C 80.3333,274.833 79.6667,274.167 79,273.5C 78.7464,278.92 76.913,283.586 73.5,287.5C 71.8205,279.3 71.1538,270.967 71.5,262.5C 72.7186,264.942 74.2186,267.276 76,269.5C 76.7504,268.874 77.5838,268.374 78.5,268C 77.2528,266.506 77.2528,265.006 78.5,263.5C 80.1949,264.292 81.8615,263.958 83.5,262.5C 85.0369,258.831 86.7036,255.164 88.5,251.5C 90.4375,248.951 92.9375,247.284 96,246.5C 96.4828,245.552 96.6495,244.552 96.5,243.5C 97.5,243.5 98.5,243.5 99.5,243.5C 99.5,242.5 99.5,241.5 99.5,240.5C 102.285,241.084 103.952,240.084 104.5,237.5C 107.167,232.833 109.833,228.167 112.5,223.5C 113.496,223.586 114.329,223.252 115,222.5C 116.575,217.691 118.408,213.025 120.5,208.5C 121.892,207.395 123.059,206.061 124,204.5C 127.016,197.438 130.183,190.438 133.5,183.5C 135.709,180.915 138.376,178.915 141.5,177.5C 147.463,176.504 153.463,176.171 159.5,176.5 Z"/></g>
<g><path style="opacity:0.353" fill="#615e62" d="M 155.5,253.5 C 155.573,255.027 154.906,256.027 153.5,256.5C 153.427,254.973 154.094,253.973 155.5,253.5 Z"/></g>
<g><path style="opacity:0.008" fill="#222222" d="M 172.5,251.5 C 172.833,251.5 173.167,251.5 173.5,251.5C 172.415,253.587 170.749,254.92 168.5,255.5C 168.5,255.167 168.5,254.833 168.5,254.5C 169.833,253.5 171.167,252.5 172.5,251.5 Z"/></g>
<g><path style="opacity:0.686" fill="#711957" d="M 193.5,241.5 C 189.833,245.5 186.167,249.5 182.5,253.5C 182.167,253.5 181.833,253.5 181.5,253.5C 178.666,255.502 176.333,258.002 174.5,261C 171.621,263.385 168.621,265.552 165.5,267.5C 169.479,261.521 174.479,256.521 180.5,252.5C 184.559,248.435 188.893,244.768 193.5,241.5 Z"/></g>
<g><path style="opacity:0.18" fill="#5b481d" d="M 307.5,252.5 C 309.448,254.32 310.448,256.654 310.5,259.5C 308.707,257.574 307.707,255.241 307.5,252.5 Z"/></g>
<g><path style="opacity:0.302" fill="#545754" d="M 153.5,256.5 C 151.984,259.533 149.984,262.2 147.5,264.5C 148.529,261.109 150.529,258.443 153.5,256.5 Z"/></g>
<g><path style="opacity:0.997" fill="#e8e8e8" d="M 160.5,248.5 C 161.36,250.614 163.027,251.78 165.5,252C 163.842,252.725 163.342,253.892 164,255.5C 164.667,254.167 165.333,254.167 166,255.5C 166.342,253.381 167.175,253.047 168.5,254.5C 168.5,254.833 168.5,255.167 168.5,255.5C 167.167,257.5 165.5,259.167 163.5,260.5C 161.5,260.5 160.5,261.5 160.5,263.5C 160.167,264.5 159.5,265.167 158.5,265.5C 150.889,271.443 143.889,278.109 137.5,285.5C 136.395,286.6 135.062,287.267 133.5,287.5C 133.557,286.391 133.89,285.391 134.5,284.5C 136.25,283.341 137.25,281.674 137.5,279.5C 138.906,279.027 139.573,278.027 139.5,276.5C 140.906,276.027 141.573,275.027 141.5,273.5C 142.906,273.027 143.573,272.027 143.5,270.5C 145.822,269.198 147.155,267.198 147.5,264.5C 149.984,262.2 151.984,259.533 153.5,256.5C 154.906,256.027 155.573,255.027 155.5,253.5C 157.527,252.139 159.194,250.473 160.5,248.5 Z"/></g>
<g><path style="opacity:0.149" fill="#4c3612" d="M 225.5,252.5 C 225.58,255.781 224.913,258.781 223.5,261.5C 223.42,258.219 224.087,255.219 225.5,252.5 Z"/></g>
<g><path style="opacity:0.102" fill="#4b053b" d="M 129.5,252.5 C 128.284,257.262 126.284,261.595 123.5,265.5C 124.361,260.557 126.361,256.224 129.5,252.5 Z"/></g>
<g><path style="opacity:0.09" fill="#464d4e" d="M 163.5,260.5 C 162.833,261.833 161.833,262.833 160.5,263.5C 160.5,261.5 161.5,260.5 163.5,260.5 Z"/></g>
<g><path style="opacity:0.071" fill="#4b3718" d="M 299.5,249.5 C 298.58,257.034 297.246,264.367 295.5,271.5C 295.558,263.808 296.891,256.474 299.5,249.5 Z"/></g>
<g><path style="opacity:1" fill="#b42d96" d="M 132.5,243.5 C 131.647,246.59 130.647,249.59 129.5,252.5C 126.361,256.224 124.361,260.557 123.5,265.5C 122.504,265.414 121.671,265.748 121,266.5C 120.337,270.035 118.837,273.035 116.5,275.5C 120.166,266.834 123.832,258.167 127.5,249.5C 129.172,247.328 130.839,245.328 132.5,243.5 Z"/></g>
<g><path style="opacity:0.122" fill="#4d4d4e" d="M 147.5,264.5 C 147.155,267.198 145.822,269.198 143.5,270.5C 144.34,268.147 145.674,266.147 147.5,264.5 Z"/></g>
<g><path style="opacity:0.992" fill="#cbac5c" d="M 303.5,242.5 C 304.5,242.5 305.5,242.5 306.5,242.5C 306.433,244.401 306.767,246.234 307.5,248C 313.143,261.265 318.976,274.431 325,287.5C 326.145,290.432 326.978,293.432 327.5,296.5C 325.683,293.036 323.683,289.702 321.5,286.5C 321.536,283.539 320.536,281.206 318.5,279.5C 316.403,272.53 313.737,265.864 310.5,259.5C 310.448,256.654 309.448,254.32 307.5,252.5C 306.326,251.486 305.66,250.153 305.5,248.5C 305.396,246.297 304.73,244.297 303.5,242.5 Z"/></g>
<g><path style="opacity:1" fill="#ddb85a" d="M 229.5,245.5 C 225.358,266.138 221.358,286.804 217.5,307.5C 227.701,308.029 237.701,307.362 247.5,305.5C 246.833,306.5 246.167,307.5 245.5,308.5C 235.5,308.5 225.5,308.5 215.5,308.5C 217.667,295.82 220.167,283.153 223,270.5C 223.498,267.518 223.665,264.518 223.5,261.5C 224.913,258.781 225.58,255.781 225.5,252.5C 225.5,252.167 225.5,251.833 225.5,251.5C 227.256,249.751 228.589,247.751 229.5,245.5 Z"/></g>
<g><path style="opacity:0.02" fill="#4c0c44" d="M 207.5,237.5 C 201.888,252.055 195.222,266.055 187.5,279.5C 191.242,269.689 195.242,260.022 199.5,250.5C 202.022,246.051 204.689,241.718 207.5,237.5 Z"/></g>
<g><path style="opacity:0.137" fill="#484848" d="M 143.5,270.5 C 143.573,272.027 142.906,273.027 141.5,273.5C 141.427,271.973 142.094,270.973 143.5,270.5 Z"/></g>
<g><path style="opacity:0.176" fill="#513a18" d="M 374.5,257.5 C 372.707,270.47 370.041,283.136 366.5,295.5C 367.339,289.144 368.339,282.811 369.5,276.5C 369.5,275.5 369.5,274.5 369.5,273.5C 371.166,268.186 372.833,262.853 374.5,257.5 Z"/></g>
<g><path style="opacity:0.247" fill="#52421b" d="M 310.5,259.5 C 313.737,265.864 316.403,272.53 318.5,279.5C 314.872,273.296 312.205,266.629 310.5,259.5 Z"/></g>
<g><path style="opacity:0.122" fill="#423e42" d="M 141.5,273.5 C 141.573,275.027 140.906,276.027 139.5,276.5C 139.427,274.973 140.094,273.973 141.5,273.5 Z"/></g>
<g><path style="opacity:0.624" fill="#5d4c23" d="M 261.5,270.5 C 261.353,276.233 260.686,281.9 259.5,287.5C 258.833,288.5 258.167,289.5 257.5,290.5C 258.419,283.627 259.753,276.96 261.5,270.5 Z"/></g>
<g><path style="opacity:0.047" fill="#2a2a2a" d="M 139.5,276.5 C 139.573,278.027 138.906,279.027 137.5,279.5C 137.427,277.973 138.094,276.973 139.5,276.5 Z"/></g>
<g><path style="opacity:0.741" fill="#886f37" d="M 223.5,261.5 C 223.665,264.518 223.498,267.518 223,270.5C 220.167,283.153 217.667,295.82 215.5,308.5C 225.5,308.5 235.5,308.5 245.5,308.5C 244.791,309.404 243.791,309.737 242.5,309.5C 233.167,309.5 223.833,309.5 214.5,309.5C 214.5,307.5 214.5,305.5 214.5,303.5C 217.009,289.28 220.009,275.28 223.5,261.5 Z"/></g>
<g><path style="opacity:0.184" fill="#514017" d="M 295.5,271.5 C 294.375,281.793 292.375,291.793 289.5,301.5C 290.581,291.198 292.581,281.198 295.5,271.5 Z"/></g>
<g><path style="opacity:0.016" fill="#4c0a45" d="M 123.5,265.5 C 120.579,273.298 116.913,280.631 112.5,287.5C 114.41,283.683 115.743,279.683 116.5,275.5C 118.837,273.035 120.337,270.035 121,266.5C 121.671,265.748 122.504,265.414 123.5,265.5 Z"/></g>
<g><path style="opacity:0.071" fill="#2a2c29" d="M 158.5,265.5 C 152.111,272.891 145.111,279.557 137.5,285.5C 143.889,278.109 150.889,271.443 158.5,265.5 Z"/></g>
<g><path style="opacity:0.227" fill="#313131" d="M 137.5,279.5 C 137.25,281.674 136.25,283.341 134.5,284.5C 134.062,284.565 133.728,284.399 133.5,284C 134.733,282.333 136.067,280.833 137.5,279.5 Z"/></g>
<g><path style="opacity:1" fill="#dab65c" d="M 257.5,257.5 C 255.131,273.638 252.131,289.638 248.5,305.5C 248.167,305.5 247.833,305.5 247.5,305.5C 248.333,297.162 249.333,288.829 250.5,280.5C 251.167,279.833 251.833,279.167 252.5,278.5C 254.117,271.916 255.283,265.25 256,258.5C 256.383,257.944 256.883,257.611 257.5,257.5 Z"/></g>
<g><path style="opacity:0.149" fill="#5c4823" d="M 318.5,279.5 C 320.536,281.206 321.536,283.539 321.5,286.5C 319.707,284.574 318.707,282.241 318.5,279.5 Z"/></g>
<g><path style="opacity:1" fill="#ab2388" d="M 181.5,253.5 C 181.108,255.179 180.608,256.846 180,258.5C 175.809,261.698 171.643,264.864 167.5,268C 164.443,273.065 160.61,277.565 156,281.5C 155.888,284.447 154.388,285.78 151.5,285.5C 150.862,287.46 150.862,289.293 151.5,291C 150.551,291.617 149.718,291.451 149,290.5C 146.614,295.599 145.114,300.932 144.5,306.5C 148.783,307.492 153.116,307.826 157.5,307.5C 157.5,307.833 157.5,308.167 157.5,308.5C 152.833,308.5 148.167,308.5 143.5,308.5C 143.322,305.023 142.655,301.69 141.5,298.5C 141.743,295.344 142.576,292.344 144,289.5C 151.314,282.352 158.481,275.018 165.5,267.5C 168.621,265.552 171.621,263.385 174.5,261C 176.333,258.002 178.666,255.502 181.5,253.5 Z"/></g>
<g><path style="opacity:1" fill="#bf1f9f" d="M 199.5,250.5 C 195.242,260.022 191.242,269.689 187.5,279.5C 185.024,281.775 183.024,284.442 181.5,287.5C 181.343,286.127 181.51,284.793 182,283.5C 183.378,280.603 185.044,277.936 187,275.5C 187.781,274.056 187.614,272.723 186.5,271.5C 185.614,272.325 185.281,273.325 185.5,274.5C 183.063,273.613 180.73,272.78 178.5,272C 177.736,274.069 177.236,276.236 177,278.5C 176.259,279.641 175.425,279.641 174.5,278.5C 173.614,279.325 173.281,280.325 173.5,281.5C 172.127,281.343 170.793,281.51 169.5,282C 168.089,284.996 167.089,288.163 166.5,291.5C 163.263,292.525 160.43,294.191 158,296.5C 157.852,299.589 157.019,302.422 155.5,305C 156.056,306.011 156.722,306.844 157.5,307.5C 153.116,307.826 148.783,307.492 144.5,306.5C 145.114,300.932 146.614,295.599 149,290.5C 149.718,291.451 150.551,291.617 151.5,291C 150.862,289.293 150.862,287.46 151.5,285.5C 154.388,285.78 155.888,284.447 156,281.5C 160.61,277.565 164.443,273.065 167.5,268C 171.643,264.864 175.809,261.698 180,258.5C 180.608,256.846 181.108,255.179 181.5,253.5C 181.833,253.5 182.167,253.5 182.5,253.5C 183.239,253.631 183.906,253.464 184.5,253C 188.843,248.139 193.51,243.973 198.5,240.5C 198.746,237.53 200.412,236.197 203.5,236.5C 201.716,240.985 200.383,245.652 199.5,250.5 Z"/></g>
<g><path style="opacity:0.361" fill="#323933" d="M 137.5,285.5 C 136.526,288.654 134.526,289.654 131.5,288.5C 131.957,287.702 132.624,287.369 133.5,287.5C 135.062,287.267 136.395,286.6 137.5,285.5 Z"/></g>
<g><path style="opacity:0.259" fill="#4c0c3b" d="M 165.5,267.5 C 158.481,275.018 151.314,282.352 144,289.5C 142.576,292.344 141.743,295.344 141.5,298.5C 142.655,301.69 143.322,305.023 143.5,308.5C 143.5,308.833 143.5,309.167 143.5,309.5C 138.087,298.566 140.087,289.066 149.5,281C 154.726,276.266 160.059,271.766 165.5,267.5 Z"/></g>
<g><path style="opacity:0.216" fill="#513e19" d="M 321.5,286.5 C 323.683,289.702 325.683,293.036 327.5,296.5C 329.18,299.86 330.847,303.193 332.5,306.5C 327.3,300.774 323.633,294.107 321.5,286.5 Z"/></g>
<g><path style="opacity:0.961" fill="#781c67" d="M 112.5,287.5 C 111.674,290.485 110.341,293.151 108.5,295.5C 107.951,291.774 109.285,289.107 112.5,287.5 Z"/></g>
<g><path style="opacity:0.843" fill="#bb9a54" d="M 369.5,276.5 C 368.339,282.811 367.339,289.144 366.5,295.5C 366.5,296.5 366.5,297.5 366.5,298.5C 365.833,298.833 365.167,299.167 364.5,299.5C 365.177,292.086 366.343,284.753 368,277.5C 368.383,276.944 368.883,276.611 369.5,276.5 Z"/></g>
<g><path style="opacity:1" fill="#c223ad" d="M 181.5,287.5 C 179.833,292.833 178.167,298.167 176.5,303.5C 173.619,304.525 170.953,306.025 168.5,308C 164.848,308.499 161.182,308.665 157.5,308.5C 157.5,308.167 157.5,307.833 157.5,307.5C 156.722,306.844 156.056,306.011 155.5,305C 157.019,302.422 157.852,299.589 158,296.5C 160.43,294.191 163.263,292.525 166.5,291.5C 167.089,288.163 168.089,284.996 169.5,282C 170.793,281.51 172.127,281.343 173.5,281.5C 173.281,280.325 173.614,279.325 174.5,278.5C 175.425,279.641 176.259,279.641 177,278.5C 177.236,276.236 177.736,274.069 178.5,272C 180.73,272.78 183.063,273.613 185.5,274.5C 185.281,273.325 185.614,272.325 186.5,271.5C 187.614,272.723 187.781,274.056 187,275.5C 185.044,277.936 183.378,280.603 182,283.5C 181.51,284.793 181.343,286.127 181.5,287.5 Z"/></g>
<g><path style="opacity:0.322" fill="#55431a" d="M 257.5,290.5 C 257.785,293.829 257.118,296.829 255.5,299.5C 255.676,296.273 256.343,293.273 257.5,290.5 Z"/></g>
<g><path style="opacity:1" fill="#aa2479" d="M 69.5,247.5 C 69.8333,247.5 70.1667,247.5 70.5,247.5C 70.8333,247.5 71.1667,247.5 71.5,247.5C 71.5,252.5 71.5,257.5 71.5,262.5C 71.1538,270.967 71.8205,279.3 73.5,287.5C 73.5,290.167 73.5,292.833 73.5,295.5C 73.5,299.5 73.5,303.5 73.5,307.5C 72.2982,298.15 70.9649,288.817 69.5,279.5C 69.5,278.5 69.5,277.5 69.5,276.5C 69.5,266.833 69.5,257.167 69.5,247.5 Z"/></g>
<g><path style="opacity:1" fill="#d5b25b" d="M 303.5,242.5 C 302.167,242.5 300.833,242.5 299.5,242.5C 299.5,244.5 299.5,246.5 299.5,248.5C 299.5,248.833 299.5,249.167 299.5,249.5C 296.891,256.474 295.558,263.808 295.5,271.5C 292.581,281.198 290.581,291.198 289.5,301.5C 288.136,303.22 287.136,305.22 286.5,307.5C 276.188,308.499 265.855,308.832 255.5,308.5C 255.5,305.5 255.5,302.5 255.5,299.5C 257.118,296.829 257.785,293.829 257.5,290.5C 258.167,289.5 258.833,288.5 259.5,287.5C 259.119,293.961 258.119,300.294 256.5,306.5C 264.99,307.657 273.657,307.824 282.5,307C 283.5,306.5 284.5,306 285.5,305.5C 289.236,284.655 293.402,263.988 298,243.5C 299.65,240.373 301.483,240.04 303.5,242.5 Z"/></g>
<g><path style="opacity:0.2" fill="#430b3c" d="M 187.5,279.5 C 184.204,287.747 180.537,295.747 176.5,303.5C 178.167,298.167 179.833,292.833 181.5,287.5C 183.024,284.442 185.024,281.775 187.5,279.5 Z"/></g>
<g><path style="opacity:0.259" fill="#60461e" d="M 366.5,298.5 C 365.993,302.083 364.993,305.417 363.5,308.5C 363.704,305.482 364.037,302.482 364.5,299.5C 365.167,299.167 365.833,298.833 366.5,298.5 Z"/></g>
<g><path style="opacity:0.663" fill="#6e6037" d="M 255.5,299.5 C 255.5,302.5 255.5,305.5 255.5,308.5C 254.12,308.038 253.453,307.038 253.5,305.5C 253.878,303.283 254.545,301.283 255.5,299.5 Z"/></g>
<g><path style="opacity:0.027" fill="#483e18" d="M 247.5,305.5 C 247.833,305.5 248.167,305.5 248.5,305.5C 248.5,307.5 247.5,308.5 245.5,308.5C 246.167,307.5 246.833,306.5 247.5,305.5 Z"/></g>
<g><path style="opacity:0.765" fill="#66175c" d="M 176.5,303.5 C 175.316,306.849 172.983,309.015 169.5,310C 160.755,310.802 152.088,310.636 143.5,309.5C 143.5,309.167 143.5,308.833 143.5,308.5C 148.167,308.5 152.833,308.5 157.5,308.5C 161.182,308.665 164.848,308.499 168.5,308C 170.953,306.025 173.619,304.525 176.5,303.5 Z"/></g>
<g><path style="opacity:0.663" fill="#77602b" d="M 289.5,301.5 C 289.403,304.979 288.069,307.812 285.5,310C 277.167,310.667 268.833,310.667 260.5,310C 258.618,309.802 256.952,309.302 255.5,308.5C 265.855,308.832 276.188,308.499 286.5,307.5C 287.136,305.22 288.136,303.22 289.5,301.5 Z"/></g>
<g><path style="opacity:0.685" fill="#7e6531" d="M 332.5,306.5 C 333.756,306.461 334.756,306.961 335.5,308C 344.827,308.5 354.161,308.666 363.5,308.5C 363.082,309.222 362.416,309.722 361.5,310C 353.167,310.667 344.833,310.667 336.5,310C 334.676,309.34 333.343,308.173 332.5,306.5 Z"/></g>
<g><path style="opacity:0.203" fill="#550c46" d="M 69.5,279.5 C 70.9649,288.817 72.2982,298.15 73.5,307.5C 73.5,307.833 73.5,308.167 73.5,308.5C 81.9901,309.657 90.6567,309.824 99.5,309C 100.582,307.67 101.249,306.17 101.5,304.5C 104.098,301.602 106.431,298.602 108.5,295.5C 106.746,300.842 104.079,305.675 100.5,310C 91.1667,310.667 81.8333,310.667 72.5,310C 70.7692,299.954 69.7692,289.787 69.5,279.5 Z"/></g>
<g><path style="opacity:0.865" fill="#a22a88" d="M 101.5,304.5 C 101.249,306.17 100.582,307.67 99.5,309C 90.6567,309.824 81.9901,309.657 73.5,308.5C 81.8599,308.831 90.1932,308.498 98.5,307.5C 98.8793,305.787 99.8793,304.787 101.5,304.5 Z"/></g>
<g><path style="opacity:0.12" fill="#402c0f" d="M 214.5,303.5 C 214.5,305.5 214.5,307.5 214.5,309.5C 223.833,309.5 233.167,309.5 242.5,309.5C 233.014,310.494 223.348,310.827 213.5,310.5C 213.198,307.941 213.532,305.607 214.5,303.5 Z"/></g>
<g><path style="opacity:0.082" fill="#363636" d="M 271.5,330.5 C 265.833,329.167 260.167,329.167 254.5,330.5C 257.017,329.027 259.85,328.36 263,328.5C 266.15,328.36 268.983,329.027 271.5,330.5 Z"/></g>
<g><path style="opacity:0.379" fill="#595959" d="M 357.5,335.5 C 356.053,334.378 355.053,332.878 354.5,331C 349.871,329.978 345.538,330.478 341.5,332.5C 341.414,331.504 341.748,330.671 342.5,330C 346.776,328.472 351.109,328.472 355.5,330C 356.861,331.584 357.528,333.418 357.5,335.5 Z"/></g>
<g><path style="opacity:0.998" fill="#f1f1f1" d="M 271.5,330.5 C 273.027,330.427 274.027,331.094 274.5,332.5C 274.5,334.833 274.5,337.167 274.5,339.5C 272.194,339.007 269.861,338.674 267.5,338.5C 264.696,337.362 261.696,337.195 258.5,338C 255.86,340.621 255.86,343.121 258.5,345.5C 258.973,346.906 259.973,347.573 261.5,347.5C 262.287,349.104 263.62,349.771 265.5,349.5C 267.284,349.893 268.95,350.559 270.5,351.5C 271.785,353.452 273.451,355.118 275.5,356.5C 276.114,360.135 276.448,363.802 276.5,367.5C 276.5,367.833 276.5,368.167 276.5,368.5C 274.105,370.123 272.772,372.456 272.5,375.5C 270.973,375.427 269.973,376.094 269.5,377.5C 264.195,378.194 258.862,378.528 253.5,378.5C 250.759,378.977 248.426,377.977 246.5,375.5C 246.5,373.167 246.5,370.833 246.5,368.5C 249.016,368.755 251.35,369.589 253.5,371C 256.696,371.805 259.696,371.638 262.5,370.5C 266.784,369.615 268.284,366.949 267,362.5C 266.184,361.177 265.017,360.511 263.5,360.5C 259.849,359.341 256.515,357.674 253.5,355.5C 247.959,349.884 246.292,343.217 248.5,335.5C 250.167,334.5 251.5,333.167 252.5,331.5C 252.842,330.662 253.508,330.328 254.5,330.5C 260.167,329.167 265.833,329.167 271.5,330.5 Z"/></g>
<g><path style="opacity:0.999" fill="#f0f0f0" d="M 79.5,330.5 C 86.175,330.334 92.8417,330.5 99.5,331C 103.268,332.051 106.601,333.884 109.5,336.5C 110.167,336.5 110.5,336.833 110.5,337.5C 111.162,341.466 111.495,345.466 111.5,349.5C 111.598,351.553 110.931,353.22 109.5,354.5C 107.5,355.833 105.833,357.5 104.5,359.5C 99.3036,361.087 93.9703,361.754 88.5,361.5C 88.5,363.833 88.5,366.167 88.5,368.5C 88.5,371.833 88.5,375.167 88.5,378.5C 85.4773,379.678 82.4773,379.678 79.5,378.5C 78.1802,362.53 78.1802,346.53 79.5,330.5 Z M 97.5,339.5 C 101.448,343.593 101.448,347.759 97.5,352C 95.8455,352.608 94.1789,353.108 92.5,353.5C 91.791,352.596 90.791,352.263 89.5,352.5C 89.5,348.167 89.5,343.833 89.5,339.5C 92.1667,339.5 94.8333,339.5 97.5,339.5 Z"/></g>
<g><path style="opacity:0.999" fill="#f9f9f9" d="M 193.5,330.5 C 193.5,332.833 193.5,335.167 193.5,337.5C 187.167,337.5 180.833,337.5 174.5,337.5C 174.183,341.702 174.517,345.702 175.5,349.5C 180.305,350.487 185.305,350.821 190.5,350.5C 190.5,352.5 190.5,354.5 190.5,356.5C 185.167,356.5 179.833,356.5 174.5,356.5C 174.181,361.363 174.514,366.03 175.5,370.5C 180.975,371.489 186.642,371.822 192.5,371.5C 192.5,373.5 192.5,375.5 192.5,377.5C 183.833,377.5 175.167,377.5 166.5,377.5C 165.351,362.241 165.184,346.908 166,331.5C 175.083,330.515 184.249,330.182 193.5,330.5 Z"/></g>
<g><path style="opacity:0.999" fill="#f1f1f1" d="M 357.5,335.5 C 358.675,342.698 361.009,349.365 364.5,355.5C 366.5,363.167 368.5,370.833 370.5,378.5C 366.936,379.903 363.602,379.569 360.5,377.5C 360.655,374.284 359.655,371.617 357.5,369.5C 354.913,368.184 351.913,367.517 348.5,367.5C 345.5,367.667 342.5,367.833 339.5,368C 338.62,369.356 338.286,370.856 338.5,372.5C 337.035,373.406 336.035,374.739 335.5,376.5C 333.369,377.169 331.369,377.835 329.5,378.5C 328.833,378.5 328.167,378.5 327.5,378.5C 329.205,370.756 331.205,363.089 333.5,355.5C 333.5,355.167 333.5,354.833 333.5,354.5C 337.52,347.782 340.187,340.449 341.5,332.5C 345.538,330.478 349.871,329.978 354.5,331C 355.053,332.878 356.053,334.378 357.5,335.5 Z M 349.5,344.5 C 349.5,344.833 349.5,345.167 349.5,345.5C 350.129,348.397 351.129,351.064 352.5,353.5C 352.253,355.858 352.919,357.858 354.5,359.5C 351.15,359.665 347.817,359.498 344.5,359C 343.663,357.989 343.33,356.822 343.5,355.5C 344.404,354.791 344.737,353.791 344.5,352.5C 346.074,350.898 346.741,348.898 346.5,346.5C 347.222,345.449 348.222,344.782 349.5,344.5 Z"/></g>
<g><path style="opacity:0.125" fill="#595959" d="M 79.5,330.5 C 86.3209,329.345 93.3209,329.179 100.5,330C 102.949,330.725 105.283,331.725 107.5,333C 108.823,333.816 109.489,334.983 109.5,336.5C 106.601,333.884 103.268,332.051 99.5,331C 92.8417,330.5 86.175,330.334 79.5,330.5 Z"/></g>
<g><path style="opacity:0.304" fill="#474747" d="M 193.5,330.5 C 194.249,331.531 194.915,332.698 195.5,334C 194.915,335.302 194.249,336.469 193.5,337.5C 193.5,335.167 193.5,332.833 193.5,330.5 Z"/></g>
<g><path style="opacity:0.247" fill="#494949" d="M 252.5,331.5 C 251.5,333.167 250.167,334.5 248.5,335.5C 248.833,333.167 250.167,331.833 252.5,331.5 Z"/></g>
<g><path style="opacity:0.318" fill="#7b7b7b" d="M 193.5,337.5 C 193.158,338.338 192.492,338.672 191.5,338.5C 186.167,338.5 180.833,338.5 175.5,338.5C 175.5,342.167 175.5,345.833 175.5,349.5C 174.517,345.702 174.183,341.702 174.5,337.5C 180.833,337.5 187.167,337.5 193.5,337.5 Z"/></g>
<g><path style="opacity:0.03" fill="#212121" d="M 191.5,338.5 C 186.695,339.487 181.695,339.821 176.5,339.5C 176.5,342.5 176.5,345.5 176.5,348.5C 181.032,348.182 185.366,348.515 189.5,349.5C 184.833,349.5 180.167,349.5 175.5,349.5C 175.5,345.833 175.5,342.167 175.5,338.5C 180.833,338.5 186.167,338.5 191.5,338.5 Z"/></g>
<g><path style="opacity:0.549" fill="#5a5a5a" d="M 274.5,332.5 C 275.473,334.948 275.806,337.615 275.5,340.5C 272.505,340.706 269.838,340.04 267.5,338.5C 269.861,338.674 272.194,339.007 274.5,339.5C 274.5,337.167 274.5,334.833 274.5,332.5 Z"/></g>
<g><path style="opacity:0.478" fill="#656565" d="M 357.5,335.5 C 360.204,341.941 362.537,348.608 364.5,355.5C 361.009,349.365 358.675,342.698 357.5,335.5 Z"/></g>
<g><path style="opacity:0.067" fill="#2e2e2e" d="M 97.5,339.5 C 94.8333,339.5 92.1667,339.5 89.5,339.5C 89.5,343.833 89.5,348.167 89.5,352.5C 90.791,352.263 91.791,352.596 92.5,353.5C 91.1667,353.5 89.8333,353.5 88.5,353.5C 88.5,348.167 88.5,342.833 88.5,337.5C 91.8774,337.068 94.8774,337.735 97.5,339.5 Z"/></g>
<g><path style="opacity:0.067" fill="#4b4b4b" d="M 267.5,338.5 C 264.813,338.336 262.146,338.503 259.5,339C 257.166,340.842 256.832,343.009 258.5,345.5C 255.86,343.121 255.86,340.621 258.5,338C 261.696,337.195 264.696,337.362 267.5,338.5 Z"/></g>
<g><path style="opacity:0.596" fill="#646464" d="M 341.5,332.5 C 340.187,340.449 337.52,347.782 333.5,354.5C 335.996,347.004 338.663,339.671 341.5,332.5 Z"/></g>
<g><path style="opacity:0.242" fill="#575757" d="M 79.5,330.5 C 78.1802,346.53 78.1802,362.53 79.5,378.5C 78.169,371.03 77.5023,363.196 77.5,355C 77.6667,347.167 77.8333,339.333 78,331.5C 78.3826,330.944 78.8826,330.611 79.5,330.5 Z"/></g>
<g><path style="opacity:0.071" fill="#353535" d="M 110.5,337.5 C 111.926,339.679 112.592,342.179 112.5,345C 112.492,346.707 112.158,348.207 111.5,349.5C 111.495,345.466 111.162,341.466 110.5,337.5 Z"/></g>
<g><path style="opacity:0.047" fill="#313131" d="M 349.5,344.5 C 348.222,344.782 347.222,345.449 346.5,346.5C 346.491,344.692 346.991,343.025 348,341.5C 349.039,342.244 349.539,343.244 349.5,344.5 Z"/></g>
<g><path style="opacity:0.027" fill="#404040" d="M 258.5,345.5 C 260.027,345.427 261.027,346.094 261.5,347.5C 259.973,347.573 258.973,346.906 258.5,345.5 Z"/></g>
<g><path style="opacity:0.125" fill="#494949" d="M 346.5,346.5 C 346.741,348.898 346.074,350.898 344.5,352.5C 344.595,350.214 345.262,348.214 346.5,346.5 Z"/></g>
<g><path style="opacity:0.165" fill="#4e4e4e" d="M 349.5,345.5 C 351.655,347.617 352.655,350.284 352.5,353.5C 351.129,351.064 350.129,348.397 349.5,345.5 Z"/></g>
<g><path style="opacity:0.204" fill="#626262" d="M 261.5,347.5 C 263.153,347.66 264.486,348.326 265.5,349.5C 263.62,349.771 262.287,349.104 261.5,347.5 Z"/></g>
<g><path style="opacity:0.42" fill="#6f6f6f" d="M 248.5,335.5 C 246.292,343.217 247.959,349.884 253.5,355.5C 247.092,352.149 244.592,346.816 246,339.5C 246.2,337.68 247.034,336.347 248.5,335.5 Z"/></g>
<g><path style="opacity:0.414" fill="#6c6c6c" d="M 175.5,349.5 C 180.167,349.5 184.833,349.5 189.5,349.5C 193.043,351.693 193.377,354.36 190.5,357.5C 190.5,357.167 190.5,356.833 190.5,356.5C 190.5,354.5 190.5,352.5 190.5,350.5C 185.305,350.821 180.305,350.487 175.5,349.5 Z"/></g>
<g><path style="opacity:0.337" fill="#6f6f6f" d="M 97.5,339.5 C 99.0174,339.511 100.184,340.177 101,341.5C 102.709,351.962 98.5419,355.962 88.5,353.5C 89.8333,353.5 91.1667,353.5 92.5,353.5C 94.1789,353.108 95.8455,352.608 97.5,352C 101.448,347.759 101.448,343.593 97.5,339.5 Z"/></g>
<g><path style="opacity:0.302" fill="#565656" d="M 270.5,351.5 C 273.189,352.189 274.856,353.856 275.5,356.5C 273.451,355.118 271.785,353.452 270.5,351.5 Z"/></g>
<g><path style="opacity:0.051" fill="#373737" d="M 109.5,354.5 C 108.833,357.167 107.167,358.833 104.5,359.5C 105.833,357.5 107.5,355.833 109.5,354.5 Z"/></g>
<g><path style="opacity:0.592" fill="#aaaaaa" d="M 190.5,356.5 C 190.5,356.833 190.5,357.167 190.5,357.5C 185.833,357.5 181.167,357.5 176.5,357.5C 175.515,361.634 175.182,365.968 175.5,370.5C 174.514,366.03 174.181,361.363 174.5,356.5C 179.833,356.5 185.167,356.5 190.5,356.5 Z"/></g>
<g><path style="opacity:0.537" fill="#5f5f5f" d="M 333.5,355.5 C 331.205,363.089 329.205,370.756 327.5,378.5C 326.378,376.712 326.211,374.712 327,372.5C 329.097,366.695 331.263,361.029 333.5,355.5 Z"/></g>
<g><path style="opacity:0.439" fill="#606060" d="M 364.5,355.5 C 366.737,361.029 368.903,366.695 371,372.5C 371.789,374.712 371.622,376.712 370.5,378.5C 368.5,370.833 366.5,363.167 364.5,355.5 Z"/></g>
<g><path style="opacity:0.493" fill="#959595" d="M 343.5,355.5 C 343.33,356.822 343.663,357.989 344.5,359C 347.817,359.498 351.15,359.665 354.5,359.5C 350.366,360.485 346.032,360.818 341.5,360.5C 341.12,358.302 341.787,356.635 343.5,355.5 Z"/></g>
<g><path style="opacity:0.216" fill="#4a4a4a" d="M 104.5,359.5 C 103.158,360.793 101.491,361.626 99.5,362C 96.5,362.333 93.5,362.667 90.5,363C 89.8906,364.948 89.224,366.782 88.5,368.5C 88.5,366.167 88.5,363.833 88.5,361.5C 93.9703,361.754 99.3036,361.087 104.5,359.5 Z"/></g>
<g><path style="opacity:0.253" fill="#585858" d="M 193.5,330.5 C 184.249,330.182 175.083,330.515 166,331.5C 165.184,346.908 165.351,362.241 166.5,377.5C 166.5,377.833 166.5,378.167 166.5,378.5C 165.883,378.389 165.383,378.056 165,377.5C 164.78,363.815 164.28,350.148 163.5,336.5C 163.692,334.423 164.192,332.423 165,330.5C 174.598,329.172 184.098,329.172 193.5,330.5 Z"/></g>
<g><path style="opacity:0.431" fill="#949494" d="M 275.5,356.5 C 276.674,357.514 277.34,358.847 277.5,360.5C 277.802,363.059 277.468,365.393 276.5,367.5C 276.448,363.802 276.114,360.135 275.5,356.5 Z"/></g>
<g><path style="opacity:0.058" fill="#323232" d="M 277.5,360.5 C 278.156,361.622 278.489,362.955 278.5,364.5C 278.639,366.883 277.972,368.883 276.5,370.5C 276.5,369.833 276.5,369.167 276.5,368.5C 276.5,368.167 276.5,367.833 276.5,367.5C 277.468,365.393 277.802,363.059 277.5,360.5 Z"/></g>
<g><path style="opacity:0.512" fill="#626262" d="M 262.5,370.5 C 259.696,371.638 256.696,371.805 253.5,371C 251.35,369.589 249.016,368.755 246.5,368.5C 246.5,370.833 246.5,373.167 246.5,375.5C 243.567,372.158 243.901,369.158 247.5,366.5C 252.073,369.469 257.073,370.803 262.5,370.5 Z"/></g>
<g><path style="opacity:0.096" fill="#454545" d="M 357.5,369.5 C 351.916,368.382 346.249,368.215 340.5,369C 339.915,370.302 339.249,371.469 338.5,372.5C 338.286,370.856 338.62,369.356 339.5,368C 342.5,367.833 345.5,367.667 348.5,367.5C 351.913,367.517 354.913,368.184 357.5,369.5 Z"/></g>
<g><path style="opacity:0.451" fill="#666666" d="M 263.5,360.5 C 265.017,360.511 266.184,361.177 267,362.5C 268.284,366.949 266.784,369.615 262.5,370.5C 266.757,367.445 267.09,364.111 263.5,360.5 Z"/></g>
<g><path style="opacity:0.086" fill="#2b2b2b" d="M 176.5,357.5 C 176.207,361.437 176.54,365.27 177.5,369C 183.016,369.173 188.349,369.673 193.5,370.5C 187.5,370.5 181.5,370.5 175.5,370.5C 175.182,365.968 175.515,361.634 176.5,357.5 Z"/></g>
<g><path style="opacity:0.978" fill="#999999" d="M 276.5,368.5 C 276.5,369.167 276.5,369.833 276.5,370.5C 275.864,372.795 274.531,374.461 272.5,375.5C 272.772,372.456 274.105,370.123 276.5,368.5 Z"/></g>
<g><path style="opacity:0.349" fill="#5d5d5d" d="M 357.5,369.5 C 359.655,371.617 360.655,374.284 360.5,377.5C 358.733,375.208 357.733,372.542 357.5,369.5 Z"/></g>
<g><path style="opacity:0.071" fill="#555555" d="M 272.5,375.5 C 272.027,376.906 271.027,377.573 269.5,377.5C 269.973,376.094 270.973,375.427 272.5,375.5 Z"/></g>
<g><path style="opacity:0.725" fill="#bbbbbb" d="M 175.5,370.5 C 181.5,370.5 187.5,370.5 193.5,370.5C 194.473,372.948 194.806,375.615 194.5,378.5C 185.167,378.5 175.833,378.5 166.5,378.5C 166.5,378.167 166.5,377.833 166.5,377.5C 175.167,377.5 183.833,377.5 192.5,377.5C 192.5,375.5 192.5,373.5 192.5,371.5C 186.642,371.822 180.975,371.489 175.5,370.5 Z"/></g>
<g><path style="opacity:0.782" fill="#8b8b8b" d="M 338.5,372.5 C 337.76,379.007 334.76,381.007 329.5,378.5C 331.369,377.835 333.369,377.169 335.5,376.5C 336.035,374.739 337.035,373.406 338.5,372.5 Z"/></g>
<g><path style="opacity:0.424" fill="#717171" d="M 269.5,377.5 C 268.48,378.954 267.313,379.287 266,378.5C 261.726,381.144 257.559,381.144 253.5,378.5C 258.862,378.528 264.195,378.194 269.5,377.5 Z"/></g>
</svg>
